<svg width="250" height="186" viewBox="0 0 250 186" fill="none" xmlns="http://www.w3.org/2000/svg">
<g clip-path="url(#clip0_220_2474)">
<path d="M250 163.457H0V163.582H250V163.457Z" fill="#EBEBEB"/>
<path d="M42.79 168.209H26.23V168.334H42.79V168.209Z" fill="#EBEBEB"/>
<path d="M89.915 166.856H76.72V166.981H89.915V166.856Z" fill="#EBEBEB"/>
<path d="M67.945 171.154H44.985V171.279H67.945V171.154Z" fill="#EBEBEB"/>
<path d="M224.95 172.008H214.15V172.133H224.95V172.008Z" fill="#EBEBEB"/>
<path d="M211.72 172.008H195.735V172.133H211.72V172.008Z" fill="#EBEBEB"/>
<path d="M166.165 169.896H138.605V170.021H166.165V169.896Z" fill="#EBEBEB"/>
<path d="M118.5 141.193H21.955C21.1987 141.192 20.4738 140.891 19.9394 140.357C19.4051 139.822 19.105 139.098 19.105 138.343V2.85033C19.105 2.09524 19.4051 1.371 19.9394 0.836604C20.4738 0.302207 21.1987 0.0013224 21.955 0L118.5 0C119.257 0 119.983 0.300301 120.519 0.834841C121.054 1.36938 121.355 2.09437 121.355 2.85033V138.343C121.355 138.717 121.281 139.088 121.138 139.434C120.994 139.78 120.784 140.094 120.519 140.359C120.254 140.623 119.939 140.833 119.593 140.977C119.246 141.12 118.875 141.193 118.5 141.193ZM21.955 0.124795C21.2318 0.126118 20.5387 0.413855 20.0278 0.924848C19.5169 1.43584 19.23 2.12833 19.23 2.85033V138.343C19.23 139.065 19.5169 139.758 20.0278 140.269C20.5387 140.78 21.2318 141.067 21.955 141.069H118.5C119.224 141.067 119.917 140.78 120.429 140.269C120.941 139.758 121.229 139.066 121.23 138.343V2.85033C121.229 2.12788 120.941 1.43539 120.429 0.924542C119.917 0.413692 119.224 0.126115 118.5 0.124795H21.955Z" fill="#EBEBEB"/>
<path d="M226.655 141.193H130.105C129.348 141.192 128.623 140.891 128.088 140.357C127.553 139.823 127.251 139.099 127.25 138.343V2.85033C127.251 2.09478 127.553 1.37055 128.088 0.836299C128.623 0.302045 129.348 0.00131974 130.105 0L226.655 0C227.41 0.00264178 228.134 0.304109 228.667 0.838363C229.201 1.37262 229.5 2.0961 229.5 2.85033V138.343C229.5 139.097 229.201 139.821 228.667 140.355C228.134 140.889 227.41 141.191 226.655 141.193ZM130.105 0.124795C129.381 0.126115 128.688 0.413692 128.176 0.924542C127.664 1.43539 127.376 2.12788 127.375 2.85033V138.343C127.376 139.066 127.664 139.758 128.176 140.269C128.688 140.78 129.381 141.067 130.105 141.069H226.655C227.379 141.067 228.072 140.78 228.584 140.269C229.096 139.758 229.384 139.066 229.385 138.343V2.85033C229.384 2.12788 229.096 1.43539 228.584 0.924542C228.072 0.413692 227.379 0.126115 226.655 0.124795H130.105Z" fill="#EBEBEB"/>
<path d="M35.185 82.31L170.465 82.31V7.11834L35.185 7.11834V82.31Z" fill="#E0E0E0"/>
<path d="M27.76 82.31L169.785 82.31V7.11834L27.76 7.11834V82.31Z" fill="#F5F5F5"/>
<path d="M167.46 79.9938V9.43952L30.075 9.43952V79.9938L167.46 79.9938Z" fill="white"/>
<path d="M111.835 79.9938L85.895 9.43952H128.705L154.645 79.9938H111.835Z" fill="#F5F5F5"/>
<path d="M70.6299 79.9938L44.6899 9.43952H76.9849L102.92 79.9938H70.6299Z" fill="#F5F5F5"/>
<path d="M216.25 161.121H223.95V109.391H216.25V161.121Z" fill="#F0F0F0"/>
<path d="M137.91 163.457H222.465V161.126H137.91V163.457Z" fill="#F0F0F0"/>
<path d="M216.25 109.391H136.435V161.121H216.25V109.391Z" fill="#F5F5F5"/>
<path d="M217.05 109.391H224.92V107.354H217.05V109.391Z" fill="#F0F0F0"/>
<path d="M217.045 107.354H135.465V109.391H217.045V107.354Z" fill="#FAFAFA"/>
<path d="M213.535 133.91H139.145V113.604H213.535V133.91ZM139.775 133.281H212.905V114.233H139.775V133.281Z" fill="#E0E0E0"/>
<path d="M213.535 156.908H139.145V136.886H213.535V156.908ZM139.775 156.279H212.905V137.515H139.775V156.279Z" fill="#E0E0E0"/>
<path d="M153.9 117.657H198.78C199 117.656 199.21 117.568 199.365 117.413C199.521 117.258 199.609 117.048 199.61 116.828C199.609 116.609 199.521 116.399 199.365 116.244C199.21 116.089 199 116.001 198.78 116H153.9C153.681 116.001 153.471 116.089 153.316 116.244C153.162 116.4 153.075 116.61 153.075 116.828C153.075 117.047 153.162 117.257 153.316 117.413C153.471 117.568 153.681 117.656 153.9 117.657Z" fill="#E0E0E0"/>
<path d="M153.9 140.934H198.78C199 140.934 199.211 140.847 199.367 140.691C199.523 140.536 199.61 140.325 199.61 140.105C199.609 139.886 199.521 139.677 199.365 139.523C199.21 139.368 198.999 139.282 198.78 139.282H153.9C153.681 139.282 153.471 139.368 153.317 139.523C153.162 139.677 153.075 139.887 153.075 140.105C153.074 140.214 153.095 140.321 153.136 140.422C153.177 140.522 153.238 140.614 153.315 140.691C153.392 140.768 153.483 140.829 153.583 140.871C153.684 140.912 153.791 140.934 153.9 140.934Z" fill="#E0E0E0"/>
<path d="M70.805 101.414H57.88C55.6029 101.446 53.401 102.233 51.6207 103.65C49.8403 105.068 48.5825 107.036 48.045 109.246L44.63 123.478L37.63 123.453C36.0044 123.45 34.4287 124.013 33.1733 125.044C31.918 126.075 31.0612 127.51 30.75 129.103L29.82 133.975C29.1132 134.083 28.4542 134.398 27.9264 134.879C27.3987 135.361 27.0258 135.988 26.855 136.681H61.5C63.7745 136.649 65.9739 135.863 67.7523 134.447C69.5308 133.031 70.7876 131.065 71.325 128.859L76.225 108.422C76.4475 107.595 76.4755 106.727 76.307 105.887C76.1385 105.046 75.7779 104.256 75.2533 103.578C74.7288 102.9 74.0544 102.352 73.2829 101.976C72.5113 101.601 71.6633 101.408 70.805 101.414ZM36.86 133.94H31.675L32.545 129.448C32.7744 128.279 33.4034 127.225 34.3245 126.468C35.2456 125.71 36.4016 125.295 37.595 125.295H44.175L43.365 128.789C43.0029 130.244 42.1683 131.539 40.9915 132.471C39.8147 133.403 38.3619 133.92 36.86 133.94Z" fill="#E6E6E6"/>
<path d="M60.65 136.681H62.13L67.955 163.457H66.475L60.65 136.681Z" fill="#E0E0E0"/>
<path d="M55.095 136.681H56.575L62.4 163.457H60.92L55.095 136.681Z" fill="#E0E0E0"/>
<path d="M33.29 136.681H31.81L25.985 163.457H27.465L33.29 136.681Z" fill="#E0E0E0"/>
<path d="M38.845 136.681H37.365L31.54 163.457H33.02L38.845 136.681Z" fill="#E0E0E0"/>
<path d="M118.79 101.414H105.87C103.593 101.446 101.391 102.233 99.6107 103.65C97.8303 105.068 96.5725 107.036 96.035 109.246L92.62 123.478L85.62 123.453C83.9989 123.453 82.4285 124.017 81.1792 125.048C79.9299 126.08 79.0797 127.514 78.775 129.103L77.84 133.975C77.1337 134.084 76.4754 134.399 75.9478 134.881C75.4203 135.362 75.047 135.988 74.875 136.681H109.5C111.775 136.65 113.976 135.865 115.755 134.449C117.535 133.033 118.792 131.066 119.33 128.859L124.23 108.422C124.453 107.593 124.481 106.723 124.311 105.882C124.142 105.04 123.779 104.249 123.252 103.57C122.726 102.891 122.049 102.343 121.274 101.969C120.5 101.595 119.65 101.405 118.79 101.414ZM84.845 133.94H79.66L80.53 129.448C80.7605 128.278 81.3904 127.225 82.3124 126.467C83.2343 125.71 84.391 125.295 85.585 125.295H92.17L91.35 128.789C90.9894 130.245 90.1553 131.541 88.9781 132.473C87.801 133.405 86.3474 133.921 84.845 133.94Z" fill="#E6E6E6"/>
<path d="M108.635 136.681H110.12L115.945 163.457H114.465L108.635 136.681Z" fill="#E0E0E0"/>
<path d="M103.08 136.681H104.56L110.39 163.457H108.91L103.08 136.681Z" fill="#E0E0E0"/>
<path d="M81.28 136.681H79.8L73.975 163.457H75.455L81.28 136.681Z" fill="#E0E0E0"/>
<path d="M86.835 136.681H85.355L79.53 163.457H81.01L86.835 136.681Z" fill="#E0E0E0"/>
<path d="M180.075 107.334H204.225L206.185 85.8392H182.035L180.075 107.334Z" fill="#E6E6E6"/>
<path d="M179.255 107.334H203.405L205.36 85.8392H181.215L179.255 107.334Z" fill="#F0F0F0"/>
<path d="M201.235 104.958L202.76 88.2203H183.38L181.855 104.958H201.235Z" fill="white"/>
<path d="M174.485 91.6397L173.055 107.334H184.625L186.06 91.6397H174.485Z" fill="#E6E6E6"/>
<path d="M173.885 91.6397L172.455 107.334H184.03L185.46 91.6397H173.885Z" fill="#F0F0F0"/>
<path d="M175.47 93.3769L174.355 105.597H182.445L183.56 93.3769H175.47Z" fill="white"/>
<path d="M125 186C178.541 186 221.945 183.47 221.945 180.349C221.945 177.228 178.541 174.699 125 174.699C71.4587 174.699 28.0549 177.228 28.0549 180.349C28.0549 183.47 71.4587 186 125 186Z" fill="#F5F5F5"/>
<path d="M203.805 128.524H72.09C71.3151 128.53 70.5474 128.376 69.8345 128.073C69.1216 127.77 68.4788 127.323 67.9461 126.762C67.4134 126.2 67.0021 125.534 66.7378 124.807C66.4736 124.08 66.362 123.306 66.41 122.534L71.325 22.1986C71.4161 20.5931 72.1139 19.0818 73.2777 17.97C74.4414 16.8582 75.9844 16.2286 77.595 16.2084H209.31C210.085 16.2028 210.853 16.3564 211.566 16.6597C212.278 16.9629 212.921 17.4093 213.454 17.9711C213.987 18.533 214.398 19.1982 214.662 19.9254C214.926 20.6527 215.038 21.4265 214.99 22.1986L210.075 122.534C209.983 124.139 209.285 125.65 208.121 126.761C206.958 127.873 205.415 128.503 203.805 128.524Z" fill="#407BFF"/>
<path opacity="0.7" d="M203.805 128.524H72.09C71.3151 128.53 70.5474 128.376 69.8345 128.073C69.1216 127.77 68.4788 127.323 67.9461 126.762C67.4134 126.2 67.0021 125.534 66.7378 124.807C66.4736 124.08 66.362 123.306 66.41 122.534L71.325 22.1986C71.4161 20.5931 72.1139 19.0818 73.2777 17.97C74.4414 16.8582 75.9844 16.2286 77.595 16.2084H209.31C210.085 16.2028 210.853 16.3564 211.566 16.6597C212.278 16.9629 212.921 17.4093 213.454 17.9711C213.987 18.533 214.398 19.1982 214.662 19.9254C214.926 20.6527 215.038 21.4265 214.99 22.1986L210.075 122.534C209.983 124.139 209.285 125.65 208.121 126.761C206.958 127.873 205.415 128.503 203.805 128.524Z" fill="white"/>
<path d="M214.41 17.2916C213.707 16.5189 212.832 15.9221 211.855 15.5495L212.035 15.0803C213.086 15.4869 214.027 16.135 214.78 16.9722L214.41 17.2916Z" fill="#407BFF"/>
<path d="M209.375 14.5961H198.845V15.0952H209.375V14.5961Z" fill="#407BFF"/>
<path d="M209.31 16.2384H77.595C75.9843 16.2586 74.4414 16.8881 73.2776 17.9999C72.1139 19.1118 71.416 20.623 71.325 22.2285H215C215.048 21.4556 214.936 20.681 214.671 19.953C214.406 19.2251 213.994 18.5594 213.46 17.9974C212.927 17.4355 212.283 16.9893 211.569 16.6866C210.855 16.384 210.086 16.2314 209.31 16.2384Z" fill="#1F61A9"/>
<path d="M70.43 121.76L75 28.9525C75.043 28.2046 75.3691 27.5008 75.9121 26.9837C76.4551 26.4666 77.1746 26.1747 77.925 26.1671H208C208.363 26.1602 208.724 26.2285 209.059 26.3675C209.394 26.5066 209.697 26.7135 209.948 26.9751C210.2 27.2368 210.394 27.5476 210.519 27.8879C210.644 28.2282 210.697 28.5907 210.675 28.9525L206.13 121.74C206.087 122.489 205.76 123.194 205.216 123.711C204.672 124.228 203.951 124.519 203.2 124.526H73.085C72.7256 124.529 72.3694 124.459 72.0382 124.319C71.707 124.18 71.4079 123.975 71.1592 123.716C70.9105 123.457 70.7176 123.149 70.5922 122.813C70.4667 122.477 70.4116 122.119 70.43 121.76Z" fill="white"/>
<path opacity="0.3" d="M88.89 57.9999H82.89C82.7601 58.0014 82.6313 57.9764 82.5114 57.9262C82.3916 57.8761 82.2834 57.8019 82.1934 57.7083C82.1034 57.6148 82.0336 57.5038 81.9883 57.3822C81.943 57.2606 81.9232 57.1311 81.93 57.0015L82.43 46.5187C82.4477 46.2494 82.5668 45.9967 82.7635 45.8115C82.9601 45.6263 83.2197 45.5223 83.49 45.5204H89.49C89.6202 45.5189 89.7492 45.5439 89.8693 45.594C89.9894 45.6441 90.0979 45.7182 90.1883 45.8117C90.2787 45.9052 90.3489 46.0161 90.3948 46.1377C90.4407 46.2593 90.4612 46.3889 90.455 46.5187L89.955 57.0015C89.9373 57.2717 89.8175 57.5251 89.6198 57.7104C89.422 57.8957 89.1612 57.9992 88.89 57.9999Z" fill="#407BFF"/>
<path opacity="0.3" d="M100.9 57.9999H94.9C94.7701 58.0007 94.6414 57.9751 94.5216 57.9248C94.4019 57.8744 94.2936 57.8004 94.2034 57.707C94.1132 57.6137 94.0429 57.503 93.9967 57.3818C93.9506 57.2605 93.9296 57.1311 93.935 57.0015L94.54 44.6218C94.5589 44.3521 94.6791 44.0994 94.8766 43.9143C95.074 43.7292 95.3342 43.6253 95.605 43.6235H101.605C101.735 43.622 101.864 43.647 101.984 43.6971C102.104 43.7472 102.213 43.8213 102.303 43.9148C102.394 44.0083 102.464 44.1192 102.51 44.2408C102.556 44.3624 102.576 44.4921 102.57 44.6218L101.965 57.0015C101.945 57.2709 101.824 57.5229 101.627 57.7078C101.43 57.8926 101.171 57.9969 100.9 57.9999Z" fill="#407BFF"/>
<path opacity="0.3" d="M112.91 57.9999H106.91C106.78 58.0007 106.651 57.9751 106.532 57.9248C106.412 57.8744 106.304 57.8004 106.213 57.707C106.123 57.6137 106.053 57.503 106.007 57.3818C105.961 57.2605 105.94 57.1311 105.945 57.0015L106.615 43.329C106.634 43.0592 106.754 42.8065 106.952 42.6214C107.149 42.4363 107.409 42.3324 107.68 42.3306H113.68C113.81 42.3291 113.939 42.3541 114.059 42.4042C114.179 42.4543 114.288 42.5284 114.378 42.6219C114.469 42.7154 114.539 42.8263 114.585 42.9479C114.631 43.0695 114.651 43.1992 114.645 43.329L114 56.9866C113.983 57.2629 113.861 57.5222 113.658 57.7108C113.455 57.8995 113.187 58.003 112.91 57.9999Z" fill="#407BFF"/>
<path opacity="0.3" d="M124.925 57.9999H118.925C118.795 58.0007 118.667 57.9751 118.547 57.9248C118.428 57.8744 118.32 57.8002 118.23 57.7068C118.14 57.6133 118.07 57.5026 118.025 57.3814C117.979 57.2601 117.959 57.1309 117.965 57.0015L118.69 42.1559C118.71 41.8865 118.831 41.6345 119.028 41.4496C119.225 41.2648 119.485 41.1605 119.755 41.1575H125.755C125.885 41.1567 126.014 41.1823 126.133 41.2326C126.253 41.283 126.361 41.357 126.452 41.4504C126.542 41.5437 126.612 41.6544 126.658 41.7757C126.704 41.8969 126.725 42.0263 126.72 42.1559L126 56.9866C125.986 57.2611 125.866 57.5197 125.666 57.7084C125.466 57.8971 125.2 58.0015 124.925 57.9999Z" fill="#407BFF"/>
<path d="M136.935 57.9999H130.935C130.805 58.0007 130.676 57.9751 130.557 57.9248C130.437 57.8744 130.329 57.8004 130.238 57.707C130.148 57.6137 130.078 57.503 130.032 57.3817C129.986 57.2605 129.965 57.1311 129.97 57.0015L130.92 37.6283C130.939 37.3585 131.059 37.1059 131.257 36.9208C131.454 36.7357 131.714 36.6318 131.985 36.6299H137.985C138.115 36.6291 138.244 36.6547 138.363 36.705C138.483 36.7554 138.591 36.8295 138.682 36.9228C138.772 37.0162 138.842 37.1268 138.888 37.2481C138.934 37.3693 138.955 37.4987 138.95 37.6283L138 56.9866C137.984 57.2586 137.865 57.5143 137.667 57.7023C137.47 57.8903 137.208 57.9966 136.935 57.9999Z" fill="#1F61A9"/>
<path d="M135.37 34.5483L135.94 33.6398C135.971 33.5907 135.989 33.5341 135.991 33.4758C135.993 33.4175 135.979 33.3598 135.951 33.3088C135.923 33.2577 135.881 33.2151 135.831 33.1855C135.781 33.156 135.723 33.1405 135.665 33.1407H134.61C134.554 33.1412 134.5 33.156 134.452 33.1836C134.404 33.2112 134.363 33.2506 134.335 33.2982C134.306 33.3457 134.29 33.3998 134.288 33.4553C134.287 33.5107 134.299 33.5657 134.325 33.6149L134.825 34.5234C134.852 34.5701 134.891 34.6093 134.937 34.6373C134.984 34.6653 135.037 34.6813 135.091 34.6838C135.145 34.6863 135.199 34.6752 135.248 34.6515C135.296 34.6279 135.338 34.5924 135.37 34.5483Z" fill="#263238"/>
<path opacity="0.3" d="M148.945 57.9999H142.945C142.815 58.0007 142.686 57.9751 142.567 57.9248C142.447 57.8744 142.339 57.8004 142.248 57.707C142.158 57.6137 142.088 57.503 142.042 57.3818C141.996 57.2605 141.975 57.1311 141.98 57.0015L142.78 40.6833C142.799 40.4135 142.919 40.1608 143.117 39.9757C143.314 39.7906 143.574 39.6868 143.845 39.6849H149.845C149.975 39.6834 150.104 39.7085 150.224 39.7586C150.344 39.8087 150.453 39.8827 150.543 39.9762C150.634 40.0697 150.704 40.1807 150.75 40.3023C150.796 40.4238 150.816 40.5535 150.81 40.6833L150 56.9866C149.985 57.2573 149.868 57.5122 149.672 57.7002C149.476 57.8882 149.217 57.9953 148.945 57.9999Z" fill="#407BFF"/>
<path opacity="0.1" d="M149.47 61.2546H82.0651C82.0225 61.2546 81.9802 61.246 81.941 61.2293C81.9018 61.2125 81.8664 61.188 81.8369 61.1572C81.8074 61.1264 81.7846 61.09 81.7696 61.0501C81.7547 61.0102 81.7481 60.9676 81.7501 60.9251C81.7552 60.8355 81.7941 60.7511 81.8591 60.689C81.924 60.6269 82.0102 60.5918 82.1001 60.5906H149.5C149.543 60.5906 149.586 60.5993 149.625 60.6163C149.665 60.6334 149.701 60.6583 149.73 60.6897C149.76 60.7211 149.783 60.7581 149.797 60.7986C149.812 60.8391 149.818 60.8822 149.815 60.9251C149.81 61.0134 149.772 61.0965 149.708 61.1577C149.644 61.2188 149.559 61.2534 149.47 61.2546Z" fill="#263238"/>
<path opacity="0.1" d="M154.27 119.619L158.61 31.114C158.614 31.0292 158.65 30.9492 158.712 30.8906C158.773 30.8321 158.855 30.7994 158.94 30.7995H158.97C159.011 30.7987 159.052 30.8064 159.089 30.8221C159.127 30.8379 159.161 30.8613 159.189 30.8908C159.218 30.9204 159.239 30.9555 159.253 30.9939C159.267 31.0324 159.273 31.0732 159.27 31.114L154.935 119.619C154.93 119.703 154.893 119.783 154.832 119.841C154.771 119.899 154.69 119.932 154.605 119.933H154.57C154.529 119.933 154.489 119.925 154.452 119.909C154.414 119.893 154.38 119.87 154.352 119.84C154.324 119.811 154.303 119.776 154.288 119.738C154.274 119.7 154.268 119.659 154.27 119.619Z" fill="#263238"/>
<path d="M176.525 47.592C176.07 49.9897 176.496 52.471 177.725 54.5805L174.755 56.4075C173.127 53.603 172.561 50.3085 173.16 47.1227C173.778 43.8637 175.474 40.9058 177.974 38.7222C180.475 36.5385 183.637 35.2552 186.955 35.0775V38.4869C184.444 38.6111 182.048 39.5776 180.155 41.2299C178.262 42.8823 176.983 45.1238 176.525 47.592Z" fill="#1F61A9"/>
<path opacity="0.3" d="M200 43.6784L196.78 44.9763C196.161 43.2814 195.088 41.7889 193.677 40.6621C192.266 39.5352 190.572 38.8172 188.78 38.5867C188.177 38.5056 187.568 38.4788 186.96 38.5069V35.0974C187.767 35.0638 188.575 35.1005 189.375 35.2073C191.755 35.5085 194.005 36.4584 195.879 37.9528C197.754 39.4472 199.179 41.4282 200 43.6784Z" fill="#407BFF"/>
<path d="M200.57 50.8117C199.19 58.3643 191.87 63.7555 184.35 62.7521C182.372 62.4954 180.479 61.7901 178.816 60.6904C177.153 59.5907 175.764 58.1257 174.755 56.4075L177.725 54.5805C178.487 55.8744 179.536 56.9772 180.791 57.8043C182.046 58.6314 183.474 59.1611 184.965 59.3527C187.766 59.6818 190.587 58.9372 192.859 57.2693C195.131 55.6014 196.685 53.1346 197.205 50.3674C197.543 48.565 197.391 46.7051 196.765 44.9812L200 43.6784C200.821 45.9634 201.018 48.4256 200.57 50.8117Z" fill="#263238"/>
<path d="M176.44 37.3238C176.406 37.3244 176.372 37.3181 176.34 37.3052C176.308 37.2923 176.279 37.2732 176.255 37.2489L174.04 34.9427H166.43C166.364 34.9427 166.3 34.9164 166.253 34.8696C166.206 34.8228 166.18 34.7593 166.18 34.6931C166.18 34.6269 166.206 34.5634 166.253 34.5166C166.3 34.4698 166.364 34.4435 166.43 34.4435H174.145C174.179 34.4434 174.213 34.4504 174.244 34.4642C174.275 34.4779 174.302 34.4981 174.325 34.5234L176.62 36.9294C176.643 36.9522 176.662 36.9794 176.674 37.0094C176.687 37.0394 176.694 37.0716 176.694 37.1042C176.694 37.1367 176.687 37.1689 176.674 37.1989C176.662 37.2289 176.643 37.2561 176.62 37.2789C176.595 37.2982 176.566 37.3121 176.535 37.3198C176.504 37.3275 176.472 37.3289 176.44 37.3238Z" fill="#263238"/>
<path opacity="0.3" d="M190.915 76.7741C188.825 75.4869 186.337 75.0009 183.915 75.4063L183.545 72.0369C186.758 71.5198 190.05 72.1736 192.82 73.8789C198.415 77.3432 200.53 84.4964 197.82 90.7662L194.695 89.5432C196.71 84.8609 195.225 79.4397 190.915 76.7741Z" fill="#407BFF"/>
<path d="M184.135 99.6466L184.365 96.2372C186.554 96.2474 188.698 95.6163 190.532 94.422C192.365 93.2277 193.807 91.5227 194.68 89.5182L197.805 90.7412C197.478 91.4986 197.086 92.2268 196.635 92.9176C195.288 94.9994 193.435 96.7078 191.25 97.8841C189.065 99.0605 186.618 99.6667 184.135 99.6466Z" fill="#263238"/>
<path d="M177.305 97.6649C170.955 93.7313 169.235 85.1254 173.49 78.5911C174.617 76.8564 176.096 75.3769 177.832 74.248C179.567 73.1191 181.52 72.3658 183.565 72.0369L183.935 75.4064C182.39 75.6541 180.914 76.224 179.603 77.0789C178.293 77.9338 177.178 79.0546 176.33 80.3682C173.1 85.3251 174.39 91.7695 179.21 94.7546C180.759 95.7136 182.542 96.2314 184.365 96.2522L184.135 99.6616C181.72 99.6233 179.36 98.9333 177.305 97.6649Z" fill="#1F61A9"/>
<path d="M174.635 74.1035C174.567 74.1033 174.503 74.0764 174.455 74.0286L172.235 71.6974H164.625C164.559 71.6974 164.495 71.6711 164.448 71.6243C164.401 71.5775 164.375 71.514 164.375 71.4478C164.375 71.3816 164.401 71.3182 164.448 71.2714C164.495 71.2245 164.559 71.1983 164.625 71.1983H172.345C172.413 71.2003 172.478 71.229 172.525 71.2781L174.815 73.6842C174.838 73.7074 174.857 73.735 174.87 73.7654C174.882 73.7958 174.889 73.8284 174.889 73.8614C174.889 73.8943 174.882 73.927 174.87 73.9574C174.857 73.9878 174.838 74.0154 174.815 74.0386C174.765 74.0819 174.701 74.105 174.635 74.1035Z" fill="#263238"/>
<path d="M168.03 112.046H165.5C165.158 112.052 164.83 112.186 164.583 112.422C164.336 112.658 164.186 112.978 164.165 113.319L164.04 115.85C164.03 116.015 164.055 116.179 164.112 116.334C164.169 116.489 164.257 116.631 164.371 116.75C164.485 116.869 164.622 116.964 164.774 117.028C164.926 117.092 165.09 117.125 165.255 117.123H167.785C168.128 117.119 168.457 116.985 168.705 116.749C168.954 116.513 169.104 116.192 169.125 115.85L169.25 113.319C169.259 113.154 169.234 112.989 169.176 112.835C169.119 112.68 169.03 112.538 168.916 112.419C168.802 112.3 168.664 112.205 168.512 112.141C168.359 112.077 168.195 112.045 168.03 112.046Z" fill="#1F61A9"/>
<path d="M182.22 112.046H179.69C179.348 112.051 179.02 112.183 178.772 112.418C178.523 112.653 178.373 112.973 178.35 113.314L178.23 115.845C178.22 116.009 178.245 116.174 178.301 116.328C178.358 116.483 178.446 116.624 178.559 116.743C178.672 116.862 178.809 116.957 178.961 117.022C179.112 117.086 179.275 117.119 179.44 117.118H182C182.342 117.112 182.67 116.978 182.917 116.742C183.164 116.506 183.314 116.186 183.335 115.845L183.46 113.314C183.469 113.148 183.444 112.981 183.385 112.825C183.326 112.67 183.236 112.527 183.119 112.408C183.002 112.289 182.862 112.195 182.708 112.133C182.553 112.071 182.387 112.041 182.22 112.046Z" fill="#263238"/>
<path opacity="0.3" d="M196.415 112.046H193.88C193.538 112.052 193.21 112.186 192.963 112.422C192.716 112.658 192.566 112.978 192.545 113.319L192.42 115.85C192.41 116.014 192.435 116.179 192.491 116.333C192.548 116.488 192.636 116.629 192.749 116.748C192.862 116.867 192.999 116.962 193.151 117.027C193.302 117.091 193.465 117.124 193.63 117.123H196.165C196.507 117.118 196.836 116.985 197.083 116.749C197.331 116.512 197.48 116.191 197.5 115.85L197.625 113.319C197.635 113.155 197.61 112.991 197.554 112.836C197.497 112.682 197.409 112.54 197.296 112.421C197.183 112.302 197.046 112.207 196.894 112.143C196.743 112.078 196.58 112.045 196.415 112.046Z" fill="#407BFF"/>
<path d="M102.806 81.2435L102.813 81.0958C102.818 80.9836 102.846 80.8806 102.896 80.7867C102.947 80.6919 103.018 80.6162 103.108 80.5597C103.2 80.5022 103.309 80.4735 103.436 80.4735C103.565 80.4735 103.672 80.5018 103.757 80.5583C103.842 80.6148 103.905 80.6905 103.946 80.7853C103.987 80.8792 104.004 80.9827 103.999 81.0958L103.992 81.2435C103.987 81.3556 103.959 81.4591 103.909 81.5539C103.859 81.6479 103.788 81.7231 103.697 81.7796C103.605 81.837 103.496 81.8658 103.369 81.8658C103.24 81.8658 103.133 81.837 103.048 81.7796C102.963 81.7231 102.9 81.6479 102.859 81.5539C102.818 81.4591 102.801 81.3556 102.806 81.2435ZM103.196 81.0958L103.189 81.2435C103.185 81.3082 103.197 81.3693 103.224 81.4268C103.252 81.4842 103.306 81.5129 103.386 81.5129C103.466 81.5129 103.521 81.4846 103.553 81.4281C103.586 81.3716 103.604 81.31 103.607 81.2435L103.614 81.0958C103.617 81.0292 103.606 80.9672 103.581 80.9098C103.555 80.8524 103.502 80.8236 103.419 80.8236C103.34 80.8236 103.284 80.8524 103.251 80.9098C103.217 80.9672 103.199 81.0292 103.196 81.0958ZM101.501 79.6406L101.508 79.4929C101.513 79.3799 101.542 79.2764 101.593 79.1825C101.644 79.0877 101.714 79.012 101.805 78.9555C101.896 78.8989 102.004 78.8707 102.13 78.8707C102.259 78.8707 102.367 78.8989 102.452 78.9555C102.537 79.012 102.6 79.0877 102.641 79.1825C102.682 79.2764 102.699 79.3799 102.694 79.4929L102.687 79.6406C102.682 79.7537 102.653 79.8572 102.602 79.9511C102.552 80.045 102.482 80.1202 102.39 80.1767C102.3 80.2324 102.191 80.2602 102.063 80.2602C101.935 80.2602 101.828 80.2319 101.742 80.1754C101.657 80.1179 101.594 80.0427 101.553 79.9497C101.513 79.8558 101.496 79.7528 101.501 79.6406ZM101.893 79.4929L101.886 79.6406C101.883 79.7072 101.895 79.7687 101.922 79.8253C101.95 79.8818 102.003 79.9101 102.08 79.9101C102.16 79.9101 102.217 79.8818 102.248 79.8253C102.281 79.7687 102.299 79.7072 102.302 79.6406L102.309 79.4929C102.312 79.4264 102.301 79.3644 102.276 79.3069C102.25 79.2495 102.196 79.2208 102.113 79.2208C102.035 79.2208 101.979 79.25 101.947 79.3083C101.914 79.3667 101.896 79.4282 101.893 79.4929ZM101.572 81.7687L103.558 78.9678H103.903L101.917 81.7687H101.572Z" fill="#263238"/>
<path d="M86.2552 81.7148L86.2724 81.3713L87.6367 79.9594C87.7968 79.7941 87.929 79.6504 88.0333 79.5282C88.1377 79.4049 88.2162 79.2891 88.2688 79.181C88.3228 79.0716 88.3528 78.9571 88.3588 78.8376C88.3656 78.7002 88.3384 78.5813 88.2771 78.4808C88.2171 78.3803 88.1317 78.3027 88.0209 78.248C87.9101 78.1933 87.7839 78.166 87.6423 78.166C87.4918 78.166 87.3588 78.1971 87.2434 78.2595C87.1294 78.3205 87.039 78.4064 86.9722 78.517C86.9067 78.6277 86.8702 78.7574 86.8628 78.9063H86.4112C86.4227 78.6773 86.4857 78.4763 86.6002 78.3033C86.7148 78.1303 86.8657 77.9955 87.0529 77.8988C87.2415 77.8022 87.4499 77.7538 87.6782 77.7538C87.9079 77.7538 88.1089 77.8022 88.2814 77.8988C88.4539 77.9955 88.5864 78.1259 88.6789 78.29C88.7715 78.4541 88.8127 78.6366 88.8027 78.8376C88.7955 78.9813 88.7623 79.1219 88.7031 79.2592C88.6453 79.3953 88.5484 79.5473 88.4124 79.7152C88.2777 79.8819 88.0922 80.0854 87.8556 80.3258L86.9284 81.2645L86.9269 81.295H88.7485L88.7275 81.7148H86.2552Z" fill="#263238"/>
<path d="M90.7397 81.7682C90.5152 81.7682 90.3152 81.7237 90.1398 81.6346C89.9644 81.5456 89.8264 81.4235 89.7257 81.2683C89.625 81.1131 89.5746 80.9363 89.5743 80.7379H90.0335C90.0426 80.9147 90.1156 81.061 90.2527 81.1767C90.3911 81.2912 90.5604 81.3484 90.7607 81.3484C90.9214 81.3484 91.0662 81.3109 91.195 81.2359C91.325 81.1608 91.429 81.0578 91.507 80.9268C91.5864 80.7945 91.6302 80.645 91.6386 80.4784C91.6471 80.308 91.6171 80.156 91.5485 80.0224C91.4813 79.8876 91.3845 79.7814 91.2583 79.7038C91.1321 79.6262 90.9854 79.5868 90.8184 79.5855C90.6985 79.5842 90.5745 79.6027 90.4463 79.6408C90.3182 79.6777 90.2118 79.7254 90.1272 79.7839L89.686 79.7305L90.0196 77.8073H92.0555L92.0345 78.227H90.3966L90.2011 79.3794H90.224C90.3076 79.3158 90.411 79.263 90.5343 79.2211C90.6576 79.1791 90.7849 79.1581 90.9163 79.1581C91.1562 79.1581 91.367 79.2153 91.5487 79.3298C91.7319 79.443 91.8721 79.5982 91.9694 79.7954C92.0679 79.9925 92.1109 80.2177 92.0982 80.4708C92.0857 80.7201 92.0184 80.9427 91.8963 81.1386C91.7756 81.3332 91.6148 81.4871 91.414 81.6003C91.2132 81.7122 90.9884 81.7682 90.7397 81.7682Z" fill="#263238"/>
<path d="M92.9839 81.7453C92.8895 81.7453 92.8102 81.7116 92.746 81.6442C92.6817 81.5768 92.652 81.496 92.6567 81.4019C92.6614 81.3077 92.6992 81.227 92.7702 81.1596C92.8412 81.0921 92.9239 81.0584 93.0183 81.0584C93.1127 81.0584 93.192 81.0921 93.2563 81.1596C93.3205 81.227 93.3503 81.3077 93.3455 81.4019C93.3424 81.4642 93.3236 81.5214 93.2891 81.5736C93.2559 81.6257 93.2123 81.6677 93.1584 81.6995C93.1059 81.73 93.0477 81.7453 92.9839 81.7453Z" fill="#263238"/>
<path d="M95.2756 81.7682C95.0511 81.7682 94.8511 81.7237 94.6757 81.6346C94.5003 81.5456 94.3623 81.4235 94.2616 81.2683C94.161 81.1131 94.1105 80.9363 94.1102 80.7379H94.5695C94.5785 80.9147 94.6515 81.061 94.7886 81.1767C94.927 81.2912 95.0963 81.3484 95.2966 81.3484C95.4573 81.3484 95.6021 81.3109 95.7309 81.2359C95.8609 81.1608 95.9649 81.0578 96.0429 80.9268C96.1223 80.7945 96.1661 80.645 96.1745 80.4784C96.183 80.308 96.153 80.156 96.0844 80.0224C96.0172 79.8876 95.9204 79.7814 95.7942 79.7038C95.668 79.6262 95.5213 79.5868 95.3543 79.5855C95.2344 79.5842 95.1104 79.6027 94.9822 79.6408C94.8541 79.6777 94.7477 79.7254 94.6632 79.7839L94.2219 79.7305L94.5555 77.8073H96.5914L96.5704 78.227H94.9325L94.737 79.3794H94.76C94.8435 79.3158 94.9469 79.263 95.0702 79.2211C95.1935 79.1791 95.3208 79.1581 95.4522 79.1581C95.6921 79.1581 95.9029 79.2153 96.0847 79.3298C96.2678 79.443 96.408 79.5982 96.5053 79.7954C96.6038 79.9925 96.6468 80.2177 96.6341 80.4708C96.6216 80.7201 96.5543 80.9427 96.4323 81.1386C96.3115 81.3332 96.1507 81.4871 95.9499 81.6003C95.7491 81.7122 95.5243 81.7682 95.2756 81.7682Z" fill="#263238"/>
<path d="M97.2802 80.9134L97.2997 80.5242L99.1579 77.8073H99.4411L99.4109 78.4102H99.2195L97.8156 80.4632L97.814 80.4937H100.133L100.112 80.9134H97.2802ZM99.0847 81.7148L99.2804 77.8073H99.7319L99.5362 81.7148H99.0847Z" fill="#263238"/>
<path d="M107.875 89.7678H107.815C107.783 89.7608 107.752 89.7474 107.726 89.7284C107.699 89.7094 107.676 89.6852 107.659 89.6572C107.642 89.6293 107.63 89.5982 107.625 89.5657C107.62 89.5332 107.622 89.5001 107.63 89.4683C109.32 82.3699 112.905 75.1068 117.13 74.8722C119.955 74.7125 121.565 77.0636 123.43 79.7892C124.78 81.7509 126.305 83.9723 128.54 85.6446C130.08 86.8027 131.65 87.1022 133.21 86.5381C136.685 85.2901 140.01 79.6444 141.89 71.8122C141.905 71.7481 141.946 71.6927 142.002 71.6581C142.058 71.6235 142.126 71.6125 142.19 71.6276C142.222 71.6351 142.253 71.6491 142.28 71.6686C142.306 71.6881 142.329 71.7127 142.346 71.7411C142.364 71.7694 142.375 71.8009 142.38 71.8337C142.385 71.8665 142.383 71.8999 142.375 71.9321C140.43 80.0438 137.065 85.6795 133.375 87.0073C131.645 87.6313 129.915 87.3068 128.235 86.0439C125.935 84.3217 124.385 82.0505 123.015 80.0537C121.155 77.3432 119.695 75.2167 117.155 75.3465C113.21 75.5711 109.785 82.6495 108.155 89.5631C108.15 89.595 108.139 89.6255 108.122 89.653C108.106 89.6805 108.084 89.7045 108.057 89.7235C108.031 89.7425 108.002 89.7562 107.971 89.7638C107.939 89.7714 107.907 89.7728 107.875 89.7678Z" fill="#1F61A9"/>
<path opacity="0.1" d="M144.5 93.2271H83.925C83.4077 93.2299 82.8952 93.1271 82.4191 92.9249C81.943 92.7228 81.5134 92.4255 81.1566 92.0515C80.7997 91.6775 80.5233 91.2346 80.3442 90.75C80.1651 90.2655 80.0871 89.7494 80.115 89.2337L81 71.6176C81.0584 70.5464 81.5229 69.5375 82.2993 68.7958C83.0756 68.0541 84.1056 67.6352 85.18 67.6241H145.73C146.248 67.6206 146.76 67.7229 147.237 67.9249C147.713 68.1268 148.143 68.424 148.5 68.7981C148.857 69.1723 149.134 69.6155 149.312 70.1004C149.491 70.5853 149.569 71.1016 149.54 71.6176L148.68 89.2237C148.622 90.2958 148.158 91.3058 147.382 92.0491C146.605 92.7924 145.575 93.2135 144.5 93.2271ZM85.155 68.1433C84.2127 68.1529 83.309 68.5188 82.6261 69.1672C81.9432 69.8156 81.5319 70.6984 81.475 71.6375L80.615 89.2437C80.5854 89.6942 80.6493 90.1459 80.8026 90.5706C80.956 90.9954 81.1955 91.3839 81.5063 91.7119C81.817 92.0399 82.1922 92.3004 82.6084 92.4769C83.0246 92.6535 83.4729 92.7423 83.925 92.7379H144.5C145.442 92.7271 146.345 92.3608 147.028 91.7126C147.71 91.0645 148.122 90.1824 148.18 89.2437L149.045 71.6375C149.073 71.1869 149.008 70.7354 148.854 70.311C148.7 69.8866 148.46 69.4984 148.149 69.1706C147.838 68.8429 147.463 68.5825 147.046 68.4057C146.63 68.229 146.182 68.1396 145.73 68.1433H85.155Z" fill="#263238"/>
<path opacity="0.1" d="M97.03 72.6309H87.24C87.091 72.6311 86.9435 72.601 86.8066 72.5423C86.6697 72.4837 86.5462 72.3978 86.4437 72.2898C86.3412 72.1819 86.2618 72.0542 86.2104 71.9146C86.1591 71.7749 86.1368 71.6263 86.145 71.4778C86.1627 71.1749 86.2948 70.89 86.5148 70.6806C86.7347 70.4712 87.0261 70.3529 87.33 70.3496H97.115C97.2644 70.3487 97.4124 70.3784 97.5499 70.4367C97.6874 70.495 97.8115 70.5809 97.9145 70.6889C98.0176 70.7969 98.0974 70.9248 98.1491 71.0648C98.2007 71.2048 98.2231 71.3538 98.215 71.5028C98.1972 71.8057 98.0651 72.0906 97.8451 72.3C97.6252 72.5093 97.3339 72.6276 97.03 72.6309ZM87.33 70.8488C87.1545 70.8522 86.9866 70.9213 86.8597 71.0424C86.7329 71.1636 86.6562 71.3279 86.645 71.5028C86.6386 71.5839 86.6495 71.6655 86.6771 71.7421C86.7047 71.8187 86.7483 71.8885 86.805 71.947C86.861 72.0058 86.9285 72.0526 87.0033 72.0843C87.0781 72.1161 87.1587 72.1322 87.24 72.1317H97.03C97.2051 72.1272 97.3723 72.0577 97.4989 71.9368C97.6256 71.8159 97.7026 71.6523 97.715 71.4778C97.7198 71.3964 97.7076 71.3148 97.6792 71.2384C97.6508 71.1619 97.6068 71.0921 97.55 71.0335C97.4945 70.974 97.4271 70.9267 97.3522 70.8949C97.2772 70.8631 97.1964 70.8474 97.115 70.8488H87.33Z" fill="#263238"/>
<path d="M88.1501 87.4816H85.6101L85.4851 90.0124H88.0251L88.1501 87.4816Z" fill="#1F61A9"/>
<path opacity="0.3" d="M90.935 119.913H85.755C85.5306 119.915 85.3082 119.871 85.1016 119.783C84.895 119.696 84.7086 119.567 84.5539 119.404C84.3992 119.242 84.2796 119.05 84.2024 118.839C84.1252 118.629 84.092 118.405 84.1051 118.181L84.36 113.01C84.3878 112.546 84.5903 112.109 84.9269 111.788C85.2635 111.467 85.7094 111.284 86.1751 111.278H91.36C91.5843 111.276 91.8065 111.32 92.0128 111.408C92.2192 111.495 92.4053 111.624 92.5596 111.787C92.7139 111.949 92.833 112.142 92.9097 112.352C92.9863 112.562 93.0188 112.786 93.005 113.01L92.755 118.181C92.7261 118.646 92.5226 119.082 92.1851 119.403C91.8477 119.725 91.4012 119.907 90.935 119.913Z" fill="#407BFF"/>
<path opacity="0.1" d="M110.81 117.088H97.445C97.2507 117.09 97.0582 117.052 96.8793 116.976C96.7004 116.9 96.5389 116.789 96.4049 116.649C96.2709 116.508 96.1671 116.342 96.1 116.16C96.033 115.978 96.004 115.784 96.015 115.59C96.0341 115.19 96.2057 114.812 96.4947 114.534C96.7837 114.255 97.1684 114.098 97.57 114.093H110.93C111.124 114.092 111.317 114.131 111.495 114.206C111.674 114.282 111.836 114.394 111.97 114.534C112.104 114.674 112.209 114.84 112.276 115.021C112.344 115.203 112.374 115.397 112.365 115.59C112.346 115.991 112.174 116.369 111.885 116.647C111.596 116.926 111.212 117.083 110.81 117.088ZM97.57 114.592C97.3 114.595 97.041 114.7 96.8447 114.885C96.6483 115.07 96.5288 115.322 96.51 115.59C96.5043 115.717 96.524 115.844 96.5678 115.963C96.6115 116.082 96.6786 116.191 96.765 116.284C96.8531 116.375 96.9588 116.447 97.0757 116.496C97.1926 116.545 97.3182 116.57 97.445 116.569H110.81C111.08 116.567 111.339 116.463 111.535 116.277C111.73 116.092 111.848 115.839 111.865 115.57C111.875 115.442 111.859 115.313 111.817 115.192C111.774 115.07 111.707 114.959 111.619 114.865C111.531 114.771 111.424 114.696 111.305 114.646C111.187 114.595 111.059 114.57 110.93 114.572L97.57 114.592Z" fill="#263238"/>
<path d="M88.5 117.088C88.4671 117.087 88.4349 117.079 88.405 117.065C88.3752 117.051 88.3484 117.032 88.3261 117.008C88.3038 116.984 88.2865 116.956 88.2751 116.925C88.2638 116.894 88.2586 116.861 88.26 116.828L88.37 114.617C88.3699 114.584 88.3767 114.551 88.39 114.521C88.4032 114.49 88.4227 114.463 88.4472 114.44C88.4716 114.418 88.5005 114.4 88.532 114.39C88.5634 114.379 88.5968 114.375 88.63 114.377C88.6967 114.381 88.7593 114.411 88.8042 114.461C88.8491 114.51 88.8727 114.575 88.87 114.642L88.76 116.853C88.7561 116.919 88.7267 116.98 88.678 117.024C88.6294 117.068 88.5655 117.091 88.5 117.088Z" fill="#1F61A9"/>
<path d="M87.5451 115.62C87.4956 115.62 87.4474 115.604 87.4066 115.576C87.3658 115.548 87.3343 115.509 87.3161 115.463C87.2979 115.417 87.2938 115.366 87.3043 115.318C87.3148 115.27 87.3394 115.225 87.3751 115.191L88.4451 114.193C88.4936 114.147 88.5583 114.122 88.6251 114.123C88.6907 114.125 88.7531 114.152 88.8001 114.198L89.7701 115.221C89.7934 115.244 89.8119 115.271 89.8245 115.301C89.8371 115.331 89.8437 115.363 89.8437 115.396C89.8437 115.428 89.8371 115.461 89.8245 115.491C89.8119 115.521 89.7934 115.548 89.7701 115.57C89.7469 115.594 89.7192 115.612 89.6888 115.625C89.6583 115.638 89.6256 115.644 89.5926 115.644C89.5596 115.644 89.5269 115.638 89.4965 115.625C89.466 115.612 89.4384 115.594 89.4151 115.57L88.6201 114.732L87.7301 115.575C87.7038 115.595 87.6739 115.609 87.6422 115.617C87.6104 115.624 87.5774 115.626 87.5451 115.62Z" fill="#1F61A9"/>
<path d="M86.2765 105.41L86.5211 100.526H86.835L86.5903 105.41H86.2765ZM87.504 101.991C87.4907 101.798 87.4051 101.648 87.2472 101.541C87.0892 101.434 86.8916 101.381 86.6544 101.381C86.4809 101.381 86.3277 101.409 86.1948 101.464C86.0631 101.52 85.9585 101.597 85.8809 101.695C85.8045 101.793 85.7632 101.905 85.757 102.029C85.7518 102.134 85.7722 102.223 85.8181 102.298C85.8655 102.372 85.9274 102.434 86.004 102.483C86.0807 102.532 86.1616 102.572 86.2468 102.604C86.332 102.634 86.4105 102.659 86.4822 102.678L86.8749 102.785C86.9756 102.811 87.0873 102.848 87.21 102.895C87.3339 102.943 87.4512 103.007 87.5619 103.088C87.674 103.168 87.7645 103.271 87.8335 103.397C87.9024 103.523 87.9323 103.678 87.9232 103.861C87.9126 104.072 87.8475 104.263 87.728 104.433C87.6098 104.604 87.4423 104.739 87.2255 104.84C87.01 104.94 86.7517 104.99 86.4506 104.99C86.17 104.99 85.9292 104.945 85.7284 104.855C85.5288 104.765 85.3744 104.639 85.2651 104.477C85.1571 104.316 85.1008 104.128 85.0962 103.914H85.586C85.5914 104.062 85.635 104.184 85.7169 104.281C85.8002 104.376 85.9076 104.447 86.0392 104.494C86.1721 104.54 86.3164 104.563 86.472 104.563C86.6532 104.563 86.8173 104.534 86.9644 104.475C87.1115 104.415 87.2298 104.333 87.3193 104.227C87.4088 104.12 87.4572 103.996 87.4643 103.853C87.4708 103.724 87.4397 103.618 87.3711 103.537C87.3025 103.455 87.2101 103.389 87.094 103.338C86.9779 103.287 86.852 103.243 86.7161 103.205L86.2408 103.067C85.939 102.979 85.7029 102.854 85.5325 102.691C85.362 102.528 85.2834 102.315 85.2966 102.052C85.3076 101.833 85.3764 101.643 85.5032 101.48C85.6314 101.316 85.7985 101.188 86.0045 101.098C86.212 101.007 86.4407 100.961 86.6907 100.961C86.9433 100.961 87.1655 101.006 87.3575 101.096C87.5495 101.185 87.699 101.307 87.806 101.463C87.9143 101.618 87.9667 101.794 87.9632 101.991H87.504Z" fill="#263238"/>
<path d="M89.9028 104.975C89.6502 104.975 89.4273 104.932 89.2339 104.845C89.0417 104.759 88.8915 104.639 88.7831 104.485C88.6761 104.33 88.6226 104.15 88.6226 103.945H89.1048C89.1087 104.071 89.1467 104.18 89.2186 104.271C89.2906 104.361 89.3873 104.431 89.5085 104.481C89.6298 104.531 89.7657 104.555 89.9162 104.555C90.0846 104.555 90.2353 104.526 90.3683 104.468C90.5014 104.409 90.6075 104.328 90.6867 104.223C90.7659 104.119 90.809 103.998 90.8159 103.861C90.8231 103.717 90.7937 103.591 90.7277 103.481C90.6618 103.371 90.5616 103.284 90.4269 103.222C90.2923 103.159 90.1254 103.128 89.9264 103.128H89.6126L89.6336 102.708H89.9475C90.1031 102.708 90.241 102.68 90.3611 102.625C90.4826 102.569 90.579 102.49 90.6505 102.388C90.7232 102.286 90.763 102.167 90.7698 102.029C90.7765 101.897 90.7529 101.782 90.6991 101.684C90.6453 101.586 90.5662 101.51 90.4618 101.455C90.3587 101.4 90.235 101.373 90.0909 101.373C89.9557 101.373 89.8269 101.398 89.7045 101.447C89.5834 101.496 89.4829 101.566 89.403 101.659C89.3232 101.751 89.2768 101.861 89.2639 101.991H88.8047C88.8226 101.786 88.8934 101.607 89.0172 101.453C89.1411 101.298 89.2989 101.177 89.4908 101.091C89.6839 101.004 89.8934 100.961 90.1192 100.961C90.3616 100.961 90.567 101.01 90.7356 101.108C90.9043 101.204 91.0312 101.332 91.1163 101.491C91.2015 101.65 91.2395 101.822 91.2302 102.006C91.2192 102.226 91.1518 102.414 91.0279 102.569C90.9053 102.724 90.7437 102.832 90.5429 102.892L90.5414 102.922C90.7869 102.963 90.9749 103.068 91.1054 103.237C91.2361 103.405 91.2952 103.613 91.2828 103.861C91.2721 104.073 91.2045 104.264 91.08 104.433C90.9567 104.601 90.7932 104.733 90.5894 104.83C90.3855 104.927 90.1567 104.975 89.9028 104.975Z" fill="#263238"/>
<path d="M92.0122 104.922L92.0294 104.578L93.3937 103.166C93.5538 103.001 93.686 102.857 93.7903 102.735C93.8947 102.612 93.9732 102.496 94.0258 102.388C94.0798 102.279 94.1098 102.164 94.1157 102.044C94.1226 101.907 94.0954 101.788 94.0341 101.688C93.9741 101.587 93.8887 101.51 93.7779 101.455C93.6671 101.4 93.5409 101.373 93.3993 101.373C93.2488 101.373 93.1158 101.404 93.0004 101.466C92.8864 101.527 92.796 101.613 92.7292 101.724C92.6637 101.835 92.6272 101.964 92.6198 102.113H92.1682C92.1797 101.884 92.2427 101.683 92.3572 101.51C92.4718 101.337 92.6227 101.202 92.8099 101.106C92.9985 101.009 93.2069 100.961 93.4352 100.961C93.6649 100.961 93.8659 101.009 94.0384 101.106C94.2109 101.202 94.3434 101.333 94.4359 101.497C94.5285 101.661 94.5697 101.844 94.5597 102.044C94.5525 102.188 94.5193 102.329 94.4601 102.466C94.4023 102.602 94.3054 102.754 94.1694 102.922C94.0347 103.089 93.8491 103.292 93.6126 103.533L92.6854 104.471L92.6839 104.502H94.5055L94.4845 104.922H92.0122Z" fill="#263238"/>
<path d="M96.5962 104.975C96.3436 104.975 96.1206 104.932 95.9272 104.845C95.7351 104.759 95.5849 104.639 95.4765 104.485C95.3694 104.33 95.316 104.15 95.316 103.945H95.7982C95.8021 104.071 95.84 104.18 95.912 104.271C95.984 104.361 96.0806 104.431 96.2019 104.481C96.3231 104.531 96.459 104.555 96.6096 104.555C96.7779 104.555 96.9287 104.526 97.0617 104.468C97.1947 104.409 97.3009 104.328 97.3801 104.223C97.4593 104.119 97.5023 103.998 97.5092 103.861C97.5164 103.717 97.487 103.591 97.4211 103.481C97.3552 103.371 97.2549 103.284 97.1203 103.222C96.9856 103.159 96.8188 103.128 96.6198 103.128H96.306L96.327 102.708H96.6408C96.7964 102.708 96.9343 102.68 97.0545 102.625C97.1759 102.569 97.2724 102.49 97.3438 102.388C97.4165 102.286 97.4563 102.167 97.4632 102.029C97.4698 101.897 97.4462 101.782 97.3925 101.684C97.3387 101.586 97.2596 101.51 97.1552 101.455C97.052 101.4 96.9284 101.373 96.7842 101.373C96.649 101.373 96.5202 101.398 96.3978 101.447C96.2768 101.496 96.1763 101.566 96.0964 101.659C96.0165 101.751 95.9702 101.861 95.9573 101.991H95.498C95.516 101.786 95.5868 101.607 95.7106 101.453C95.8345 101.298 95.9923 101.177 96.1842 101.091C96.3773 101.004 96.5867 100.961 96.8125 100.961C97.0549 100.961 97.2604 101.01 97.429 101.108C97.5976 101.204 97.7245 101.332 97.8097 101.491C97.8948 101.65 97.9328 101.822 97.9236 102.006C97.9126 102.226 97.8451 102.414 97.7213 102.569C97.5987 102.724 97.437 102.832 97.2363 102.892L97.2348 102.922C97.4802 102.963 97.6682 103.068 97.7988 103.237C97.9294 103.405 97.9885 103.613 97.9761 103.861C97.9655 104.073 97.8979 104.264 97.7733 104.433C97.6501 104.601 97.4866 104.733 97.2827 104.83C97.0789 104.927 96.85 104.975 96.5962 104.975Z" fill="#263238"/>
<path d="M99.2925 104.387L99.2516 104.594C99.2226 104.739 99.1817 104.894 99.1288 105.059C99.0771 105.224 99.024 105.38 98.9695 105.527C98.915 105.673 98.8702 105.789 98.8353 105.876H98.4909C98.5115 105.794 98.5386 105.687 98.5721 105.553C98.6056 105.42 98.6398 105.27 98.6749 105.105C98.7112 104.941 98.7426 104.773 98.769 104.601L98.8027 104.387H99.2925Z" fill="#263238"/>
<path d="M101.234 104.975C100.945 104.975 100.704 104.897 100.509 104.74C100.314 104.583 100.17 104.354 100.078 104.055C99.9858 103.755 99.9504 103.393 99.9716 102.968C99.9928 102.546 100.064 102.185 100.187 101.886C100.31 101.586 100.477 101.357 100.688 101.199C100.9 101.04 101.149 100.961 101.435 100.961C101.72 100.961 101.961 101.04 102.155 101.199C102.352 101.357 102.496 101.586 102.588 101.886C102.681 102.185 102.718 102.546 102.696 102.968C102.675 103.393 102.603 103.755 102.481 104.055C102.359 104.354 102.193 104.583 101.982 104.74C101.771 104.897 101.522 104.975 101.234 104.975ZM101.255 104.555C101.54 104.555 101.769 104.418 101.941 104.143C102.113 103.869 102.212 103.477 102.237 102.968C102.254 102.63 102.232 102.342 102.171 102.104C102.112 101.866 102.018 101.685 101.889 101.56C101.761 101.435 101.603 101.373 101.414 101.373C101.131 101.373 100.902 101.512 100.729 101.791C100.556 102.068 100.456 102.46 100.431 102.968C100.414 103.306 100.435 103.594 100.495 103.83C100.554 104.067 100.648 104.247 100.776 104.37C100.905 104.494 101.064 104.555 101.255 104.555Z" fill="#263238"/>
<path d="M103.343 104.922L105.269 101.464L105.27 101.434H103.25L103.271 101.014H105.781L105.759 101.457L103.84 104.922H103.343Z" fill="#263238"/>
<path d="M107.472 104.975C107.21 104.975 106.98 104.929 106.783 104.836C106.587 104.742 106.438 104.613 106.333 104.449C106.229 104.283 106.183 104.095 106.195 103.884C106.202 103.718 106.242 103.566 106.316 103.426C106.389 103.285 106.486 103.167 106.605 103.073C106.726 102.977 106.859 102.917 107.003 102.892L107.004 102.869C106.819 102.82 106.675 102.715 106.572 102.554C106.469 102.391 106.423 102.206 106.435 101.999C106.444 101.8 106.503 101.623 106.613 101.466C106.723 101.31 106.869 101.187 107.052 101.096C107.237 101.006 107.444 100.961 107.673 100.961C107.901 100.961 108.101 101.006 108.275 101.096C108.449 101.187 108.583 101.31 108.678 101.466C108.773 101.623 108.816 101.8 108.808 101.999C108.796 102.206 108.73 102.391 108.61 102.554C108.491 102.715 108.338 102.82 108.152 102.869L108.151 102.892C108.291 102.917 108.416 102.977 108.524 103.073C108.633 103.167 108.718 103.285 108.778 103.426C108.839 103.566 108.866 103.718 108.859 103.884C108.847 104.095 108.78 104.283 108.658 104.449C108.538 104.613 108.375 104.742 108.17 104.836C107.966 104.929 107.734 104.975 107.472 104.975ZM107.493 104.555C107.671 104.555 107.825 104.527 107.957 104.47C108.089 104.412 108.192 104.332 108.268 104.227C108.343 104.123 108.385 104.001 108.393 103.861C108.399 103.713 108.367 103.583 108.298 103.47C108.228 103.357 108.13 103.268 108.003 103.203C107.878 103.138 107.732 103.105 107.566 103.105C107.399 103.105 107.248 103.138 107.113 103.203C106.98 103.268 106.873 103.357 106.792 103.47C106.712 103.583 106.669 103.713 106.663 103.861C106.655 104.001 106.683 104.123 106.746 104.227C106.811 104.332 106.907 104.412 107.035 104.47C107.162 104.527 107.315 104.555 107.493 104.555ZM107.586 102.701C107.727 102.701 107.852 102.673 107.964 102.617C108.076 102.561 108.166 102.483 108.234 102.382C108.301 102.282 108.339 102.164 108.347 102.029C108.352 101.897 108.327 101.782 108.271 101.684C108.214 101.585 108.133 101.508 108.028 101.455C107.922 101.4 107.797 101.373 107.653 101.373C107.506 101.373 107.377 101.4 107.264 101.455C107.152 101.508 107.063 101.585 106.998 101.684C106.933 101.782 106.898 101.897 106.893 102.029C106.885 102.164 106.909 102.282 106.965 102.382C107.023 102.483 107.105 102.561 107.212 102.617C107.319 102.673 107.443 102.701 107.586 102.701Z" fill="#263238"/>
<path d="M109.754 104.952C109.66 104.952 109.581 104.919 109.516 104.851C109.452 104.784 109.422 104.703 109.427 104.609C109.432 104.515 109.47 104.434 109.541 104.366C109.612 104.299 109.694 104.265 109.789 104.265C109.883 104.265 109.963 104.299 110.027 104.366C110.091 104.434 110.121 104.515 110.116 104.609C110.113 104.671 110.094 104.728 110.06 104.781C110.026 104.833 109.983 104.875 109.929 104.906C109.876 104.937 109.818 104.952 109.754 104.952Z" fill="#263238"/>
<path d="M112.042 104.975C111.754 104.975 111.512 104.897 111.317 104.74C111.122 104.583 110.978 104.354 110.886 104.055C110.794 103.755 110.759 103.393 110.78 102.968C110.801 102.546 110.873 102.185 110.995 101.886C111.118 101.586 111.285 101.357 111.496 101.199C111.708 101.04 111.957 100.961 112.243 100.961C112.529 100.961 112.769 101.04 112.964 101.199C113.16 101.357 113.304 101.586 113.396 101.886C113.49 102.185 113.526 102.546 113.505 102.968C113.483 103.393 113.412 103.755 113.29 104.055C113.167 104.354 113.001 104.583 112.79 104.74C112.58 104.897 112.33 104.975 112.042 104.975ZM112.063 104.555C112.349 104.555 112.577 104.418 112.749 104.143C112.921 103.869 113.02 103.477 113.045 102.968C113.062 102.63 113.041 102.342 112.98 102.104C112.92 101.866 112.826 101.685 112.697 101.56C112.569 101.435 112.411 101.373 112.222 101.373C111.939 101.373 111.711 101.512 111.537 101.791C111.364 102.068 111.265 102.46 111.239 102.968C111.222 103.306 111.244 103.594 111.303 103.83C111.363 104.067 111.456 104.247 111.584 104.37C111.713 104.494 111.873 104.555 112.063 104.555Z" fill="#263238"/>
<path d="M115.41 104.975C115.121 104.975 114.88 104.897 114.685 104.74C114.49 104.583 114.346 104.354 114.254 104.055C114.162 103.755 114.126 103.393 114.148 102.968C114.169 102.546 114.24 102.185 114.363 101.886C114.486 101.586 114.653 101.357 114.864 101.199C115.076 101.04 115.325 100.961 115.611 100.961C115.896 100.961 116.137 101.04 116.331 101.199C116.528 101.357 116.672 101.586 116.764 101.886C116.857 102.185 116.894 102.546 116.872 102.968C116.851 103.393 116.779 103.755 116.657 104.055C116.535 104.354 116.369 104.583 116.158 104.74C115.947 104.897 115.698 104.975 115.41 104.975ZM115.431 104.555C115.716 104.555 115.945 104.418 116.117 104.143C116.289 103.869 116.388 103.477 116.413 102.968C116.43 102.63 116.408 102.342 116.347 102.104C116.288 101.866 116.194 101.685 116.065 101.56C115.937 101.435 115.779 101.373 115.59 101.373C115.307 101.373 115.078 101.512 114.905 101.791C114.732 102.068 114.632 102.46 114.607 102.968C114.59 103.306 114.611 103.594 114.671 103.83C114.73 104.067 114.824 104.247 114.952 104.37C115.081 104.494 115.24 104.555 115.431 104.555Z" fill="#263238"/>
<path opacity="0.4" d="M125.115 111.278H119.935C119.469 111.284 119.022 111.466 118.685 111.787C118.347 112.109 118.144 112.545 118.115 113.01L117.865 118.181C117.851 118.405 117.884 118.629 117.96 118.839C118.037 119.049 118.156 119.242 118.31 119.404C118.465 119.567 118.651 119.696 118.857 119.783C119.064 119.871 119.286 119.915 119.51 119.913H124.695C125.161 119.907 125.607 119.724 125.943 119.403C126.28 119.082 126.482 118.645 126.51 118.181L126.765 113.01C126.778 112.786 126.745 112.562 126.668 112.352C126.59 112.141 126.471 111.949 126.316 111.786C126.161 111.624 125.975 111.495 125.768 111.408C125.562 111.32 125.339 111.276 125.115 111.278Z" fill="#263238"/>
<path opacity="0.1" d="M144.565 117.088H131.205C131.011 117.089 130.818 117.05 130.64 116.975C130.461 116.899 130.299 116.787 130.165 116.647C130.031 116.507 129.926 116.341 129.859 116.159C129.791 115.978 129.761 115.784 129.77 115.59C129.789 115.19 129.961 114.812 130.25 114.534C130.539 114.255 130.923 114.098 131.325 114.093H144.69C144.884 114.093 145.076 114.132 145.255 114.208C145.433 114.284 145.594 114.395 145.728 114.535C145.863 114.675 145.967 114.841 146.035 115.022C146.103 115.204 146.134 115.397 146.125 115.59C146.105 115.991 145.932 116.369 145.642 116.648C145.352 116.926 144.967 117.083 144.565 117.088ZM131.325 114.592C131.056 114.595 130.797 114.7 130.602 114.885C130.406 115.07 130.288 115.322 130.27 115.59C130.264 115.717 130.284 115.844 130.328 115.963C130.372 116.082 130.439 116.191 130.525 116.284C130.613 116.376 130.719 116.448 130.836 116.497C130.953 116.546 131.078 116.57 131.205 116.569H144.565C144.835 116.567 145.095 116.463 145.292 116.278C145.488 116.092 145.607 115.84 145.625 115.57C145.631 115.443 145.612 115.315 145.568 115.196C145.524 115.076 145.457 114.965 145.37 114.872C145.282 114.781 145.176 114.709 145.059 114.66C144.942 114.611 144.817 114.586 144.69 114.587L131.325 114.592Z" fill="#263238"/>
<path d="M122.265 116.808C122.198 116.805 122.136 116.775 122.091 116.725C122.046 116.676 122.022 116.611 122.025 116.544L122.135 114.338C122.135 114.304 122.142 114.271 122.155 114.241C122.168 114.211 122.188 114.183 122.212 114.161C122.237 114.138 122.266 114.121 122.297 114.11C122.329 114.099 122.362 114.095 122.395 114.098C122.428 114.099 122.46 114.107 122.49 114.121C122.52 114.134 122.547 114.154 122.569 114.178C122.591 114.202 122.609 114.23 122.62 114.261C122.631 114.292 122.636 114.325 122.635 114.357L122.525 116.569C122.524 116.602 122.516 116.634 122.502 116.664C122.489 116.693 122.469 116.72 122.445 116.742C122.421 116.765 122.392 116.782 122.362 116.793C122.331 116.805 122.298 116.81 122.265 116.808Z" fill="white"/>
<path d="M122.255 117.088C122.189 117.086 122.127 117.059 122.08 117.013L121.11 116.015C121.087 115.992 121.068 115.965 121.056 115.935C121.043 115.905 121.036 115.873 121.036 115.84C121.036 115.808 121.043 115.775 121.056 115.745C121.068 115.715 121.087 115.688 121.11 115.665C121.133 115.642 121.161 115.623 121.191 115.611C121.222 115.598 121.255 115.592 121.288 115.592C121.321 115.592 121.353 115.598 121.384 115.611C121.414 115.623 121.442 115.642 121.465 115.665L122.26 116.504L123.15 115.66C123.173 115.635 123.201 115.614 123.232 115.6C123.264 115.586 123.298 115.578 123.332 115.578C123.366 115.577 123.4 115.584 123.432 115.597C123.464 115.61 123.493 115.63 123.516 115.655C123.54 115.679 123.559 115.709 123.571 115.741C123.582 115.773 123.588 115.808 123.585 115.842C123.583 115.876 123.574 115.91 123.559 115.94C123.543 115.971 123.522 115.998 123.495 116.02L122.425 117.018C122.38 117.063 122.319 117.088 122.255 117.088Z" fill="white"/>
<path d="M56.055 29.9758C54.055 32.5766 53.685 36.1557 53.8 37.9628C53.94 40.239 50.965 40.3438 51.8 44.2974C52.515 47.7217 50.43 48.79 50.48 51.4706C50.59 57.6854 56.175 59.5224 66.59 57.6854C77.005 55.8484 70.75 46.349 72.14 42.6151C73.53 38.8812 72.43 30.1106 69.64 30.505C69.945 23.9308 60.07 24.7894 56.055 29.9758Z" fill="#263238"/>
<path d="M59.5751 57.9051C59.5051 59.168 59.3701 60.3061 59.2051 61.4942C59.0401 62.6822 58.8251 63.8453 58.5601 65.0184C58.2951 66.1915 57.9951 67.3645 57.6251 68.5127C57.2487 69.7065 56.7926 70.8739 56.2601 72.0069L56.1451 72.2565C55.8778 72.8363 55.3983 73.2919 54.8049 73.5296C54.2116 73.7673 53.5496 73.769 52.9551 73.5344C52.2697 73.2536 51.6018 72.9318 50.9551 72.571C50.3201 72.2366 49.7351 71.8572 49.1451 71.4878C48.5551 71.1184 48.0001 70.7041 47.4501 70.2848C46.9001 69.8654 46.3701 69.4361 45.8451 68.9469C45.628 68.7133 45.4893 68.4179 45.4483 68.1019C45.4072 67.7859 45.4659 67.465 45.6161 67.1838C45.7662 66.9026 46.0005 66.6752 46.2862 66.5331C46.5719 66.391 46.8948 66.3414 47.2101 66.3911H47.2601C47.9001 66.5359 48.5451 66.7256 49.1751 66.8903L51.0501 67.4394L52.8751 67.9735C53.4651 68.1433 54.0551 68.288 54.5801 68.4028L51.2701 69.9303C51.5951 68.9969 51.8601 68.0035 52.1101 66.9902C52.3601 65.9768 52.5451 64.9186 52.7301 63.8603C52.9151 62.802 53.0701 61.7288 53.2301 60.6505C53.3901 59.5723 53.5001 58.4641 53.6151 57.4608V57.4059C53.6814 56.6115 54.061 55.876 54.6705 55.3611C55.28 54.8462 56.0694 54.5942 56.8651 54.6604C57.6607 54.7266 58.3974 55.1056 58.9132 55.7141C59.4289 56.3226 59.6814 57.1107 59.6151 57.9051H59.5751Z" fill="#B55B52"/>
<path d="M45.45 64.6939L44.22 64.2596C44.0695 64.2048 43.9094 64.1808 43.7494 64.1889C43.5894 64.1971 43.4327 64.2373 43.2885 64.3071C43.1444 64.377 43.0158 64.4751 42.9104 64.5955C42.805 64.716 42.7249 64.8564 42.675 65.0084L42.205 66.3911C42.1145 66.6618 42.1236 66.9557 42.2309 67.2202C42.3381 67.4847 42.5364 67.7022 42.79 67.8338L44.33 68.6424C44.33 68.6424 46.83 70.5593 48.085 69.3912L48.77 67.3945L46.915 65.5924C46.4977 65.1905 45.9978 64.8839 45.45 64.6939Z" fill="#B55B52"/>
<path d="M58.9649 51.0563C55.2799 51.7501 54.4999 53.2577 51.7849 58.8435C52.6049 62.5175 59.5999 65.7472 59.5999 65.7472C59.5999 65.7472 65.0399 55.8085 58.9649 51.0563Z" fill="#263238"/>
<path d="M65.2901 177.09C67.6001 174.01 67.7901 173.161 69.2451 171.549C70.0414 170.612 70.9479 169.774 71.945 169.053C72.915 168.264 72.335 167.136 71.445 166.657C70.75 166.282 69.985 165.958 69.145 165.469L65.335 168.569C65.71 170.336 64.925 174.01 63.335 176.451C62.17 178.208 64.3651 178.318 65.2901 177.09Z" fill="#263238"/>
<path d="M54.04 79.0304C54.04 79.0304 50.49 103.895 47.845 120.867C47.3061 124.166 47.6299 127.548 48.785 130.686C53.31 142.721 65.04 168.893 65.04 168.893C65.58 169.417 68.825 166.337 69.14 165.494C69.14 165.494 65.085 132.423 58.78 125.01C71.645 98.5085 71.445 79.0304 71.445 79.0304H54.04Z" fill="#1F61A9"/>
<g opacity="0.2">
<path d="M71.4349 79.7692L61.935 80.4331C61.935 80.4331 60.095 107.748 59.7 123.063C70.245 100.53 71.3249 83.4432 71.4349 79.7692Z" fill="black"/>
<path d="M59.645 126.193C59.515 134.045 59.12 144.268 58.345 153.708C60.75 159.234 62.915 164.121 64.1 166.772C65.24 163.482 66.51 159.558 67.655 155.395C66.06 145.761 63.265 131.929 59.645 126.193Z" fill="black"/>
</g>
<path d="M63.36 167.6C63.65 168.025 64.155 168.783 64.505 169.362C64.5359 169.408 64.5759 169.448 64.6227 169.478C64.6695 169.508 64.7219 169.528 64.7768 169.537C64.8317 169.546 64.8878 169.543 64.9417 169.53C64.9956 169.516 65.0461 169.491 65.09 169.457C66.694 168.319 68.1993 167.048 69.59 165.658C69.6572 165.596 69.7042 165.516 69.7247 165.427C69.7452 165.337 69.7383 165.244 69.705 165.159L68.94 163.422C68.9111 163.366 68.8698 163.318 68.8192 163.281C68.7687 163.243 68.7102 163.218 68.6483 163.207C68.5865 163.196 68.5229 163.199 68.4625 163.217C68.4021 163.234 68.3465 163.265 68.3 163.307L63.5 167.006C63.4069 167.07 63.3411 167.166 63.3152 167.276C63.2893 167.386 63.3053 167.502 63.36 167.6Z" fill="#407BFF"/>
<path opacity="0.3" d="M63.36 167.6C63.65 168.025 64.155 168.783 64.505 169.362C64.5359 169.408 64.5759 169.448 64.6227 169.478C64.6695 169.508 64.7219 169.528 64.7768 169.537C64.8317 169.546 64.8878 169.543 64.9417 169.53C64.9956 169.516 65.0461 169.491 65.09 169.457C66.694 168.319 68.1993 167.048 69.59 165.658C69.6572 165.596 69.7042 165.516 69.7247 165.427C69.7452 165.337 69.7383 165.244 69.705 165.159L68.94 163.422C68.9111 163.366 68.8698 163.318 68.8192 163.281C68.7687 163.243 68.7102 163.218 68.6483 163.207C68.5865 163.196 68.5229 163.199 68.4625 163.217C68.4021 163.234 68.3465 163.265 68.3 163.307L63.5 167.006C63.4069 167.07 63.3411 167.166 63.3152 167.276C63.2893 167.386 63.3053 167.502 63.36 167.6Z" fill="white"/>
<path d="M52.0349 178.318C55.6649 179.036 57.0649 179.256 59.1349 179.596C60.9049 179.885 61.2349 180.175 62.6349 180.424C63.8149 180.634 64.2349 179.556 64.4049 178.248C64.4949 177.594 64.6549 175.981 64.8399 174.933L59.2149 174.634C57.8749 175.852 54.2999 176.251 52.1449 176.131C50.0999 175.971 50.5899 178.028 52.0349 178.318Z" fill="#263238"/>
<path d="M59.2599 79.0304C59.2599 79.0304 61.1249 110.978 61.4699 125.454C61.8249 140.654 61.5349 164.39 58.7749 174.504C59.5299 175.003 63.0299 175.003 64.8549 174.474C64.8549 174.474 76.2199 142.277 71.9399 126.128C80.5549 90.5515 75.4399 82.1553 74.0049 79.0454L59.2599 79.0304Z" fill="#1F61A9"/>
<path d="M59.255 172.422C59.0235 173.105 58.7479 173.772 58.43 174.419C58.3986 174.466 58.3789 174.519 58.3725 174.575C58.3661 174.63 58.3733 174.687 58.3934 174.739C58.4135 174.792 58.446 174.838 58.488 174.876C58.5301 174.913 58.5805 174.939 58.635 174.953C60.58 175.452 63.69 175.268 64.685 175.188C64.7817 175.177 64.8742 175.142 64.9537 175.087C65.0333 175.031 65.0974 174.956 65.14 174.868L66.035 173.006C66.0676 172.955 66.0861 172.896 66.0886 172.835C66.091 172.775 66.0774 172.714 66.0489 172.661C66.0205 172.607 65.9783 172.562 65.9267 172.529C65.8751 172.497 65.8158 172.479 65.755 172.477L59.805 172.048C59.6852 172.043 59.5672 172.077 59.4682 172.145C59.3692 172.212 59.2945 172.309 59.255 172.422Z" fill="#407BFF"/>
<path opacity="0.3" d="M59.255 172.422C59.0235 173.105 58.7479 173.772 58.43 174.419C58.3986 174.466 58.3789 174.519 58.3725 174.575C58.3661 174.63 58.3733 174.687 58.3934 174.739C58.4135 174.792 58.446 174.838 58.488 174.876C58.5301 174.913 58.5805 174.939 58.635 174.953C60.58 175.452 63.69 175.268 64.685 175.188C64.7817 175.177 64.8742 175.142 64.9537 175.087C65.0333 175.031 65.0974 174.956 65.14 174.868L66.035 173.006C66.0676 172.955 66.0861 172.896 66.0886 172.835C66.091 172.775 66.0774 172.714 66.0489 172.661C66.0205 172.607 65.9783 172.562 65.9267 172.529C65.8751 172.497 65.8158 172.479 65.755 172.477L59.805 172.048C59.6852 172.043 59.5672 172.077 59.4682 172.145C59.3692 172.212 59.2945 172.309 59.255 172.422Z" fill="white"/>
<path d="M73.865 50.7967C73.07 50.7118 72.235 50.647 71.365 50.607C68.3472 50.3897 65.3177 50.3897 62.3 50.607C61.3 50.6969 60.3 50.8217 59.3 50.9564C57.5761 51.2074 55.9935 52.0495 54.8239 53.3384C53.6542 54.6273 52.9705 56.2825 52.89 58.0199C52.83 59.9817 53.255 62.9368 53.665 67.6091C54.205 73.6892 52.72 76.7891 54.02 79.0304C56.565 81.4465 68.25 80.2384 73.985 79.0304C75.71 76.8141 72.335 71.0435 77.825 56.8368C78.945 53.9965 76.825 51.0962 73.865 50.7967Z" fill="#A6CC17"/>
<path d="M62 55.4641C61.895 55.8335 61.68 56.098 61.5 56.0531C61.32 56.0082 61.285 55.6687 61.39 55.2943C61.495 54.9199 61.715 54.6604 61.89 54.7103C62.065 54.7602 62.11 55.0947 62 55.4641Z" fill="white"/>
<path d="M61.2699 58.544C61.2199 58.9284 61.0449 59.2179 60.8749 59.1979C60.7049 59.178 60.6099 58.8485 60.6549 58.4691C60.6999 58.0898 60.8799 57.7902 61.0449 57.8152C61.2099 57.8402 61.3149 58.1596 61.2699 58.544Z" fill="white"/>
<path d="M69.455 40.7282C69.365 43.7233 68.98 48.6602 70.875 50.607C70.875 50.607 68.11 50.1927 62.245 53.8118C60.545 51.3807 61.805 50.607 61.805 50.607C62.2551 50.5416 62.6835 50.3719 63.0562 50.1115C63.4288 49.8512 63.7352 49.5074 63.951 49.1077C64.1667 48.7079 64.2858 48.2634 64.2986 47.8095C64.3115 47.3556 64.2178 46.905 64.025 46.4938L69.455 40.7282Z" fill="#B55B52"/>
<path d="M63.5 53.083C65.435 53.3575 66.04 56.2727 66.04 56.2727C66.04 56.2727 70.68 52.9981 72.15 50.6819C71.5662 50.3546 71.0004 49.9963 70.455 49.6087C70.455 49.6087 64.605 51.9698 63.5 53.083Z" fill="white"/>
<path d="M61.6401 52.7735C61.6401 52.7735 60.1051 53.1079 59.3351 55.2344C58.8951 50.9864 60.9101 50.597 60.9101 50.597C61.4435 50.3038 62.0657 50.2151 62.6601 50.3474C62.2336 50.5698 61.8982 50.934 61.712 51.3769C61.5258 51.8198 61.5003 52.3138 61.6401 52.7735Z" fill="white"/>
<path opacity="0.2" d="M66.0599 44.6767L65.2949 45.141L64.0249 46.4938C64.3541 47.1795 64.3972 47.9677 64.1449 48.6852C65.5949 48.1211 67.0549 46.9929 67.4399 45.77C67.4991 45.5879 67.5012 45.3922 67.4458 45.209C67.3904 45.0258 67.2803 44.8639 67.1301 44.7449C66.98 44.626 66.797 44.5557 66.6057 44.5435C66.4144 44.5313 66.224 44.5778 66.0599 44.6767Z" fill="black"/>
<path d="M68.5 33.6648C69.895 38.2423 70.58 40.1542 69.245 43.3889C67.245 48.2609 61.475 49.2393 58.78 45.2308C56.36 41.6267 54.485 34.748 58.07 31.129C58.8124 30.3245 59.757 29.7332 60.8057 29.4165C61.8545 29.0998 62.969 29.0693 64.0335 29.3281C65.0981 29.5869 66.0738 30.1257 66.8592 30.8883C67.6447 31.6509 68.2112 32.6096 68.5 33.6648Z" fill="#B55B52"/>
<path opacity="0.4" d="M63.625 30.9892C62.45 34.1091 65.235 37.9777 69.22 37.7032C71.075 34.159 69.95 31.4534 68.96 30.3502C67.97 29.247 64.97 29.0474 63.625 30.9892Z" fill="#263238"/>
<path d="M68.935 30.9493C68.4 34.738 56.08 32.3919 55.41 36.1907C55.38 31.2238 60.935 24.5947 68.935 30.9493Z" fill="#263238"/>
<path d="M62.45 38.3371C62.58 38.7165 62.5 39.1059 62.265 39.2057C62.03 39.3055 61.73 39.0809 61.595 38.7065C61.46 38.3321 61.545 37.9378 61.78 37.838C62.015 37.7381 62.315 37.9378 62.45 38.3371Z" fill="#263238"/>
<path d="M57.83 39.7798C57.965 40.1592 57.885 40.5485 57.65 40.6483C57.415 40.7482 57.115 40.5236 56.98 40.1492C56.845 39.7748 56.93 39.3804 57.165 39.2806C57.4 39.1808 57.7 39.4004 57.83 39.7798Z" fill="#263238"/>
<path d="M57.2751 39.2506L56.3201 39.3605C56.3201 39.3605 57.0001 39.8796 57.2751 39.2506Z" fill="#263238"/>
<path d="M59.1251 39.5601C59.1111 40.5728 58.9666 41.5794 58.6951 42.5552C58.9321 42.6117 59.1788 42.6142 59.4168 42.5623C59.6549 42.5105 59.8782 42.4057 60.0701 42.2557L59.1251 39.5601Z" fill="#A02724"/>
<path d="M61.27 43.4837C61.0646 43.5688 60.8521 43.6356 60.635 43.6834C60.6204 43.687 60.6053 43.6875 60.5906 43.6849C60.5758 43.6822 60.5618 43.6764 60.5495 43.6679C60.5372 43.6594 60.5269 43.6484 60.5192 43.6355C60.5115 43.6227 60.5066 43.6084 60.505 43.5935C60.5012 43.5621 60.5087 43.5304 60.5261 43.5039C60.5435 43.4774 60.5696 43.4579 60.6 43.4488C61.0894 43.3428 61.5486 43.128 61.9433 42.8203C62.3381 42.5126 62.6582 42.12 62.88 41.6717C62.885 41.6571 62.8929 41.6437 62.9032 41.6322C62.9135 41.6207 62.9261 41.6114 62.9401 41.6049C62.9541 41.5984 62.9693 41.5948 62.9847 41.5942C63.0001 41.5937 63.0155 41.5963 63.03 41.6018C63.0443 41.6077 63.0573 41.6165 63.0681 41.6276C63.079 41.6387 63.0875 41.6519 63.0931 41.6664C63.0987 41.6808 63.1013 41.6963 63.1008 41.7118C63.1002 41.7273 63.0965 41.7425 63.09 41.7565C62.7182 42.5372 62.0697 43.1525 61.27 43.4837Z" fill="#263238"/>
<path d="M71.415 37.5934C71.4431 38.052 71.3738 38.5114 71.2118 38.9415C71.0499 39.3716 70.7988 39.7627 70.475 40.0893C69.645 40.863 68.635 39.9794 68.365 38.7015C68.125 37.5534 68.265 35.7664 69.365 35.5018C70.465 35.2372 71.385 36.3604 71.415 37.5934Z" fill="#B55B52"/>
<path d="M62.3551 36.1557C62.3255 36.1616 62.295 36.1611 62.2657 36.1542C62.2364 36.1473 62.2089 36.1342 62.1851 36.1158C61.9613 35.939 61.6975 35.8197 61.4168 35.7684C61.1361 35.717 60.8471 35.7352 60.5751 35.8213C60.548 35.8331 60.5187 35.8392 60.4891 35.839C60.4596 35.8387 60.4304 35.8323 60.4035 35.8201C60.3766 35.8078 60.3525 35.79 60.333 35.7679C60.3135 35.7457 60.2988 35.7197 60.2901 35.6915C60.2715 35.6311 60.276 35.566 60.3028 35.5088C60.3296 35.4516 60.3767 35.4064 60.4351 35.382C60.7761 35.2653 61.141 35.2357 61.4964 35.2958C61.8519 35.356 62.1866 35.504 62.4701 35.7264C62.5184 35.7655 62.5492 35.8222 62.5558 35.8839C62.5623 35.9457 62.5441 36.0075 62.5051 36.0559C62.4692 36.1066 62.4158 36.1422 62.3551 36.1557Z" fill="#263238"/>
<path d="M55.725 38.5069C55.6705 38.5291 55.6095 38.5291 55.555 38.5069C55.4983 38.4825 55.4531 38.4373 55.4289 38.3806C55.4047 38.3239 55.4033 38.2601 55.425 38.2024C55.5429 37.8434 55.7424 37.5165 56.0078 37.2472C56.2732 36.9778 56.5974 36.7734 56.955 36.6499C56.984 36.6418 57.0143 36.6398 57.0441 36.6441C57.0738 36.6484 57.1023 36.6589 57.1278 36.6749C57.1532 36.6909 57.175 36.712 57.1918 36.737C57.2085 36.7619 57.2198 36.7901 57.225 36.8196C57.2366 36.8816 57.2253 36.9456 57.1931 36.9998C57.1609 37.054 57.11 37.0946 57.05 37.1141C56.7677 37.2152 56.5126 37.38 56.3045 37.5956C56.0963 37.8111 55.9408 38.0717 55.85 38.3571C55.829 38.4211 55.7843 38.4746 55.725 38.5069Z" fill="#263238"/>
<path d="M61.8901 37.808L60.9351 37.9178C60.9351 37.9178 61.6301 38.437 61.8901 37.808Z" fill="#263238"/>
<path d="M76.8949 61.3344C76.8949 61.599 76.8949 61.7238 76.8949 61.9035V62.4027C76.8949 62.7222 76.8499 63.0366 76.8149 63.3511C76.7475 63.9749 76.6473 64.5947 76.5149 65.2081C76.2542 66.459 75.8569 67.6777 75.3299 68.8421C74.7868 70.0608 74.0767 71.1981 73.2199 72.2216C72.3404 73.2784 71.2932 74.184 70.1199 74.9022L69.9399 75.012C69.7825 75.102 69.6146 75.1724 69.4399 75.2217C68.5903 75.4639 67.6896 75.4639 66.8399 75.2217C66.2768 75.0615 65.7334 74.8388 65.2199 74.5577C64.3895 74.0964 63.6087 73.5511 62.8899 72.9304C61.5805 71.792 60.4062 70.5073 59.3899 69.1017C59.1683 68.8227 59.0535 68.474 59.0661 68.1182C59.0787 67.7624 59.2179 67.4227 59.4587 67.16C59.6995 66.8974 60.0262 66.729 60.3801 66.685C60.734 66.6411 61.092 66.7245 61.3899 66.9203L61.4449 66.9552L63.4449 68.1233C64.1099 68.5077 64.7749 68.8821 65.4449 69.2015C66.0402 69.5141 66.6608 69.7762 67.2999 69.9852C67.5136 70.0615 67.7381 70.1037 67.9649 70.11C68.1099 70.11 68.0999 70.0202 67.7549 70.11L67.0999 70.4295C67.7159 69.9401 68.2566 69.3633 68.7049 68.7173C68.9394 68.3876 69.1484 68.0405 69.3299 67.679C69.53 67.3099 69.7054 66.9281 69.8549 66.5359C70.1691 65.7164 70.4117 64.8713 70.5799 64.01C70.6699 63.5708 70.7349 63.1215 70.7949 62.6772C70.8199 62.4576 70.8449 62.2379 70.8649 62.0183L70.9049 61.4642V61.1997C70.9275 60.4053 71.2652 59.6524 71.8437 59.1067C72.4223 58.5609 73.1943 58.2669 73.9899 58.2894C74.7856 58.3119 75.5397 58.6491 76.0864 59.2267C76.633 59.8043 76.9275 60.575 76.9049 61.3694L76.8949 61.3344Z" fill="#B55B52"/>
<path d="M58.165 71.4978H47.335C46.8551 71.5052 46.3861 71.3555 45.9996 71.0716C45.6131 70.7876 45.3304 70.3849 45.195 69.9253L43.87 63.0616C43.7 62.198 44.37 61.4892 45.4 61.4892H56.225C56.7052 61.48 57.175 61.6291 57.5619 61.9133C57.9487 62.1975 58.231 62.6011 58.365 63.0616L59.695 69.9253C59.86 70.7889 59.175 71.4978 58.165 71.4978Z" fill="#7F9913"/>
<path d="M57.83 71.0485H47.33C46.96 71.0642 46.5949 70.9591 46.29 70.7493C45.9851 70.5395 45.7569 70.2362 45.64 69.8854L44.345 63.2114C44.3209 63.0973 44.3228 62.9794 44.3505 62.8662C44.3782 62.7531 44.431 62.6475 44.505 62.5574C44.6208 62.4321 44.7628 62.3337 44.9209 62.269C45.079 62.2043 45.2493 62.175 45.42 62.183H55.92C56.2887 62.1753 56.6501 62.2868 56.9501 62.5009C57.2502 62.715 57.4729 63.0203 57.585 63.3711L58.875 70.0451C58.9008 70.1587 58.9002 70.2767 58.8734 70.39C58.8465 70.5034 58.794 70.6091 58.72 70.6991C58.6044 70.8164 58.4655 70.9081 58.3122 70.9683C58.1588 71.0285 57.9946 71.0558 57.83 71.0485ZM45.42 62.2879C45.2674 62.2793 45.1149 62.3044 44.9732 62.3613C44.8314 62.4182 44.704 62.5057 44.6 62.6173C44.538 62.693 44.494 62.7818 44.4715 62.8769C44.449 62.972 44.4485 63.0711 44.47 63.1664L45.76 69.8405C45.8657 70.1635 46.0734 70.4435 46.3519 70.6388C46.6304 70.8341 46.9648 70.934 47.305 70.9237H57.805C57.9563 70.9322 58.1076 70.9075 58.2484 70.8515C58.3892 70.7954 58.516 70.7093 58.62 70.5992C58.6836 70.5234 58.7288 70.434 58.7522 70.3379C58.7757 70.2418 58.7766 70.1417 58.755 70.0451L57.5 63.396C57.3946 63.0734 57.1879 62.7933 56.9105 62.5973C56.6331 62.4012 56.2997 62.2997 55.96 62.3078L45.42 62.2879Z" fill="white"/>
<path d="M58.395 64.9535L57.125 64.639C56.9696 64.5998 56.808 64.592 56.6495 64.6162C56.4911 64.6403 56.3392 64.6959 56.2026 64.7797C56.0661 64.8634 55.9477 64.9736 55.8545 65.1038C55.7613 65.234 55.6952 65.3814 55.66 65.5375L55.33 66.9802C55.2664 67.2578 55.304 67.5489 55.4359 67.8014C55.5678 68.0539 55.7856 68.2512 56.05 68.3579L57.66 69.0118C57.66 69.0118 60.355 70.6791 61.475 69.3912L61.975 67.3346L59.975 65.7222C59.5104 65.3546 58.9713 65.0922 58.395 64.9535Z" fill="#B55B52"/>
<path d="M74.05 50.8167C78.435 51.0812 79.785 55.6438 78.325 63.9551C77.615 67.075 68.855 62.812 68.855 62.812C68.855 62.812 68.55 53.9366 74.05 50.8167Z" fill="#A6CC17"/>
<path d="M197.94 139.526C196.345 129.543 200.715 116.444 206.255 117.407C210.845 118.206 198.89 136.471 197.94 139.526Z" fill="#A6CC17"/>
<path d="M196.195 144.618C201.405 137.225 198.195 122.03 192.695 121.68C187.195 121.331 195.745 140.899 196.195 144.618Z" fill="#3F4C09"/>
<path d="M196.455 148.946C195.86 132.972 205.605 124.94 209.955 126.847C214.43 128.789 199.86 140.1 196.455 148.946Z" fill="#A6CC17"/>
<path d="M195.145 158.894C200.355 147.648 195.89 130.067 187.605 131.969C180.735 133.546 193.915 154.157 195.145 158.894Z" fill="#A6CC17"/>
<path d="M195.5 162.234C194.925 151.452 191.65 137.699 184.92 138.972C178.5 140.195 193.5 152.824 195.5 162.234Z" fill="#3F4C09"/>
<path d="M193.85 167.535C195.5 151.626 209.14 142.766 209 148.756C208.855 155.245 198.435 159.419 193.85 167.535Z" fill="#A6CC17"/>
<path d="M195.175 164.166C197.09 158.475 192.59 150.748 187.865 152.4C183.95 153.748 193.945 162.089 195.175 164.166Z" fill="#A6CC17"/>
<path d="M195.3 162.039C193.24 149.839 203.77 128.839 213.27 133.356C222.5 137.739 199.8 148.022 195.3 162.039Z" fill="#3F4C09"/>
<path d="M200 180.449H190.9C190.106 180.452 189.332 180.199 188.693 179.729C188.054 179.259 187.583 178.596 187.35 177.838C186.16 174.209 185.616 170.399 185.74 166.582C185.804 165.377 185.971 164.179 186.24 163.003C186.293 162.769 186.424 162.56 186.611 162.409C186.798 162.259 187.03 162.176 187.27 162.174H203.655C203.895 162.175 204.127 162.258 204.313 162.409C204.5 162.559 204.629 162.769 204.68 163.003C204.949 164.179 205.116 165.377 205.18 166.582C205.304 170.399 204.761 174.208 203.575 177.838C203.34 178.6 202.865 179.265 202.221 179.735C201.577 180.205 200.798 180.456 200 180.449Z" fill="#1F61A9"/>
<path opacity="0.5" d="M205.15 166.582H185.74C185.804 165.377 185.971 164.179 186.24 163.003C186.293 162.769 186.424 162.56 186.611 162.409C186.797 162.259 187.03 162.176 187.27 162.174H203.655C203.895 162.175 204.127 162.258 204.313 162.409C204.499 162.559 204.629 162.769 204.68 163.003C204.939 164.18 205.096 165.378 205.15 166.582Z" fill="white"/>
</g>
<defs>
<clipPath id="clip0_220_2474">
<rect width="250" height="186" fill="white"/>
</clipPath>
</defs>
</svg>
