<svg width="312" height="185" viewBox="0 0 312 185" fill="none" xmlns="http://www.w3.org/2000/svg">
<g clip-path="url(#clip0_227_2161)">
<path d="M55.6435 166.905C58.0671 167.178 60.4553 167.706 62.7688 168.478L62.8619 168.512L63.1169 168.6C76.063 173.217 82.0113 172.35 87.1015 170.786C100.832 166.566 109.002 148.397 131.27 151.917C140.715 153.387 148.316 155.436 154.235 159.562L154.357 159.66C155.206 160.258 156.034 160.861 156.809 161.489C168.387 169.041 179.926 159.195 183.241 156.96C183.481 156.783 183.731 155.387 183.981 155.21L184.187 155.053C198.697 144.834 221.78 134.468 244.014 137.022C282.263 141.389 297.632 184.726 297.632 184.726H11.9751C16.4376 174.462 34.2874 164.464 55.6435 166.905Z" fill="#B2DBF9"/>
<path d="M35.6505 51.7202H58.1737C58.6991 51.7202 59.125 51.2944 59.125 50.7693V44.5153C59.125 43.9902 58.6991 43.5645 58.1737 43.5645H35.6505C35.1251 43.5645 34.6991 43.9902 34.6991 44.5153V50.7693C34.6991 51.2944 35.1251 51.7202 35.6505 51.7202Z" fill="#8155FF"/>
<path d="M39.4854 46.7307H55.4816" stroke="white" stroke-width="0.62" stroke-miterlimit="10"/>
<path d="M39.4854 48.5539H44.193" stroke="white" stroke-width="0.62" stroke-miterlimit="10"/>
<path d="M56.2169 50.6321V54.3227L51.5142 50.6321H56.2169Z" fill="#8155FF"/>
<path d="M226.287 14.1069C227.237 8.21415 223.227 2.66771 217.331 1.71857C211.435 0.769427 205.886 4.77702 204.936 10.6698C203.987 16.5625 207.996 22.1089 213.892 23.0581C219.788 24.0072 225.337 19.9996 226.287 14.1069Z" fill="#FFCD2E"/>
<path d="M203.964 71.6143H92.2017V184.137H203.964V71.6143Z" fill="white" stroke="#1F61A9" stroke-miterlimit="10"/>
<path d="M204.205 53.8816V71.5898H91.9565V53.8816C91.9565 52.1917 92.6282 50.5711 93.8237 49.3762C95.0193 48.1813 96.6408 47.51 98.3315 47.51H197.835C199.525 47.5113 201.145 48.1831 202.339 49.3779C203.534 50.5727 204.205 52.1926 204.205 53.8816Z" fill="#1F61A9"/>
<path d="M186.811 63.787C189.728 63.787 192.092 61.4237 192.092 58.5084C192.092 55.5931 189.728 53.2297 186.811 53.2297C183.894 53.2297 181.529 55.5931 181.529 58.5084C181.529 61.4237 183.894 63.787 186.811 63.787Z" fill="#2B4183"/>
<path d="M186.835 60.4885C187.638 60.4885 188.407 60.1699 188.975 59.6028C189.542 59.0356 189.861 58.2665 189.861 57.4644V43.8046C189.857 43.0047 189.537 42.2388 188.97 41.674C188.403 41.1093 187.636 40.7916 186.835 40.7904C186.031 40.7904 185.261 41.1095 184.692 41.6775C184.124 42.2456 183.805 43.016 183.805 43.8193V57.4546C183.804 57.8528 183.882 58.2472 184.034 58.6153C184.186 58.9833 184.409 59.3178 184.691 59.5996C184.972 59.8814 185.306 60.1049 185.674 60.2575C186.042 60.41 186.437 60.4885 186.835 60.4885Z" fill="#FFCB2D"/>
<path d="M149.542 63.787C152.459 63.787 154.823 61.4237 154.823 58.5084C154.823 55.5931 152.459 53.2297 149.542 53.2297C146.625 53.2297 144.26 55.5931 144.26 58.5084C144.26 61.4237 146.625 63.787 149.542 63.787Z" fill="#2B4183"/>
<path d="M149.566 60.4885C150.369 60.4885 151.138 60.1699 151.706 59.6028C152.273 59.0356 152.592 58.2665 152.592 57.4644V43.8046C152.588 43.0047 152.268 42.2388 151.701 41.674C151.134 41.1093 150.367 40.7916 149.566 40.7904C148.763 40.7917 147.994 41.1114 147.426 41.6793C146.859 42.2472 146.541 43.0168 146.541 43.8193V57.4546C146.539 57.8526 146.617 58.2469 146.768 58.6149C146.92 58.9829 147.142 59.3175 147.423 59.5993C147.704 59.8812 148.038 60.1048 148.406 60.2574C148.774 60.41 149.168 60.4885 149.566 60.4885Z" fill="#FFCB2D"/>
<path d="M112.273 63.787C115.189 63.787 117.554 61.4237 117.554 58.5084C117.554 55.5931 115.189 53.2297 112.273 53.2297C109.356 53.2297 106.991 55.5931 106.991 58.5084C106.991 61.4237 109.356 63.787 112.273 63.787Z" fill="#2B4183"/>
<path d="M112.298 60.4885C113.1 60.4885 113.87 60.1699 114.437 59.6028C115.005 59.0356 115.323 58.2665 115.323 57.4644V43.8046C115.319 43.0047 114.999 42.2388 114.432 41.674C113.865 41.1093 113.098 40.7916 112.298 40.7904C111.495 40.7917 110.725 41.1114 110.158 41.6793C109.591 42.2472 109.272 43.0168 109.272 43.8193V57.4546C109.271 57.8526 109.348 58.2469 109.499 58.6149C109.651 58.9829 109.874 59.3175 110.155 59.5993C110.436 59.8812 110.77 60.1048 111.138 60.2574C111.505 60.41 111.899 60.4885 112.298 60.4885Z" fill="#FFCB2D"/>
<path d="M166.278 111.006H187.62V89.6755H166.278V111.006Z" stroke="#F0E0DF" stroke-width="2.21" stroke-miterlimit="10"/>
<path d="M137.88 111.006H159.222V89.6755H137.88V111.006Z" stroke="#F0E0DF" stroke-width="2.21" stroke-miterlimit="10"/>
<path d="M109.482 111.006H130.824V89.6755H109.482V111.006Z" stroke="#F0E0DF" stroke-width="2.21" stroke-miterlimit="10"/>
<path d="M166.278 138.08H187.62V116.75H166.278V138.08Z" stroke="#F0E0DF" stroke-width="2.21" stroke-miterlimit="10"/>
<path d="M137.88 138.08H159.222V116.75H137.88V138.08Z" stroke="#F0E0DF" stroke-width="2.21" stroke-miterlimit="10"/>
<path d="M109.482 138.08H130.824V116.75H109.482V138.08Z" fill="#1F61A9"/>
<path d="M117.196 124.371L123.115 130.469" stroke="white" stroke-width="2.02" stroke-miterlimit="10"/>
<path d="M123.115 124.371L117.196 130.469" stroke="white" stroke-width="2.02" stroke-miterlimit="10"/>
<path d="M166.278 165.165H187.62V143.834H166.278V165.165Z" stroke="#F0E0DF" stroke-width="2.21" stroke-miterlimit="10"/>
<path d="M137.88 165.165H159.222V143.834H137.88V165.165Z" stroke="#F0E0DF" stroke-width="2.21" stroke-miterlimit="10"/>
<path d="M109.482 165.165H130.824V143.834H109.482V165.165Z" stroke="#F0E0DF" stroke-width="2.21" stroke-miterlimit="10"/>
<path d="M202.277 109.976H191.891V116.814H202.277V109.976Z" fill="#FFA80A"/>
<path d="M203.881 111.746H190.292C189.925 111.746 189.56 111.673 189.221 111.533C188.881 111.392 188.572 111.186 188.312 110.926C188.052 110.666 187.846 110.358 187.705 110.018C187.565 109.679 187.492 109.315 187.492 108.947C187.492 108.205 187.787 107.493 188.312 106.968C188.837 106.443 189.55 106.149 190.292 106.149H203.881C204.623 106.149 205.336 106.443 205.861 106.968C206.386 107.493 206.681 108.205 206.681 108.947C206.681 109.315 206.608 109.679 206.468 110.018C206.327 110.358 206.121 110.666 205.861 110.926C205.601 111.186 205.292 111.392 204.952 111.533C204.613 111.673 204.248 111.746 203.881 111.746Z" fill="#FFCB2D"/>
<path d="M171.898 120.348L166.042 126.201L170.171 130.329L176.028 124.475L171.898 120.348Z" fill="#FFA80A"/>
<path d="M173.747 120.102L165.568 128.283C165.171 128.678 164.634 128.9 164.074 128.9C163.514 128.9 162.977 128.678 162.581 128.283C162.186 127.887 161.963 127.35 161.963 126.79C161.963 126.231 162.186 125.694 162.581 125.298L170.766 117.123C171.161 116.727 171.697 116.506 172.256 116.506C172.815 116.506 173.352 116.727 173.747 117.123C174.142 117.518 174.364 118.054 174.364 118.612C174.364 119.171 174.142 119.707 173.747 120.102Z" fill="#FFCB2D"/>
<path d="M196.962 184.039C216.351 184.039 232.068 168.33 232.068 148.951C232.068 129.573 216.351 113.863 196.962 113.863C177.573 113.863 161.855 129.573 161.855 148.951C161.855 168.33 177.573 184.039 196.962 184.039Z" fill="#144366"/>
<path d="M196.962 182.152C215.308 182.152 230.18 167.288 230.18 148.951C230.18 130.615 215.308 115.75 196.962 115.75C178.616 115.75 163.743 130.615 163.743 148.951C163.743 167.288 178.616 182.152 196.962 182.152Z" fill="#184E7F"/>
<path d="M196.962 178.403C213.236 178.403 226.429 165.217 226.429 148.951C226.429 132.686 213.236 119.5 196.962 119.5C180.687 119.5 167.495 132.686 167.495 148.951C167.495 165.217 180.687 178.403 196.962 178.403Z" fill="#F6F6F6"/>
<path d="M197.134 126.136C196.937 126.136 196.749 126.058 196.61 125.919C196.471 125.78 196.393 125.592 196.393 125.396V123.656C196.422 123.482 196.511 123.323 196.646 123.209C196.781 123.094 196.952 123.031 197.129 123.031C197.305 123.031 197.476 123.094 197.611 123.209C197.746 123.323 197.836 123.482 197.864 123.656V125.396C197.864 125.59 197.788 125.777 197.651 125.916C197.514 126.054 197.328 126.133 197.134 126.136Z" fill="#184E7F"/>
<path d="M197.134 175.345C196.938 175.343 196.75 175.265 196.611 175.126C196.473 174.988 196.394 174.8 196.393 174.604V172.864C196.422 172.69 196.511 172.532 196.646 172.417C196.781 172.303 196.952 172.24 197.129 172.24C197.305 172.24 197.476 172.303 197.611 172.417C197.746 172.532 197.836 172.69 197.864 172.864V174.595C197.866 174.791 197.79 174.979 197.653 175.119C197.516 175.26 197.33 175.341 197.134 175.345Z" fill="#184E7F"/>
<path d="M180.318 133.091C180.121 133.09 179.932 133.01 179.793 132.87L178.562 131.64C178.429 131.5 178.355 131.313 178.357 131.119C178.36 130.926 178.438 130.741 178.576 130.604C178.713 130.468 178.898 130.39 179.092 130.389C179.286 130.387 179.472 130.462 179.612 130.596L180.843 131.826C180.912 131.895 180.966 131.976 181.004 132.066C181.041 132.155 181.06 132.251 181.06 132.348C181.06 132.445 181.041 132.541 181.004 132.631C180.966 132.721 180.912 132.802 180.843 132.87C180.775 132.94 180.693 132.996 180.603 133.034C180.513 133.072 180.416 133.091 180.318 133.091Z" fill="#184E7F"/>
<path d="M215.13 167.885C214.935 167.884 214.749 167.807 214.611 167.669L213.38 166.439C213.245 166.3 213.171 166.113 213.172 165.919C213.174 165.726 213.251 165.54 213.388 165.403C213.525 165.266 213.71 165.188 213.903 165.185C214.097 165.183 214.284 165.256 214.424 165.39L215.655 166.62C215.759 166.724 215.83 166.856 215.859 167C215.887 167.144 215.873 167.293 215.817 167.428C215.76 167.564 215.665 167.68 215.543 167.761C215.421 167.842 215.277 167.885 215.13 167.885Z" fill="#184E7F"/>
<path d="M179.087 167.885C178.891 167.883 178.703 167.806 178.563 167.669C178.494 167.6 178.439 167.519 178.401 167.429C178.364 167.339 178.345 167.242 178.345 167.145C178.345 167.047 178.364 166.951 178.401 166.861C178.439 166.771 178.494 166.689 178.563 166.62L179.794 165.39C179.933 165.251 180.121 165.173 180.318 165.173C180.515 165.173 180.704 165.251 180.843 165.39C180.982 165.529 181.06 165.718 181.06 165.915C181.06 166.111 180.982 166.3 180.843 166.439L179.612 167.669C179.543 167.738 179.461 167.792 179.371 167.829C179.281 167.866 179.185 167.885 179.087 167.885Z" fill="#184E7F"/>
<path d="M213.899 133.091C213.802 133.091 213.707 133.071 213.617 133.033C213.528 132.995 213.447 132.94 213.38 132.87C213.311 132.802 213.256 132.721 213.219 132.631C213.181 132.541 213.162 132.445 213.162 132.348C213.162 132.251 213.181 132.155 213.219 132.066C213.256 131.976 213.311 131.895 213.38 131.826L214.611 130.596C214.752 130.474 214.935 130.409 215.122 130.416C215.309 130.423 215.487 130.5 215.619 130.632C215.751 130.764 215.829 130.942 215.835 131.129C215.842 131.316 215.778 131.499 215.655 131.64L214.424 132.87C214.356 132.94 214.275 132.996 214.184 133.034C214.094 133.072 213.997 133.091 213.899 133.091Z" fill="#184E7F"/>
<path d="M173.364 149.873H171.633C171.459 149.844 171.3 149.755 171.186 149.62C171.071 149.485 171.008 149.314 171.008 149.138C171.008 148.961 171.071 148.79 171.186 148.655C171.3 148.521 171.459 148.431 171.633 148.402H173.374C173.548 148.431 173.707 148.521 173.822 148.655C173.936 148.79 173.999 148.961 173.999 149.138C173.999 149.314 173.936 149.485 173.822 149.62C173.707 149.755 173.548 149.844 173.374 149.873H173.364Z" fill="#184E7F"/>
<path d="M222.599 149.873H220.858C220.683 149.844 220.525 149.755 220.41 149.62C220.296 149.485 220.233 149.314 220.233 149.138C220.233 148.961 220.296 148.79 220.41 148.655C220.525 148.521 220.683 148.431 220.858 148.402H222.599C222.773 148.431 222.932 148.521 223.046 148.655C223.161 148.79 223.223 148.961 223.223 149.138C223.223 149.314 223.161 149.485 223.046 149.62C222.932 149.755 222.773 149.844 222.599 149.873Z" fill="#184E7F"/>
<path d="M198.884 148.853H195.338V133.503C195.338 133.033 195.525 132.583 195.857 132.251C196.189 131.92 196.639 131.733 197.109 131.733C197.579 131.733 198.029 131.919 198.362 132.251C198.695 132.583 198.883 133.033 198.884 133.503V148.853Z" fill="#184E7F"/>
<path d="M197.109 152.911C199.351 152.911 201.169 151.095 201.169 148.853C201.169 146.612 199.351 144.795 197.109 144.795C194.866 144.795 193.048 146.612 193.048 148.853C193.048 151.095 194.866 152.911 197.109 152.911Z" fill="#1F6599"/>
<path d="M75.9158 112.349L82.3349 140.629C82.5329 141.938 82.387 143.276 81.9116 144.511C81.4362 145.747 80.6475 146.838 79.623 147.677L60.4639 162.67L60.8218 148.883L70.3892 141.08L60.4639 111.589L75.9158 112.349Z" fill="#7F9913"/>
<path d="M51.1323 162.783L60.3514 157.96L56.7128 152.823L46.6943 158.269L49.8916 162.322L51.1323 162.783Z" fill="#B55B52"/>
<path d="M48.935 156.107C48.935 156.107 50.4944 161.817 54.9814 161.498L56.7125 175.085L43.4722 158.303L48.935 156.107Z" fill="#181F42"/>
<path d="M56.7147 175.107L43.4722 158.323L41.8858 159.574L55.1283 176.357L56.7147 175.107Z" fill="white"/>
<path d="M55.2068 163.278C54.367 163.051 53.4957 162.963 52.6274 163.018" stroke="white" stroke-width="1.5" stroke-linecap="round" stroke-linejoin="round"/>
<path d="M55.5897 165.282C54.7498 165.055 53.8785 164.968 53.0103 165.022" stroke="white" stroke-width="1.5" stroke-linecap="round" stroke-linejoin="round"/>
<path d="M55.972 167.243C55.1316 167.019 54.2607 166.931 53.3926 166.983" stroke="white" stroke-width="1.5" stroke-linecap="round" stroke-linejoin="round"/>
<path d="M59.3604 179.442L60.2971 169.218L54.0055 168.899L53.0688 180.128H58.2277L59.3604 179.442Z" fill="#B55B52"/>
<path d="M52.2648 177.045C52.2648 177.045 57.7129 179.359 60.2433 175.639L72.0125 182.706H50.6318L52.2648 177.045Z" fill="#181F42"/>
<path d="M72.0027 182.691H50.6172V184.711H72.0027V182.691Z" fill="white"/>
<path d="M61.788 176.555C61.0923 177.076 60.4847 177.705 59.9883 178.418" stroke="white" stroke-width="1.5" stroke-linecap="round" stroke-linejoin="round"/>
<path d="M63.5829 177.481C62.8849 178.001 62.2755 178.63 61.7783 179.344" stroke="white" stroke-width="1.5" stroke-linecap="round" stroke-linejoin="round"/>
<path d="M65.3827 178.413C64.6856 178.932 64.0778 179.561 63.583 180.275" stroke="white" stroke-width="1.5" stroke-linecap="round" stroke-linejoin="round"/>
<path d="M54.7365 111.677L51.8481 171.316H62.7934L70.767 111.868L54.7365 111.677Z" fill="#A6CC17"/>
<path d="M75.9157 112.368L69.2808 122.764L67.8979 112.104L75.9157 112.368Z" fill="#A6CC17"/>
<path d="M104.363 102.262L97.8262 102.777L98.9982 96.2089L105.824 96.7872L104.363 102.262Z" fill="#FA849B"/>
<path d="M109.87 101.948C109.182 102.539 108.334 102.913 107.434 103.022C106.534 103.132 105.621 102.972 104.812 102.562C104.002 102.153 103.333 101.513 102.887 100.724C102.442 99.9342 102.24 99.0303 102.309 98.1263C102.378 97.2224 102.713 96.3592 103.273 95.6457C103.832 94.9323 104.591 94.4008 105.453 94.1184C106.315 93.836 107.241 93.8154 108.114 94.0593C108.988 94.3032 109.77 94.8005 110.36 95.4884C111.151 96.4107 111.543 97.6087 111.451 98.8196C111.359 100.031 110.79 101.156 109.87 101.948Z" fill="#B55B52"/>
<path d="M107.123 93.8955C107.123 93.8955 106.29 91.9791 104.348 93.4053C102.406 94.8316 100.685 97.7282 103.406 101.453L107.123 93.8955Z" fill="#B55B52"/>
<path d="M107.124 93.871L112.385 92.5476C112.597 92.4794 112.827 92.4953 113.027 92.592C113.227 92.6888 113.382 92.859 113.459 93.0672C113.521 93.2439 113.515 93.4375 113.442 93.6099C113.368 93.7822 113.233 93.9208 113.062 93.9984L107.717 96.3853L107.124 93.871Z" fill="#B55B52"/>
<path d="M79.6773 84.7399L88.3129 98.3948C88.9036 99.4494 89.0717 100.689 88.7831 101.863C88.4945 103.036 87.7708 104.057 86.7584 104.717C85.7013 105.41 84.4126 105.654 83.1751 105.398C81.9377 105.142 80.8526 104.405 80.1578 103.35L70.615 90.2293C69.9447 89.2113 69.6461 87.9935 69.7694 86.7811C69.8926 85.5687 70.4303 84.4358 71.2917 83.5734C71.871 82.9917 72.5776 82.5525 73.3558 82.2906C74.134 82.0287 74.9625 81.9513 75.7758 82.0644C76.5892 82.1776 77.365 82.4782 78.0421 82.9425C78.7192 83.4069 79.279 84.0222 79.6773 84.7399Z" fill="#184E7F"/>
<path d="M76.9751 99.0271L77.4851 91.5478L79.3387 102.291L76.9751 99.0271Z" fill="#143F66"/>
<path d="M83.8551 97.0274L102.872 94.7973L102.808 103.477L85.1252 105.752C84.4726 105.878 83.7998 105.856 83.157 105.686C82.5142 105.517 81.9181 105.204 81.4131 104.772C80.9081 104.34 80.5074 103.799 80.2407 103.191C79.9741 102.582 79.8484 101.921 79.8732 101.257C79.9121 100.19 80.3371 99.1728 81.0694 98.3949C81.8017 97.617 82.7915 97.1311 83.8551 97.0274Z" fill="#184E7F"/>
<path d="M50.9262 122.759C50.9262 122.759 53.0496 122.93 52.7014 120.509C52.3532 118.088 50.5682 115.147 45.9194 115.804L50.9262 122.759Z" fill="#FA849B"/>
<path d="M35.5868 142.183H56.9282V120.852H35.5868V142.183Z" fill="#FFCD2E"/>
<path d="M36.5678 142.183H57.9092V120.852H36.5678V142.183Z" fill="#FFCD2E"/>
<path d="M42.3737 121.372C42.1727 120.471 42.2434 119.531 42.577 118.67C42.9106 117.81 43.4921 117.067 44.2479 116.537C45.0037 116.007 45.8999 115.712 46.823 115.691C47.7462 115.67 48.6549 115.923 49.4343 116.418C50.2136 116.913 50.8285 117.628 51.2013 118.473C51.5741 119.317 51.6879 120.253 51.5284 121.162C51.3689 122.071 50.9433 122.912 50.3054 123.58C49.6674 124.247 48.8458 124.71 47.9444 124.911C46.7363 125.178 45.4714 124.956 44.4271 124.292C43.3828 123.629 42.6444 122.579 42.3737 121.372Z" fill="#B55B52"/>
<path d="M51.4896 98.2086L51.2788 117.323L42.8933 116.931L42.6628 98.3556C42.6204 97.6922 42.7285 97.0278 42.9792 96.4121C43.2298 95.7963 43.6164 95.2451 44.1101 94.7997C44.6039 94.3544 45.1919 94.0262 45.8304 93.84C46.4688 93.6537 47.1411 93.614 47.7971 93.7239C48.8515 93.8979 49.8069 94.4484 50.486 95.2731C51.1651 96.0979 51.5217 97.1409 51.4896 98.2086Z" fill="#184E7F"/>
<path d="M62.2785 90.1999L50.7104 101.473C49.8013 102.268 48.6239 102.69 47.4161 102.652C46.2083 102.613 45.06 102.118 44.203 101.267C43.3048 100.382 42.7934 99.1772 42.7805 97.9164C42.7677 96.6556 43.2544 95.4409 44.1344 94.5375L54.9914 82.5C55.8476 81.6318 56.9776 81.0858 58.1902 80.9545C59.4028 80.8232 60.6236 81.1147 61.6459 81.7796C62.3348 82.2222 62.9115 82.8186 63.3307 83.5218C63.7498 84.2251 63.9998 85.016 64.0611 85.8322C64.1225 86.6485 63.9934 87.4678 63.684 88.2257C63.3747 88.9836 62.8935 89.6594 62.2785 90.1999Z" fill="#184E7F"/>
<path d="M75.1654 82.005L58.718 80.9267C57.2469 80.8287 54.589 83.5195 54.7459 84.9997V111.677L75.9157 112.349L78.0684 85.2693C78.1101 84.4532 77.8291 83.6535 77.2859 83.0427C76.7428 82.432 75.9811 82.0593 75.1654 82.005Z" fill="#184E7F"/>
<path d="M54.7363 97.5371L59.5126 92.876L54.7363 105.497V97.5371Z" fill="#143F66"/>
<path d="M72.4833 70.9674C72.4579 71.3956 72.5593 71.8219 72.775 72.1927C72.9907 72.5636 73.311 72.8627 73.6959 73.0526C74.0808 73.2424 74.5132 73.3146 74.9389 73.2601C75.3646 73.2056 75.7648 73.0269 76.0894 72.7462C76.414 72.4655 76.6486 72.0954 76.7638 71.6821C76.879 71.2689 76.8697 70.8309 76.7371 70.4229C76.6045 70.0149 76.3545 69.655 76.0183 69.3883C75.6821 69.1217 75.2746 68.96 74.847 68.9236C74.2634 68.8857 73.6883 69.0788 73.246 69.4613C72.8037 69.8437 72.5298 70.3847 72.4833 70.9674Z" fill="#B55B52"/>
<path d="M71.2181 76.246L71.12 81.6374C71.0906 83.5244 69.9431 84.5095 68.1483 84.4556C66.6085 84.4115 64.9363 83.6371 65.0344 81.9756L65.5885 73.5307L71.2181 76.246Z" fill="#B55B52"/>
<path d="M71.1642 79.8191C71.1642 79.8191 66.7802 80.1033 65.515 75.1531C65.1129 73.5945 71.2427 75.6971 71.2427 75.6971L71.1642 79.8191Z" fill="#312725"/>
<path d="M69.5799 77.7801C72.6448 77.8438 75.2242 75.3981 75.3615 72.8103L75.6214 67.4189C75.7252 65.8846 75.2307 64.3698 74.2415 63.192C73.2523 62.0142 71.8453 61.2649 70.3155 61.1012C67.1084 60.8169 63.7199 63.2136 63.4502 66.5219L63.2981 70.7419C63.2172 72.5029 63.8292 74.2256 65.0034 75.5411C66.1775 76.8566 67.8202 77.6603 69.5799 77.7801Z" fill="#B55B52"/>
<path d="M72.1691 70.443L72.3162 72.2074L71.5562 72.2221" stroke="#312725" stroke-width="0.6" stroke-linecap="round" stroke-linejoin="round"/>
<path d="M68.8448 66.8601C68.8448 66.8601 70.1002 66.7768 70.1051 67.3061C70.1051 67.3061 70.1051 67.6639 69.0017 67.7129C67.8984 67.762 67.6188 67.6786 67.5306 67.3405C67.4423 67.0023 68.2514 66.8552 68.8448 66.8601Z" fill="#312725"/>
<path d="M74.0964 68.1002C74.0964 68.1002 73.0617 67.9727 72.9685 68.4677C72.9685 68.4677 72.9097 68.801 73.8169 68.8942C74.7241 68.9873 75.0232 68.8697 75.1115 68.6001C75.1998 68.3305 74.5868 68.1198 74.0964 68.1002Z" fill="#312725"/>
<path d="M73.3025 70.1097C73.293 70.2504 73.339 70.3892 73.4306 70.4964C73.5223 70.6036 73.6523 70.6706 73.7929 70.6831C73.9009 70.6937 74.0097 70.6717 74.1051 70.6201C74.2006 70.5684 74.2784 70.4894 74.3286 70.3932C74.3787 70.2969 74.399 70.1879 74.3867 70.0801C74.3744 69.9723 74.3302 69.8707 74.2597 69.7882C74.1891 69.7057 74.0955 69.6462 73.9909 69.6173C73.8863 69.5884 73.7754 69.5914 73.6725 69.626C73.5696 69.6605 73.4794 69.7251 73.4135 69.8112C73.3475 69.8974 73.3089 70.0014 73.3025 70.1097Z" fill="#312725"/>
<path d="M68.6824 69.8695C68.6727 69.942 68.6782 70.0157 68.6984 70.086C68.7187 70.1563 68.7533 70.2217 68.8001 70.2779C68.8468 70.3342 68.9048 70.3801 68.9702 70.4129C69.0357 70.4456 69.1072 70.4645 69.1803 70.4682C69.2534 70.4719 69.3264 70.4605 69.3949 70.4346C69.4633 70.4087 69.5257 70.3689 69.578 70.3177C69.6302 70.2665 69.6713 70.205 69.6987 70.1372C69.726 70.0693 69.7389 69.9965 69.7367 69.9234C69.7464 69.8509 69.7409 69.7772 69.7207 69.7069C69.7004 69.6366 69.6658 69.5713 69.619 69.515C69.5723 69.4588 69.5143 69.4128 69.4489 69.3801C69.3834 69.3473 69.3119 69.3285 69.2388 69.3247C69.1657 69.321 69.0926 69.3324 69.0242 69.3583C68.9558 69.3842 68.8934 69.424 68.8411 69.4752C68.7889 69.5264 68.7478 69.5879 68.7204 69.6557C68.6931 69.7236 68.6802 69.7964 68.6824 69.8695Z" fill="#312725"/>
<path d="M69.9575 72.9867C70.1667 73.239 70.4429 73.4271 70.7544 73.5295C71.0658 73.6318 71.3998 73.6441 71.718 73.565" stroke="#312725" stroke-width="0.6" stroke-linecap="round" stroke-linejoin="round"/>
<path d="M74.3562 58.4594C73.1841 57.9693 70.183 57.4007 69.521 60.0523C66.5346 59.8219 61.7828 59.8807 61.3071 62.4686C60.6059 66.2671 63.3079 70.0312 63.3079 70.0312L64.0631 70.4184C64.0631 70.4184 65.9952 69.4382 65.495 64.8702C65.495 64.8702 72.3946 66.5317 75.6311 64.782C78.8677 63.0323 77.8869 59.9788 74.3562 58.4594Z" fill="#312725"/>
<path d="M60.4693 70.5655C60.4117 71.1448 60.5855 71.7234 60.953 72.1752C61.3204 72.6269 61.8517 72.9151 62.4309 72.9769C62.7176 72.9983 63.0057 72.9628 63.2787 72.8725C63.5516 72.7822 63.804 72.6389 64.0214 72.4508C64.2388 72.2627 64.4168 72.0335 64.5453 71.7764C64.6737 71.5193 64.7501 71.2394 64.77 70.9527C64.8276 70.3734 64.6538 69.7948 64.2863 69.343C63.9189 68.8913 63.3877 68.6031 62.8085 68.5413C62.5216 68.5193 62.2332 68.5543 61.96 68.6443C61.6867 68.7344 61.4341 68.8776 61.2166 69.0659C60.9991 69.2541 60.821 69.4835 60.6928 69.7409C60.5645 69.9983 60.4886 70.2786 60.4693 70.5655Z" fill="#B55B52"/>
<path d="M63.3081 71.3546C63.3081 71.3546 63.4455 69.747 61.9302 69.8842" stroke="#312725" stroke-width="0.6" stroke-linecap="round" stroke-linejoin="round"/>
<path d="M62.9551 81.2061L72.8019 81.8531C72.8019 81.8531 73.1158 85.2447 68.7367 85.0095C63.8083 84.7448 62.9551 81.2061 62.9551 81.2061Z" fill="#B55B52"/>
<path d="M268.846 163.243L259.142 158.719L262.643 153.269L273.196 158.391L270.102 162.709L268.846 163.243Z" fill="#B55B52"/>
<path d="M270.788 156.279C270.788 156.279 269.459 162.219 264.83 162.101L263.692 176.163L276.511 158.293L270.788 156.279Z" fill="#181F42"/>
<path d="M266.576 177.048L279.338 159.234L277.654 158.029L264.892 175.843L266.576 177.048Z" fill="white"/>
<path d="M264.683 163.939C265.536 163.669 266.427 163.538 267.321 163.552" stroke="white" stroke-width="1.55" stroke-linecap="round" stroke-linejoin="round"/>
<path d="M264.379 166.008C265.233 165.734 266.126 165.602 267.022 165.616" stroke="white" stroke-width="1.55" stroke-linecap="round" stroke-linejoin="round"/>
<path d="M264.08 168.071C264.932 167.798 265.823 167.665 266.718 167.679" stroke="white" stroke-width="1.55" stroke-linecap="round" stroke-linejoin="round"/>
<path d="M246.318 104.178C246.318 104.178 239.978 127.837 239.041 132.503C238.105 137.169 236.241 146.496 240.164 149.853C244.087 153.21 259.142 161.268 259.142 161.268L264.683 151.328L255.709 145.937L246.318 104.178Z" fill="#143F66"/>
<path d="M254.871 179.413L252.895 168.89L259.368 168.561L261.349 180.118H256.038L254.871 179.413Z" fill="#B55B52"/>
<path d="M261.667 176.933C261.667 176.933 256.057 179.31 253.458 175.462L241.36 182.731H263.359L261.667 176.933Z" fill="#181F42"/>
<path d="M241.355 184.833H263.359V182.755H241.355V184.833Z" fill="white"/>
<path d="M251.875 176.433C252.591 176.968 253.217 177.615 253.728 178.349" stroke="white" stroke-width="1.55" stroke-linecap="round" stroke-linejoin="round"/>
<path d="M250.021 177.393C250.739 177.927 251.365 178.574 251.874 179.31" stroke="white" stroke-width="1.55" stroke-linecap="round" stroke-linejoin="round"/>
<path d="M248.167 178.349C248.884 178.886 249.51 179.534 250.021 180.27" stroke="white" stroke-width="1.55" stroke-linecap="round" stroke-linejoin="round"/>
<path d="M246.318 104.178L245.681 139.869C245.657 141.149 245.759 142.428 245.985 143.687L251.291 171.213H262.388L259.294 140.168C259.421 134.463 261.319 128.067 262.03 121.107C262.03 121.107 264.202 108.188 258.239 104.247L246.318 104.178Z" fill="#184E7F"/>
<path d="M239.213 99.2819L221.069 92.6456L218.955 96.1745L236.648 105.546C237.318 105.802 238.045 105.875 238.753 105.758C239.461 105.64 240.125 105.337 240.677 104.879C241.229 104.42 241.65 103.823 241.895 103.149C242.14 102.474 242.201 101.747 242.072 101.041C241.812 99.6054 240.576 99.7672 239.213 99.2819Z" fill="#B55B52"/>
<path d="M218.833 89.95C218.674 89.7813 218.473 89.6566 218.252 89.588C218.03 89.5193 217.795 89.5089 217.568 89.5579C217.435 89.5821 217.311 89.6392 217.207 89.7239C217.102 89.8085 217.02 89.918 216.969 90.0424C216.918 90.1668 216.899 90.302 216.913 90.4357C216.928 90.5694 216.976 90.6973 217.053 90.8077L217.318 91.239C216.734 91.4595 215.533 91.5184 213.331 89.2785C213.16 89.0965 212.933 88.9776 212.687 88.9411C212.44 88.9046 212.188 88.9527 211.972 89.0775C211.832 89.1742 211.733 89.32 211.695 89.486C211.657 89.652 211.682 89.8263 211.766 89.9745C211.773 89.9901 211.781 90.005 211.791 90.0186C211.647 89.9636 211.492 89.9434 211.339 89.9596C211.185 89.9758 211.038 90.0279 210.908 90.1117C210.769 90.2083 210.671 90.3531 210.633 90.518C210.595 90.6829 210.62 90.856 210.702 91.0037C210.725 91.0483 210.751 91.0909 210.781 91.1312C210.632 91.1426 210.489 91.1915 210.364 91.2733C210.225 91.3699 210.127 91.5147 210.089 91.6796C210.051 91.8445 210.075 92.0176 210.158 92.1653C210.206 92.2627 210.269 92.352 210.344 92.43L210.433 92.5133H210.393C210.253 92.61 210.154 92.7557 210.116 92.9218C210.078 93.0878 210.103 93.2621 210.187 93.4102C210.236 93.5061 210.298 93.5938 210.374 93.67C210.927 94.2338 211.529 94.7472 212.173 95.2041H212.198C212.467 95.3823 212.745 95.5459 213.032 95.6942C214.302 96.4294 217.023 95.8119 219.362 96.1844L221.187 92.7535L218.833 89.95Z" fill="#B55B52"/>
<path d="M212.407 102.302L221.181 82.2681L201.137 73.4987L192.363 93.5329L212.407 102.302Z" fill="#FFCD2E"/>
<path d="M219.132 90.3175L217.352 88.2443C217.284 88.1648 217.201 88.101 217.106 88.0572C217.012 88.0134 216.909 87.9907 216.805 87.9907C216.701 87.9907 216.598 88.0134 216.503 88.0572C216.409 88.101 216.325 88.1648 216.258 88.2443C216.163 88.3523 216.103 88.4862 216.086 88.6287C216.068 88.7711 216.094 88.9156 216.16 89.0432L217.052 90.8077C216.848 91.5847 216.837 92.4001 217.022 93.1822C217.207 93.9642 217.581 94.6888 218.112 95.2923L219.132 90.3175Z" fill="#B55B52"/>
<path d="M247.26 99.6642L240.65 104.938C239.999 105.457 239.203 105.763 238.372 105.813C237.541 105.863 236.714 105.655 236.006 105.217C233.961 103.958 232.71 102.796 234.187 100.894L241.444 93.5426L247.26 99.6642Z" fill="#B55B52"/>
<path d="M252.374 93.3514C252.374 93.3514 251.497 97.6841 246.284 101.615L238.251 94.0327L244.754 86.7935L252.374 93.3514Z" fill="#7F9913"/>
<path d="M264.918 99.0761L278.889 116.691L282.052 114.598C282.052 114.598 274.035 99.6789 270.308 94.9933C269.862 94.4276 269.274 93.9911 268.603 93.7291C267.932 93.467 267.203 93.389 266.492 93.5029C265.781 93.6169 265.113 93.9188 264.558 94.3773C264.003 94.8358 263.581 95.4343 263.334 96.1108C262.844 97.4685 263.987 97.9684 264.918 99.0761Z" fill="#B55B52"/>
<path d="M279.566 120.235C279.623 120.454 279.736 120.654 279.893 120.816C280.05 120.978 280.247 121.097 280.464 121.161C280.588 121.201 280.721 121.209 280.85 121.185C280.978 121.161 281.099 121.105 281.2 121.022C281.302 120.939 281.381 120.832 281.43 120.711C281.48 120.59 281.498 120.458 281.484 120.328V119.838C282.087 119.916 283.136 120.426 283.985 123.347C284.047 123.581 284.187 123.787 284.381 123.932C284.575 124.077 284.812 124.152 285.054 124.146C285.218 124.129 285.37 124.051 285.48 123.928C285.589 123.804 285.649 123.644 285.647 123.479C285.647 123.479 285.647 123.445 285.647 123.43C285.746 123.543 285.87 123.63 286.008 123.687C286.147 123.744 286.297 123.769 286.446 123.759C286.611 123.742 286.762 123.664 286.872 123.541C286.982 123.417 287.042 123.257 287.04 123.092C287.04 123.048 287.04 122.999 287.04 122.95C287.169 123.011 287.314 123.035 287.456 123.019C287.621 123.003 287.774 122.925 287.884 122.802C287.994 122.678 288.053 122.518 288.05 122.352C288.053 122.248 288.04 122.144 288.011 122.043C288.011 122.004 288.011 121.97 287.976 121.931H288.02C288.185 121.914 288.337 121.836 288.446 121.712C288.556 121.589 288.616 121.429 288.614 121.264C288.617 121.158 288.604 121.052 288.575 120.95C288.365 120.213 288.089 119.496 287.751 118.809V118.779C287.603 118.497 287.439 118.224 287.26 117.961C286.515 116.74 283.901 116 282.082 114.593L278.919 116.686L279.566 120.235Z" fill="#B55B52"/>
<path d="M262.844 88.2198L269.219 93.7925C269.846 94.341 270.287 95.0697 270.483 95.8787C270.679 96.6878 270.619 97.5375 270.313 98.3115C269.43 100.546 268.503 101.983 266.39 100.865L257.867 95.0178L262.844 88.2198Z" fill="#B55B52"/>
<path d="M254.65 84.3282C258.477 84.6309 262.087 86.2243 264.889 88.8472L260.559 96.895L252.051 93.9543L254.65 84.3282Z" fill="#A6CC17"/>
<path d="M247.76 84.8085C247.76 84.8085 242.474 86.2789 242.459 93.3514C242.459 97.2136 246.318 104.178 246.318 104.178L258.249 104.247C258.249 104.247 260 99.3898 261.049 94.9982C262.099 90.6067 258.74 86.4357 254.65 84.3282L247.76 84.8085Z" fill="#A6CC17"/>
<path d="M260.559 96.895L255.881 93.5426L259.49 100.527L260.559 96.895Z" fill="#7F9913"/>
<path d="M250.766 87.0778C252.423 86.8327 253.007 85.7251 252.762 84.0684L250.923 74.609L245.931 75.4079L247.323 84.5488C247.447 85.3393 247.878 86.0489 248.523 86.5227C249.168 86.9966 249.974 87.1961 250.766 87.0778Z" fill="#B55B52"/>
<path d="M249.781 76.4666C249.781 76.4666 251.399 81.5198 247.108 83.2352L246.711 80.221L251.124 76.8881" fill="#32292A"/>
<path d="M246.083 80.8728C249.197 80.5738 251.511 78.084 251.247 75.3001L250.383 66.1985H245.132C243.195 66.3798 240.532 68.9481 240.694 70.6782L241.611 76.3294C241.802 78.3634 243.459 81.1179 246.083 80.8728Z" fill="#B55B52"/>
<path d="M241.851 73.0406L240.66 76.0794C240.618 76.1523 240.598 76.2354 240.601 76.3193C240.605 76.4031 240.632 76.4842 240.68 76.5533C240.727 76.6224 240.794 76.6767 240.871 76.7099C240.948 76.7431 241.033 76.7539 241.116 76.7411L243.17 76.5499L241.851 73.0406Z" fill="#B55B52"/>
<path d="M242.901 71.6242C242.901 71.6242 241.778 71.6536 241.817 72.1143C241.817 72.1143 241.856 72.428 242.832 72.3839C243.808 72.3397 244.048 72.2319 244.107 71.928C244.166 71.6242 243.42 71.5702 242.901 71.6242Z" fill="#312725"/>
<path d="M242.959 73.8297C242.976 73.9547 242.945 74.0816 242.871 74.1838C242.797 74.2861 242.686 74.3559 242.562 74.3787C242.466 74.3963 242.366 74.3848 242.276 74.3455C242.187 74.3062 242.111 74.241 242.059 74.1583C242.006 74.0755 241.98 73.979 241.983 73.8812C241.986 73.7833 242.019 73.6887 242.076 73.6094C242.133 73.5301 242.213 73.4698 242.305 73.4362C242.397 73.4026 242.497 73.3974 242.592 73.4211C242.687 73.4448 242.773 73.4964 242.838 73.5692C242.904 73.642 242.946 73.7328 242.959 73.8297Z" fill="#312725"/>
<path d="M242.602 77.3782C242.861 77.3564 243.108 77.2582 243.311 77.0959C243.515 76.9336 243.665 76.7146 243.744 76.4666" stroke="#312725" stroke-width="0.6" stroke-linecap="round" stroke-linejoin="round"/>
<path d="M251.266 83.7891L254.65 84.3282C254.65 84.3282 251.1 90.0823 247.603 88.7001C243.567 87.1121 248.918 84.088 248.918 84.088L251.266 83.7891Z" fill="#B55B52"/>
<path d="M249.85 73.4572C249.091 73.2622 248.399 72.8667 247.846 72.3122C247.292 71.7577 246.899 71.0646 246.706 70.3057L239.718 71.6683C239.718 71.6683 238.635 64.7085 247 63.3949C251.193 62.7382 253.866 64.7673 255.288 66.7915C255.934 67.7562 256.323 68.87 256.418 70.0273C256.512 71.1846 256.309 72.3467 255.827 73.4033C254.908 75.3458 253.425 76.9666 251.571 78.0546L250.923 74.609C250.923 74.609 250.32 73.5749 249.85 73.4572Z" fill="#32292A"/>
<path d="M253.203 72.9524C253.206 73.54 252.976 74.1048 252.563 74.5235C252.151 74.9423 251.589 75.1809 251.001 75.1874C250.711 75.1816 250.426 75.1187 250.16 75.0021C249.895 74.8855 249.655 74.7176 249.455 74.508C249.255 74.2984 249.099 74.0513 248.994 73.781C248.89 73.5106 248.841 73.2224 248.848 72.9328C248.848 72.647 248.905 72.364 249.014 72.1C249.124 71.836 249.284 71.5961 249.486 71.394C249.688 71.1919 249.928 71.0316 250.193 70.9223C250.457 70.8129 250.74 70.7566 251.026 70.7566C251.312 70.7566 251.595 70.8129 251.859 70.9223C252.123 71.0316 252.363 71.1919 252.565 71.394C252.768 71.5961 252.928 71.836 253.037 72.1C253.147 72.364 253.203 72.647 253.203 72.9328V72.9524Z" fill="#B55B52"/>
<path d="M250.276 73.4768C250.276 73.4768 250.276 71.8496 251.796 72.1143" stroke="#312725" stroke-width="0.6" stroke-linecap="round" stroke-linejoin="round"/>
<path d="M264.315 64.0321C264.494 65.0912 264.355 66.1795 263.915 67.1595C263.475 68.1395 262.754 68.9671 261.844 69.5376C260.933 70.1082 259.874 70.3961 258.8 70.3649C257.725 70.3337 256.685 69.9848 255.809 69.3624C254.933 68.74 254.261 67.872 253.879 66.8681C253.497 65.8643 253.421 64.7697 253.661 63.7228C253.902 62.6759 254.447 61.7237 255.229 60.9866C256.01 60.2495 256.993 59.7606 258.053 59.5818C259.474 59.342 260.932 59.6761 262.106 60.5107C263.28 61.3453 264.075 62.612 264.315 64.0321Z" fill="#32292A"/>
<path d="M312 185H0" stroke="#281F27" stroke-width="0.76" stroke-miterlimit="10"/>
</g>
<defs>
<clipPath id="clip0_227_2161">
<rect width="312" height="185" fill="white"/>
</clipPath>
</defs>
</svg>
