<svg width="176" height="170" viewBox="0 0 176 170" fill="none" xmlns="http://www.w3.org/2000/svg">
<g clip-path="url(#clip0_224_3275)">
<g filter="url(#filter0_d_224_3275)">
<path d="M157.691 151.999C154.509 152.019 151.41 153.011 148.809 154.842C143.621 146.721 135.524 141.494 126.419 141.494C124.334 141.494 122.259 141.772 120.249 142.323C117.573 135.602 113.107 129.74 107.334 125.374C107.334 125.233 107.334 125.093 107.334 124.953C107.336 121.71 106.593 118.509 105.161 115.598C103.73 112.687 101.648 110.143 99.0771 108.163C99.9966 105.502 100.071 102.621 99.2896 99.9162C98.5084 97.211 96.9099 94.8129 94.7126 93.0497C95.3618 91.6119 95.6401 90.0345 95.522 88.4617C95.4039 86.8888 94.8932 85.3706 94.0365 84.0456C93.1798 82.7207 92.0044 81.6314 90.6178 80.8771C89.2312 80.1227 87.6774 79.7275 86.0985 79.7275C84.5196 79.7275 82.9659 80.1227 81.5792 80.8771C80.1926 81.6314 79.0172 82.7207 78.1605 84.0456C77.3039 85.3706 76.7931 86.8888 76.675 88.4617C76.5569 90.0345 76.8352 91.6119 77.4844 93.0497C75.2798 94.8131 73.6755 97.2149 72.8918 99.9255C72.108 102.636 72.1833 105.522 73.1072 108.189C70.5361 110.169 68.4545 112.713 67.0229 115.624C65.5914 118.535 64.8481 121.735 64.8504 124.978C64.8531 126.123 64.9469 127.265 65.1312 128.395C61.0796 132.344 57.8865 137.086 55.7514 142.323C53.741 141.772 51.6657 141.494 49.5812 141.494C40.4757 141.494 32.353 146.721 27.1909 154.842C24.5899 153.011 21.4905 152.019 18.3088 151.999C9.43313 151.999 2.0633 159.757 0.5 170H175.5C173.937 159.757 166.567 151.999 157.691 151.999Z" fill="white"/>
<path d="M174.911 169.5H1.08874C2.80897 159.713 9.91525 152.5 18.3069 152.499C21.3862 152.519 24.3858 153.479 26.9031 155.251L27.3317 155.552L27.6129 155.11C32.7021 147.104 40.6793 141.994 49.5812 141.994H49.5813C51.6212 141.994 53.652 142.267 55.6194 142.805L56.047 142.922L56.2144 142.512C58.3236 137.338 61.4778 132.654 65.4802 128.753L65.6666 128.571L65.6247 128.315C65.4447 127.211 65.353 126.096 65.3504 124.978L174.911 169.5ZM174.911 169.5C173.191 159.713 166.085 152.5 157.693 152.499C154.614 152.519 151.614 153.479 149.097 155.251L148.669 155.552L148.388 155.111C143.272 147.103 135.32 141.994 126.419 141.994C124.379 141.994 122.348 142.267 120.381 142.805L119.949 142.923L119.784 142.508C117.142 135.871 112.732 130.084 107.032 125.772L106.834 125.622V125.374V125.373V125.372V125.371V125.37V125.37V125.369V125.368V125.367V125.366V125.365V125.365V125.364V125.363V125.362V125.361V125.361V125.36V125.359V125.358V125.357V125.356V125.356V125.355V125.354V125.353V125.352V125.351V125.351V125.35V125.349V125.348V125.347V125.347V125.346V125.345V125.344V125.343V125.342V125.342V125.341V125.34V125.339V125.338V125.337V125.337V125.336V125.335V125.334V125.333V125.333V125.332V125.331V125.33V125.329V125.328V125.328V125.327V125.326V125.325V125.324V125.324V125.323V125.322V125.321V125.32V125.319V125.319V125.318V125.317V125.316V125.315V125.314V125.314V125.313V125.312V125.311V125.31V125.31V125.309V125.308V125.307V125.306V125.305V125.305V125.304V125.303V125.302V125.301V125.301V125.3V125.299V125.298V125.297V125.296V125.296V125.295V125.294V125.293V125.292V125.291V125.291V125.29V125.289V125.288V125.287V125.287V125.286V125.285V125.284V125.283V125.282V125.282V125.281V125.28V125.279V125.278V125.278V125.277V125.276V125.275V125.274V125.273V125.273V125.272V125.271V125.27V125.269V125.268V125.268V125.267V125.266V125.265V125.264V125.264V125.263V125.262V125.261V125.26V125.259V125.259V125.258V125.257V125.256V125.255V125.255V125.254V125.253V125.252V125.251V125.25V125.25V125.249V125.248V125.247V125.246V125.245V125.245V125.244V125.243V125.242V125.241V125.241V125.24V125.239V125.238V125.237V125.236V125.236V125.235V125.234V125.233V125.232V125.231V125.231V125.23V125.229V125.228V125.227V125.227V125.226V125.225V125.224V125.223V125.222V125.222V125.221V125.22V125.219V125.218V125.218V125.217V125.216V125.215V125.214V125.213V125.213V125.212V125.211V125.21V125.209V125.208V125.208V125.207V125.206V125.205V125.204V125.204V125.203V125.202V125.201V125.2V125.199V125.199V125.198V125.197V125.196V125.195V125.195V125.194V125.193V125.192V125.191V125.19V125.19V125.189V125.188V125.187V125.186V125.185V125.185V125.184V125.183V125.182V125.181V125.181V125.18V125.179V125.178V125.177V125.176V125.176V125.175V125.174V125.173V125.172V125.172V125.171V125.17V125.169V125.168V125.167V125.167V125.166V125.165V125.164V125.163V125.162V125.162V125.161V125.16V125.159V125.158V125.158V125.157V125.156V125.155V125.154V125.153V125.153V125.152V125.151V125.15V125.149V125.149V125.148V125.147V125.146V125.145V125.144V125.144V125.143V125.142V125.141V125.14V125.139V125.139V125.138V125.137V125.136V125.135V125.135V125.134V125.133V125.132V125.131V125.13V125.13V125.129V125.128V125.127V125.126V125.125V125.125V125.124V125.123V125.122V125.121V125.121V125.12V125.119V125.118V125.117V125.116V125.116V125.115V125.114V125.113V125.112V125.112V125.111V125.11V125.109V125.108V125.107V125.107V125.106V125.105V125.104V125.103V125.102V125.102V125.101V125.1V125.099V125.098V125.098V125.097V125.096V125.095V125.094V125.093V125.093V125.092V125.091V125.09V125.089V125.089V125.088V125.087V125.086V125.085V125.084V125.084V125.083V125.082V125.081V125.08V125.079V125.079V125.078V125.077V125.076V125.075V125.075V125.074V125.073V125.072V125.071V125.07V125.07V125.069V125.068V125.067V125.066V125.066V125.065V125.064V125.063V125.062V125.061V125.061V125.06V125.059V125.058V125.057V125.056V125.056V125.055V125.054V125.053V125.052V125.052V125.051V125.05V125.049V125.048V125.047V125.047V125.046V125.045V125.044V125.043V125.043V125.042V125.041V125.04V125.039V125.038V125.038V125.037V125.036V125.035V125.034V125.033V125.033V125.032V125.031V125.03V125.029V125.029V125.028V125.027V125.026V125.025V125.024V125.024V125.023V125.022V125.021V125.02V125.02V125.019V125.018V125.017V125.016V125.015V125.015V125.014V125.013V125.012V125.011V125.01V125.01V125.009V125.008V125.007V125.006V125.006V125.005V125.004V125.003V125.002V125.001V125.001V125V124.999V124.998V124.997V124.996V124.996V124.995V124.994V124.993V124.992V124.992V124.991V124.99V124.989V124.988V124.987V124.987V124.986V124.985V124.984V124.983V124.983V124.982V124.981V124.98V124.979V124.978V124.978V124.977V124.976V124.975V124.974V124.973V124.973V124.972V124.971V124.97V124.969V124.969V124.968V124.967V124.966V124.965V124.964V124.964V124.963V124.962V124.961V124.96V124.96V124.959V124.958V124.957V124.956V124.955V124.955V124.954V124.953V124.953C106.836 121.786 106.11 118.661 104.713 115.819C103.315 112.977 101.282 110.493 98.772 108.559L98.4871 108.34L98.6045 108C99.4903 105.436 99.5619 102.661 98.8092 100.055C98.0566 97.4488 96.5166 95.1384 94.3997 93.4396L94.0974 93.1971L94.2569 92.8439C94.8717 91.4823 95.1353 89.9886 95.0234 88.4991C94.9116 87.0096 94.4279 85.5719 93.6166 84.3171C92.8053 83.0624 91.6922 82.0307 90.3789 81.3163C89.0656 80.6019 87.594 80.2275 86.0985 80.2275C84.6031 80.2275 83.1315 80.6019 81.8182 81.3163C80.5049 82.0307 79.3917 83.0624 78.5804 84.3171C77.7691 85.5719 77.2855 87.0096 77.1736 88.4991C77.0618 89.9886 77.3253 91.4823 77.9401 92.8439L78.0999 93.1977L77.7967 93.4401C75.6727 95.1391 74.1271 97.453 73.3721 100.064C72.6171 102.676 72.6896 105.456 73.5796 108.025L73.6975 108.365L73.4123 108.585C70.9018 110.518 68.8693 113.002 67.4716 115.844C66.074 118.686 65.3483 121.811 65.3504 124.977L174.911 169.5Z" stroke="#BED7F3"/>
</g>
<path opacity="0.2" d="M42.1156 170C43.8054 167.197 46.0797 164.79 48.7839 162.943C51.4881 161.096 54.5587 159.853 57.7869 159.298C59.1269 152.49 66.0819 147.282 73.0242 147.932C71.6463 144.518 71.3133 140.771 72.0675 137.168C72.8217 133.564 74.6292 130.265 77.2611 127.688C76.3664 124.513 76.4726 121.139 77.5652 118.027C78.6578 114.914 80.6838 112.213 83.3675 110.292C80.3366 104.868 82.2828 97.2376 87.5342 93.9102C84.7585 89.5438 85.62 84.6356 85.8943 79.7529C84.3321 79.7794 82.8009 80.1932 81.4384 80.9571C80.0759 81.721 78.9248 82.8112 78.0884 84.1296C77.252 85.448 76.7566 86.9533 76.6467 88.5103C76.5369 90.0673 76.8159 91.6271 77.4589 93.0497C75.2543 94.8131 73.65 97.2149 72.8662 99.9255C72.0825 102.636 72.1578 105.522 73.0817 108.189C70.5105 110.169 68.4289 112.713 66.9974 115.624C65.5659 118.535 64.8226 121.735 64.8249 124.978C64.8275 126.123 64.9214 127.265 65.1057 128.395C61.0633 132.347 57.879 137.088 55.7514 142.323C53.741 141.772 51.6657 141.494 49.5812 141.494C40.4757 141.494 32.353 146.721 27.1909 154.842C24.5899 153.011 21.4905 152.019 18.3088 151.999C9.43313 151.999 2.0633 159.757 0.5 170H42.1156Z" fill="url(#paint0_linear_224_3275)"/>
<path d="M115.355 53.9371C116.331 57.8382 115.189 61.9241 114.078 65.7869L107.245 89.1359C106.881 90.3661 106.275 91.8131 105.005 91.9788C103.237 92.2083 102.421 89.8498 102.389 88.0714C102.335 85.0962 102.654 82.126 103.34 79.2302C103.642 78.3532 103.704 77.411 103.518 76.502C103.181 75.6878 102.611 74.9913 101.878 74.5005C99.1805 72.3353 96.1541 70.6139 92.9133 69.4011C93.6854 64.6459 94.2405 52.4136 98.1839 49.1564C100.455 47.2441 114.672 51.228 115.355 53.9371Z" fill="#1F61A9"/>
<path opacity="0.4" d="M98.1582 49.1436C95.976 50.9476 94.8338 55.5179 94.1128 59.9799C95.389 63.8682 96.9905 68.4131 98.2093 71.9381C99.4692 72.6893 100.676 73.5263 101.821 74.4432L112.726 51.7571C108.336 49.609 99.8874 47.7158 98.1582 49.1436Z" fill="url(#paint1_linear_224_3275)"/>
<path d="M56.7339 54.804C55.8789 58.7369 57.1359 62.7846 58.3866 66.6092C60.8964 74.322 63.4061 82.0328 65.9159 89.7414C66.3115 90.9589 66.9624 92.3931 68.2385 92.5206C70.006 92.6991 70.7909 90.3151 70.7398 88.5367C70.7017 85.5611 70.2923 82.6018 69.5211 79.7274C69.1949 78.8591 69.1046 77.9201 69.2595 77.0056C69.5715 76.1833 70.1198 75.4715 70.8355 74.9595C73.4626 72.717 76.428 70.9035 79.6219 69.586C78.7031 64.8562 77.7842 52.6431 73.7452 49.507C71.4226 47.6776 57.3337 52.0822 56.7339 54.804Z" fill="#1F61A9"/>
<path opacity="0.4" d="M79.0859 66.0929C78.2564 60.4452 77.0249 52.0312 73.7707 49.5197C73.0114 48.9269 71.0269 48.9907 68.666 49.4369L60.6262 73.5253L63.1785 81.4549C65.4246 81.5505 67.9833 81.6142 69.9103 81.5441C69.7827 80.9449 69.6487 80.3457 69.4892 79.7466C69.1629 78.8783 69.0727 77.9392 69.2275 77.0247C69.5396 76.2024 70.0879 75.4906 70.8036 74.9786C72.7367 73.3282 74.8569 71.9098 77.1206 70.7524C77.797 69.2099 78.4542 67.6354 79.0859 66.0929Z" fill="url(#paint2_linear_224_3275)"/>
<path d="M93.2017 4.32284L93.2017 4.32285L93.2041 4.32817C104.092 28.399 105.455 57.082 95.2507 81.3686C92.7082 81.2354 90.0701 81.4142 87.4603 81.5911C87.1922 81.6093 86.9244 81.6274 86.657 81.6452C83.7414 81.8392 80.8709 81.9911 78.1361 81.6898C66.0627 58.5495 67.5346 25.5533 81.6817 3.66044L81.6817 3.66046L81.685 3.65525C82.3938 2.52814 83.4208 1.63582 84.6367 1.09084C85.8513 0.546384 87.2001 0.372975 88.5131 0.59241L88.7413 0.634407C89.7199 0.858027 90.6326 1.30722 91.4064 1.94611L91.7248 1.56054L91.4064 1.94611C92.1828 2.58713 92.7977 3.40122 93.2017 4.32284Z" fill="white" stroke="#7CAFE7"/>
<path d="M80.5857 50.1317C73.42 22.6776 80.3624 8.43112 85.0522 0.412277C83.5047 0.969158 82.1838 2.01982 81.294 3.40181C67.0009 25.5206 65.5589 58.858 77.8483 82.1688C80.5061 82.4316 83.1825 82.4486 85.8435 82.2198C84.9055 74.3603 84.1334 63.728 80.5857 50.1317Z" fill="url(#paint3_linear_224_3275)"/>
<path d="M86.1177 58.6286L83.5653 53.5291L75.6404 77.5857C76.2785 79.141 77.0314 80.6708 77.8162 82.156C80.5744 82.4215 83.3512 82.4322 86.1113 82.1879L86.1177 58.6286Z" fill="url(#paint4_linear_224_3275)"/>
<path d="M86.0029 13.6835C87.6117 13.6598 89.1914 14.1131 90.5424 14.9862C91.8933 15.8592 92.9547 17.1129 93.5924 18.5886C94.2302 20.0643 94.4155 21.6957 94.1252 23.2767C93.8348 24.8576 93.0816 26.317 91.961 27.4704C90.8404 28.6237 89.4025 29.4193 87.8293 29.7563C86.2561 30.0934 84.6182 29.9569 83.1227 29.3641C81.6271 28.7713 80.3411 27.7487 79.4273 26.4258C78.5134 25.1029 78.0128 23.539 77.9886 21.9318C77.9579 19.7768 78.7847 17.6977 80.2874 16.1511C81.79 14.6046 83.8457 13.7171 86.0029 13.6835Z" fill="url(#paint5_linear_224_3275)"/>
<path d="M86.7365 12.9824C88.3453 12.9586 89.925 13.4119 91.2759 14.285C92.6269 15.1581 93.6883 16.4117 94.326 17.8874C94.9637 19.3631 95.1491 20.9946 94.8587 22.5755C94.5684 24.1564 93.8152 25.6158 92.6946 26.7692C91.5739 27.9226 90.1361 28.7181 88.5629 29.0552C86.9897 29.3922 85.3518 29.2557 83.8562 28.6629C82.3607 28.0701 81.0747 27.0476 80.1609 25.7247C79.247 24.4017 78.7464 22.8378 78.7222 21.2307C78.7053 20.1631 78.8993 19.1028 79.2931 18.1102C79.6869 17.1177 80.2728 16.2124 81.0172 15.4463C81.7615 14.6802 82.6498 14.0682 83.6312 13.6454C84.6126 13.2226 85.6678 12.9973 86.7365 12.9824Z" fill="#1F61A9"/>
<path d="M86.7558 14.3974C88.085 14.3761 89.3907 14.7492 90.5076 15.4694C91.6244 16.1897 92.5024 17.2247 93.0302 18.4435C93.5581 19.6623 93.7121 21.0102 93.4729 22.3165C93.2337 23.6229 92.612 24.8289 91.6864 25.7822C90.7608 26.7354 89.5729 27.3929 88.2731 27.6715C86.9733 27.9501 85.62 27.8372 84.3845 27.3472C83.1489 26.8572 82.0866 26.0121 81.332 24.9187C80.5774 23.8254 80.1644 22.533 80.1453 21.2052C80.1318 20.3245 80.2921 19.4499 80.617 18.6311C80.9419 17.8124 81.4251 17.0656 82.039 16.4334C82.6528 15.8012 83.3853 15.296 84.1947 14.9467C85.004 14.5974 85.8743 14.4107 86.7558 14.3974Z" fill="#A6CC17"/>
<path d="M102.593 48.9142L92.6646 81.8309C93.1048 81.8309 93.5387 81.8309 93.979 81.8309H94.2023C94.6617 81.8309 95.1148 81.831 95.5678 81.8883C99.9509 71.4191 102.346 60.2267 102.631 48.8823L102.593 48.9142Z" fill="url(#paint6_linear_224_3275)"/>
<path d="M90.5075 13.8493C89.2313 17.4507 86.8258 24.182 85.2114 29.0583C85.792 29.1836 86.3851 29.2414 86.9789 29.2304C88.8 29.2054 90.5598 28.5702 91.9764 27.4268C93.3929 26.2833 94.3841 24.6978 94.7909 22.9244C95.1978 21.151 94.9967 19.2925 94.22 17.6469C93.4433 16.0014 92.1359 14.664 90.5075 13.8493Z" fill="url(#paint7_linear_224_3275)"/>
<path d="M84.1395 89.0658L84.7776 94.758C84.8407 95.3067 85.1053 95.8124 85.5202 96.1775C85.9351 96.5425 86.4708 96.7408 87.0236 96.734C87.5847 96.7256 88.1221 96.5065 88.5288 96.1203C88.9355 95.734 89.1818 95.209 89.2186 94.6496L91.6497 57.2135C91.6999 56.4598 91.5965 55.7038 91.3458 54.9911C91.095 54.2785 90.7022 53.6241 90.191 53.0676C89.6798 52.511 89.0609 52.0638 88.3717 51.7531C87.6825 51.4424 86.9373 51.2746 86.1813 51.2599C85.3829 51.2439 84.5903 51.3986 83.8566 51.7136C83.1229 52.0287 82.4651 52.4967 81.9273 53.0865C81.3896 53.6762 80.9842 54.374 80.7384 55.1331C80.4927 55.8921 80.4122 56.6949 80.5024 57.4876L81.2745 64.2252" fill="#1F61A9"/>
</g>
<defs>
<filter id="filter0_d_224_3275" x="-0.5" y="77.7275" width="177" height="92.2724" filterUnits="userSpaceOnUse" color-interpolation-filters="sRGB">
<feFlood flood-opacity="0" result="BackgroundImageFix"/>
<feColorMatrix in="SourceAlpha" type="matrix" values="0 0 0 0 0 0 0 0 0 0 0 0 0 0 0 0 0 0 127 0" result="hardAlpha"/>
<feOffset dy="-1"/>
<feGaussianBlur stdDeviation="0.5"/>
<feComposite in2="hardAlpha" operator="out"/>
<feColorMatrix type="matrix" values="0 0 0 0 0 0 0 0 0 0 0 0 0 0 0 0 0 0 0.25 0"/>
<feBlend mode="normal" in2="BackgroundImageFix" result="effect1_dropShadow_224_3275"/>
<feBlend mode="normal" in="SourceGraphic" in2="effect1_dropShadow_224_3275" result="shape"/>
</filter>
<linearGradient id="paint0_linear_224_3275" x1="40.4438" y1="123.398" x2="80.8924" y2="145.137" gradientUnits="userSpaceOnUse">
<stop stop-color="#1762FF" stop-opacity="0.89"/>
<stop offset="1" stop-color="#1B61FC" stop-opacity="0"/>
</linearGradient>
<linearGradient id="paint1_linear_224_3275" x1="112.981" y1="53.8606" x2="81.5091" y2="73.1332" gradientUnits="userSpaceOnUse">
<stop stop-color="#17057E" stop-opacity="0.89"/>
<stop offset="0.97" stop-color="#5558D0" stop-opacity="0.03"/>
<stop offset="1" stop-color="#5558D0" stop-opacity="0"/>
</linearGradient>
<linearGradient id="paint2_linear_224_3275" x1="75.8955" y1="61.2866" x2="49.9728" y2="77.8009" gradientUnits="userSpaceOnUse">
<stop stop-color="#17057E" stop-opacity="0.89"/>
<stop offset="0.97" stop-color="#5558D0" stop-opacity="0.03"/>
<stop offset="1" stop-color="#5558D0" stop-opacity="0"/>
</linearGradient>
<linearGradient id="paint3_linear_224_3275" x1="42.7411" y1="50.1317" x2="99.0406" y2="38.4566" gradientUnits="userSpaceOnUse">
<stop stop-color="#8CBDFF"/>
<stop offset="1" stop-color="#83B8FF" stop-opacity="0"/>
</linearGradient>
<linearGradient id="paint4_linear_224_3275" x1="91.9944" y1="60.152" x2="70.0558" y2="83.8357" gradientUnits="userSpaceOnUse">
<stop stop-color="#8CBDFF"/>
<stop offset="1" stop-color="#83B8FF" stop-opacity="0"/>
</linearGradient>
<linearGradient id="paint5_linear_224_3275" x1="73.2604" y1="29.0264" x2="90.8054" y2="19.1692" gradientUnits="userSpaceOnUse">
<stop stop-color="#8CBDFF"/>
<stop offset="1" stop-color="#83B8FF" stop-opacity="0"/>
</linearGradient>
<linearGradient id="paint6_linear_224_3275" x1="109.204" y1="66.214" x2="86.0479" y2="64.4894" gradientUnits="userSpaceOnUse">
<stop stop-color="#8CBDFF"/>
<stop offset="1" stop-color="#83B8FF" stop-opacity="0"/>
</linearGradient>
<linearGradient id="paint7_linear_224_3275" x1="84.3692" y1="21.543" x2="99.9639" y2="21.543" gradientUnits="userSpaceOnUse">
<stop stop-color="white" stop-opacity="0"/>
<stop offset="1" stop-color="white"/>
</linearGradient>
<clipPath id="clip0_224_3275">
<rect width="175" height="170" fill="white" transform="translate(0.5)"/>
</clipPath>
</defs>
</svg>
