<svg width="128" height="128" viewBox="0 0 128 128" fill="none" xmlns="http://www.w3.org/2000/svg">
<path d="M64 128C98.5068 128 126.48 100.027 126.48 65.52C126.48 31.0132 98.5068 3.03999 64 3.03999C29.4933 3.03999 1.52002 31.0132 1.52002 65.52C1.52002 100.027 29.4933 128 64 128Z" fill="#BED7F3"/>
<path d="M13.913 102.875C25.3055 118.126 43.4995 128 64 128C84.5005 128 102.695 118.126 114.087 102.875H13.913Z" fill="#A6CC17"/>
<path d="M61.4795 102.875H13.913C24.6805 117.29 41.5243 126.899 60.648 127.91C44.5378 126.999 45.2925 102.875 61.4795 102.875Z" fill="#A6CC17"/>
<path d="M93.6375 22.9063V13.7145H32.503V22.9065C32.503 37.3613 42.5367 49.471 56.0192 52.6543C58.0092 53.124 59.4292 54.8778 59.4292 56.9225C59.4292 58.9403 58.0285 60.6735 56.064 61.1343C42.559 64.3013 32.503 76.4218 32.503 90.8925V100.085H93.6375V90.8925C93.6375 76.4018 83.5537 64.268 70.021 61.1213C68.0882 60.6718 66.7115 58.964 66.7115 56.9798C66.7115 54.9015 68.1555 53.1223 70.177 52.641C83.6312 49.4373 93.6375 37.3413 93.6375 22.9063Z" fill="#E8E6E9"/>
<path d="M58.1308 61.134C58.8888 60.6733 59.4293 58.94 59.4293 56.9223C59.4293 54.8775 58.8813 53.1238 58.1135 52.654C52.9113 49.4708 49.0395 37.361 49.0395 22.9063V13.7145H32.503C32.5125 23.46 32.4848 22.717 32.5235 23.9875C33.0095 37.9618 42.8745 49.5505 56.0193 52.6543C58.0093 53.124 59.4293 54.8778 59.4293 56.9225C59.4293 58.9403 58.0285 60.6735 56.064 61.1343C42.8975 64.222 33.0108 75.8205 32.5235 89.8098C32.4845 91.087 32.5123 90.5055 32.503 100.084H49.0395V90.8923C49.0395 76.4215 52.9198 64.3013 58.1308 61.134Z" fill="#D3D0D4"/>
<path d="M93.6375 99.2343V94.5335L79.4092 89.0427C68.8945 84.985 57.246 84.985 46.7312 89.0427L32.503 94.5335V99.2343H93.6375Z" fill="#FAFAFF"/>
<path d="M49.0842 88.211C46.9082 88.916 46.9615 88.979 32.503 94.5335V99.2343H49.0395C49.0515 91.2068 49.0105 90.4102 49.0842 88.211Z" fill="#FAFAFF"/>
<path d="M56.0195 52.654C58.002 53.122 59.4178 54.8645 59.4285 56.8992V86.1485C61.8535 85.9532 64.2903 85.9532 66.7153 86.1487V56.8992C66.7523 54.856 68.182 53.116 70.1775 52.6407C81.506 49.9435 90.3885 40.941 92.913 29.547C73.4513 35.4177 52.69 35.4177 33.2285 29.547C35.7568 40.96 44.6645 49.973 56.0195 52.654Z" fill="white"/>
<path d="M56.0155 52.653C56.0167 52.6533 56.018 52.6538 56.0192 52.654C57.9747 53.1155 59.4292 54.8473 59.4292 56.9223C59.4292 54.8775 58.8812 53.1238 58.1135 52.654C54.1952 50.2565 51.0327 42.7943 49.7097 33.0815C44.155 32.3573 38.6447 31.1808 33.2347 29.5493C35.8107 41.1608 44.8392 50.013 56.0155 52.653Z" fill="#FAFAFF"/>
<path d="M59.4292 56.9223C59.4292 56.93 59.4282 56.9378 59.4282 56.9455V56.9825C59.4285 56.9623 59.4292 56.9425 59.4292 56.9223Z" fill="#FAFAFF"/>
<path d="M88.8612 0H37.2795C34.6417 0 32.5032 2.1385 32.5032 4.77625V8.132H93.6377V4.77625C93.6377 2.1385 91.4992 0 88.8612 0Z" fill="#1F61A9"/>
<path d="M88.8612 113.799H37.2795C34.6417 113.799 32.5032 111.66 32.5032 109.022V105.667H93.6377V109.022C93.6377 111.66 91.4992 113.799 88.8612 113.799Z" fill="#1F61A9"/>
<path d="M50.8441 109.022V105.666H32.5031V109.022C32.5031 111.66 34.6416 113.799 37.2793 113.799H55.6203C52.9826 113.799 50.8441 111.66 50.8441 109.022Z" fill="#1F61A9"/>
<path d="M55.2153 0H37.2795C34.6418 0 32.5033 2.1385 32.5033 4.77625V8.132H50.439V4.77625C50.439 2.1385 52.5775 0 55.2153 0Z" fill="#1F61A9"/>
<path d="M96.2433 99.2343H29.8978C27.8868 99.2343 26.2568 100.864 26.2568 102.875C26.2568 104.886 27.8868 106.516 29.8978 106.516H96.2433C98.2543 106.516 99.8843 104.886 99.8843 102.875C99.8843 100.864 98.2543 99.2343 96.2433 99.2343Z" fill="#1F61A9"/>
<path d="M44.5975 102.875C44.5975 100.864 46.2275 99.2343 48.2385 99.2343H29.8975C27.8865 99.2343 26.2565 100.864 26.2565 102.875C26.2565 104.886 27.8867 106.517 29.8975 106.517H48.2385C46.2275 106.517 44.5975 104.886 44.5975 102.875Z" fill="#1F61A9"/>
<path d="M96.2433 14.5645H29.8978C27.8868 14.5645 26.2568 12.9345 26.2568 10.9235C26.2568 8.9125 27.8868 7.2825 29.8978 7.2825H96.2433C98.2543 7.2825 99.8843 8.9125 99.8843 10.9235C99.8843 12.9345 98.2543 14.5645 96.2433 14.5645Z" fill="#1F61A9"/>
<path d="M44.1922 10.9233C44.1922 8.91226 45.8225 7.28226 47.8332 7.28226H29.8975C27.8865 7.28226 26.2565 8.91226 26.2565 10.9233C26.2565 12.9343 27.8867 14.5643 29.8975 14.5643H47.8332C45.8225 14.5643 44.1922 12.9343 44.1922 10.9233Z" fill="#1F61A9"/>
<path d="M99.742 62.021C85.2425 62.021 73.4885 73.775 73.4885 88.2745C73.4885 102.774 85.2425 114.528 99.742 114.528C100.847 114.528 101.937 114.459 103.006 114.326C113.645 105.812 121.438 93.8945 124.735 80.2215C121.336 69.662 111.432 62.021 99.742 62.021Z" fill="#1F61A9"/>
<path d="M89.6553 80.263C89.6553 73.2533 92.4028 66.8855 96.8793 62.177C83.7268 63.6035 73.4885 74.7428 73.4885 88.2745C73.4885 102.774 85.2425 114.528 99.742 114.528C100.847 114.528 101.937 114.459 103.006 114.326C106.077 111.869 108.909 109.126 111.466 106.141C99.0828 104.03 89.6553 93.248 89.6553 80.263Z" fill="#1F61A9"/>
<path d="M99.742 70.1068C89.7082 70.1068 81.5742 78.2407 81.5742 88.2745C81.5742 98.3082 89.7082 106.442 99.742 106.442C109.776 106.442 117.91 98.3082 117.91 88.2745H99.742V70.1068Z" fill="#E8E6E9"/>
<path d="M106.958 104.949C96.866 101.289 89.6553 91.619 89.6553 80.263C89.6553 77.537 90.0725 74.9088 90.8438 72.4368C85.3125 75.5513 81.5745 81.4745 81.5745 88.2745C81.5745 98.3082 89.7085 106.442 99.7423 106.442C102.307 106.442 104.746 105.908 106.958 104.949Z" fill="#D3D0D4"/>
<path d="M99.742 70.1068V88.2745H117.91C117.91 78.2407 109.776 70.1068 99.742 70.1068Z" fill="#A6CC17"/>
<path d="M99.742 92.731C98.4803 92.731 97.4573 91.708 97.4573 90.4463V74.416C97.4573 73.1543 98.4803 72.1312 99.742 72.1312C101.004 72.1312 102.027 73.1543 102.027 74.416V90.4463C102.027 91.708 101.004 92.731 99.742 92.731Z" fill="#5C515E"/>
<path d="M108.45 90.5592H97.4827C96.221 90.5592 95.198 89.5362 95.198 88.2745C95.198 87.0127 96.221 85.9898 97.4827 85.9898H108.45C109.712 85.9898 110.734 87.0127 110.734 88.2745C110.735 89.5362 109.712 90.5592 108.45 90.5592Z" fill="#5C515E"/>
</svg>
