<svg width="128" height="128" viewBox="0 0 128 128" fill="none" xmlns="http://www.w3.org/2000/svg">
<g clip-path="url(#clip0_42_633)">
<path d="M52.3968 88.5592C76.8198 88.5592 96.6173 68.7592 96.6173 44.336C96.6173 19.9155 76.8198 0.115494 52.3968 0.115494C27.9738 0.115494 8.17627 19.9155 8.17627 44.336H52.3968V88.5592Z" fill="#EEF0F2"/>
<path d="M69.1418 103.937H56.3498C54.1843 103.937 52.4288 105.692 52.4288 107.858V127.884H73.0625V107.857C73.0628 105.692 71.3073 103.937 69.1418 103.937Z" fill="#BBBBBB"/>
<path d="M62.8853 103.938C60.7193 103.938 58.9655 105.692 58.9655 107.858V127.885H52.429V107.858C52.429 105.692 54.1855 103.938 56.349 103.938H62.8853Z" fill="#D2D2D2"/>
<path d="M96.6105 53.4657H83.8185C81.653 53.4657 79.8975 55.2212 79.8975 57.3867V127.884H100.531V57.3867C100.531 55.2212 98.776 53.4657 96.6105 53.4657Z" fill="#BBBBBB"/>
<path d="M90.3525 53.4667C88.1892 53.4667 86.4327 55.2207 86.4327 57.3867V127.884H79.8987V57.3865C79.8987 55.2205 81.6527 53.4665 83.8185 53.4665H90.3525V53.4667Z" fill="#A4A4A4"/>
<path d="M124.079 82.7002H111.287C109.121 82.7002 107.366 84.4557 107.366 86.6212V127.884H128V86.6212C128 84.4557 126.244 82.7002 124.079 82.7002Z" fill="#A4A4A4"/>
<path d="M117.822 82.7007C115.656 82.7007 113.902 84.4547 113.902 86.6205V127.884H107.366V86.6205C107.366 84.4547 109.122 82.7007 111.288 82.7007H117.822Z" fill="#8D8D8D"/>
<path d="M44.2205 96.7352V52.5122H0C0 76.9352 19.7975 96.7352 44.2205 96.7352Z" fill="#A4A4A4"/>
<path d="M24.643 111.451H2.62577C1.55877 111.451 0.694275 110.586 0.694275 109.519C0.694275 108.453 1.55902 107.588 2.62577 107.588H23.407L32.9663 86.86C33.413 85.8915 34.5608 85.468 35.5293 85.915C36.498 86.3617 36.921 87.5092 36.4745 88.478L26.3973 110.328C26.0815 111.013 25.3968 111.451 24.643 111.451Z" fill="#BBBBBB"/>
<path d="M18.673 103.135H2.62577C1.55877 103.135 0.694275 102.27 0.694275 101.204C0.694275 100.137 1.55902 99.2722 2.62577 99.2722H18.673C19.74 99.2722 20.6045 100.137 20.6045 101.204C20.6048 102.27 19.74 103.135 18.673 103.135Z" fill="#8D8D8D"/>
<path d="M79.4325 35.1562C79.1122 35.1562 78.788 35.0765 78.489 34.9087C77.5587 34.3867 77.2277 33.2092 77.7497 32.279L90.5682 9.43675C90.91 8.8275 91.5542 8.4505 92.2525 8.4505H119.51C120.577 8.4505 121.441 9.31525 121.441 10.382C121.441 11.4488 120.577 12.3135 119.51 12.3135H93.3837L81.1187 34.1695C80.7645 34.801 80.1085 35.1562 79.4325 35.1562Z" fill="#BBBBBB"/>
<path d="M119.51 4.62249H100.48C99.4133 4.62249 98.5488 3.75774 98.5488 2.69099C98.5488 1.62424 99.4135 0.759491 100.48 0.759491H119.51C120.577 0.759491 121.442 1.62424 121.442 2.69099C121.442 3.75774 120.577 4.62249 119.51 4.62249Z" fill="#8D8D8D"/>
<path d="M124.137 45.4435H110.103C109.036 45.4435 108.172 44.5787 108.172 43.512C108.172 42.4452 109.036 41.5805 110.103 41.5805H124.137C125.204 41.5805 126.068 42.4452 126.068 43.512C126.068 44.5787 125.204 45.4435 124.137 45.4435Z" fill="#8D8D8D"/>
<path d="M124.137 53.768H110.103C109.036 53.768 108.172 52.9032 108.172 51.8365C108.172 50.7697 109.036 49.905 110.103 49.905H124.137C125.204 49.905 126.068 50.7697 126.068 51.8365C126.069 52.9032 125.204 53.768 124.137 53.768Z" fill="#8D8D8D"/>
<path d="M124.137 62.0927H110.103C109.036 62.0927 108.172 61.228 108.172 60.1612C108.172 59.0945 109.036 58.2297 110.103 58.2297H124.137C125.204 58.2297 126.068 59.0945 126.068 60.1612C126.068 61.228 125.204 62.0927 124.137 62.0927Z" fill="#8D8D8D"/>
</g>
<defs>
<clipPath id="clip0_42_633">
<rect width="128" height="128" fill="white"/>
</clipPath>
</defs>
</svg>
