<svg width="100" height="100" viewBox="0 0 100 100" fill="none" xmlns="http://www.w3.org/2000/svg">
<path d="M9.375 71.875C11.5324 71.875 13.2812 70.1261 13.2812 67.9688C13.2812 65.8114 11.5324 64.0625 9.375 64.0625C7.21764 64.0625 5.46875 65.8114 5.46875 67.9688C5.46875 70.1261 7.21764 71.875 9.375 71.875Z" fill="#A6CC17"/>
<path d="M13.125 84.375L15.625 83.125V76.5625C15.625 75.7337 15.2958 74.9388 14.7097 74.3528C14.1237 73.7667 13.3288 73.4375 12.5 73.4375H6.25C5.4212 73.4375 4.62634 73.7667 4.04029 74.3528C3.45424 74.9388 3.125 75.7337 3.125 76.5625V83.125L5.625 84.375L6.875 96.875H11.875L13.125 84.375Z" fill="white"/>
<path d="M87.5 56.25C90.5203 56.25 92.9688 53.8016 92.9688 50.7812C92.9688 47.7609 90.5203 45.3125 87.5 45.3125C84.4797 45.3125 82.0312 47.7609 82.0312 50.7812C82.0312 53.8016 84.4797 56.25 87.5 56.25Z" fill="#A6CC17"/>
<path d="M93.125 78.125L96.875 76.25V63.2812C96.875 61.8308 96.2988 60.4399 95.2732 59.4143C94.2476 58.3887 92.8567 57.8125 91.4062 57.8125H83.5938C82.1433 57.8125 80.7524 58.3887 79.7268 59.4143C78.7012 60.4399 78.125 61.8308 78.125 63.2812V76.25L81.875 78.125L83.75 96.875H91.25L93.125 78.125Z" fill="white"/>
<path d="M34.4727 66.4062C36.8997 66.4062 38.8672 64.4825 38.8672 62.1094C38.8672 59.7363 36.8997 57.8125 34.4727 57.8125C32.0456 57.8125 30.0781 59.7363 30.0781 62.1094C30.0781 64.4825 32.0456 66.4062 34.4727 66.4062Z" fill="#A6CC17"/>
<path d="M60.4492 61.3281C63.092 61.3281 65.2344 59.1857 65.2344 56.543C65.2344 53.9002 63.092 51.7578 60.4492 51.7578C57.8064 51.7578 55.6641 53.9002 55.6641 56.543C55.6641 59.1857 57.8064 61.3281 60.4492 61.3281Z" fill="#A6CC17"/>
<path d="M38.8672 82.4219L41.7969 80.9766V72.1023C41.7969 71.006 41.3555 69.9546 40.5698 69.1794C39.7841 68.4043 38.7185 67.9688 37.6074 67.9688H31.3379C30.2268 67.9688 29.1612 68.4043 28.3755 69.1794C27.5898 69.9546 27.1484 71.006 27.1484 72.1023V80.9766L30.0781 82.4219L31.543 96.875H37.4023L38.8672 82.4219Z" fill="white"/>
<path d="M65.3125 79.0039L68.5547 77.3926V67.499C68.5547 66.2768 68.0662 65.1046 67.1967 64.2404C66.3273 63.3761 65.148 62.8906 63.9184 62.8906H56.9801C55.7504 62.8906 54.5712 63.3761 53.7017 64.2404C52.8322 65.1046 52.3438 66.2768 52.3438 67.499V77.3926L55.5859 79.0039L57.207 95.1172H63.6914L65.3125 79.0039Z" fill="white"/>
<path d="M17.1875 39.0625C24.954 39.0625 31.25 32.7665 31.25 25C31.25 17.2335 24.954 10.9375 17.1875 10.9375C9.421 10.9375 3.125 17.2335 3.125 25C3.125 32.7665 9.421 39.0625 17.1875 39.0625Z" fill="#A6CC17"/>
<path d="M37.5 28.125H87.5V32.8125L96.875 25L87.5 17.1875V21.875H37.5V28.125Z" fill="white"/>
<path d="M13.1093 71.8751C13.911 71.1258 14.4687 70.1526 14.7099 69.0821C14.9511 68.0116 14.8647 66.8933 14.462 65.8726C14.0592 64.8518 13.3587 63.9759 12.4514 63.3586C11.5442 62.7412 10.4723 62.4111 9.37493 62.4111C8.27759 62.4111 7.20564 62.7412 6.29841 63.3586C5.39119 63.9759 4.69065 64.8518 4.28788 65.8726C3.88511 66.8933 3.79872 68.0116 4.03996 69.0821C4.2812 70.1526 4.83889 71.1258 5.64055 71.8751C4.50573 72.0238 3.46453 72.5826 2.7133 73.4461C1.96207 74.3096 1.55272 75.4181 1.56242 76.5626V83.1251C1.5633 83.4136 1.64406 83.6963 1.79574 83.9417C1.94743 84.1872 2.16412 84.3859 2.4218 84.5157L4.15617 85.3907L5.31242 97.0313C5.35129 97.4181 5.53292 97.7765 5.82184 98.0365C6.11076 98.2965 6.48623 98.4395 6.87492 98.4376H11.8749C12.2636 98.4395 12.6391 98.2965 12.928 98.0365C13.2169 97.7765 13.3986 97.4181 13.4374 97.0313L14.5937 85.3907L16.328 84.5157C16.5857 84.3859 16.8024 84.1872 16.9541 83.9417C17.1058 83.6963 17.1866 83.4136 17.1874 83.1251V76.5626C17.1971 75.4181 16.7878 74.3096 16.0365 73.4461C15.2853 72.5826 14.2441 72.0238 13.1093 71.8751ZM9.37493 65.6251C9.83848 65.6251 10.2916 65.7625 10.677 66.0201C11.0625 66.2776 11.3629 66.6437 11.5403 67.0719C11.7177 67.5002 11.7641 67.9714 11.6736 68.4261C11.5832 68.8807 11.36 69.2983 11.0322 69.6261C10.7044 69.9539 10.2868 70.1771 9.83217 70.2675C9.37752 70.358 8.90627 70.3116 8.47801 70.1342C8.04975 69.9568 7.6837 69.6564 7.42617 69.271C7.16863 68.8855 7.03117 68.4324 7.03117 67.9688C7.03117 67.3472 7.2781 66.7511 7.71764 66.3116C8.15718 65.872 8.75332 65.6251 9.37493 65.6251ZM14.0624 82.1563L12.4999 82.9845C12.2644 83.1013 12.0622 83.2757 11.9119 83.4914C11.7617 83.7072 11.6684 83.9574 11.6405 84.2188L10.4687 95.3126H8.28118L7.18742 84.2188C7.1596 83.9574 7.06625 83.7072 6.91603 83.4914C6.76581 83.2757 6.56358 83.1013 6.32805 82.9845L4.76555 82.1563V76.5626C4.76555 76.1482 4.93017 75.7508 5.2232 75.4577C5.51622 75.1647 5.91365 75.0001 6.32805 75.0001H12.4999C12.9143 75.0001 13.3118 75.1647 13.6048 75.4577C13.8978 75.7508 14.0624 76.1482 14.0624 76.5626V82.1563Z" fill="#1F61A9"/>
<path d="M91.8124 56.25C92.97 55.351 93.8178 54.1128 94.2371 52.7084C94.6565 51.304 94.6266 49.8037 94.1514 48.4172C93.6763 47.0307 92.7798 45.8273 91.5872 44.9753C90.3946 44.1233 88.9655 43.6653 87.4999 43.6653C86.0342 43.6653 84.6052 44.1233 83.4126 44.9753C82.22 45.8273 81.3235 47.0307 80.8483 48.4172C80.3732 49.8037 80.3432 51.304 80.7626 52.7084C81.182 54.1128 82.0298 55.351 83.1874 56.25C81.3912 56.3463 79.701 57.1304 78.4675 58.4396C77.234 59.7487 76.5518 61.4825 76.5624 63.2812V76.25C76.5633 76.5385 76.644 76.8212 76.7957 77.0667C76.9474 77.3121 77.1641 77.5108 77.4218 77.6406L80.4061 79.2031L82.1874 97.0312C82.2262 97.418 82.4079 97.7764 82.6968 98.0364C82.9857 98.2964 83.3612 98.4394 83.7499 98.4375H91.2499C91.6386 98.4394 92.014 98.2964 92.303 98.0364C92.5919 97.7764 92.7735 97.418 92.8124 97.0312L94.5936 79.1406L97.578 77.5781C97.8265 77.4532 98.0371 77.2643 98.1882 77.0308C98.3393 76.7974 98.4253 76.5278 98.4374 76.25V63.2812C98.448 61.4825 97.7658 59.7487 96.5322 58.4396C95.2987 57.1304 93.6085 56.3463 91.8124 56.25ZM87.4999 46.875C88.2725 46.875 89.0277 47.1041 89.6701 47.5333C90.3125 47.9625 90.8131 48.5726 91.1088 49.2864C91.4044 50.0002 91.4818 50.7856 91.3311 51.5433C91.1803 52.301 90.8083 52.9971 90.262 53.5434C89.7157 54.0897 89.0197 54.4617 88.2619 54.6124C87.5042 54.7631 86.7188 54.6858 86.005 54.3901C85.2912 54.0945 84.6812 53.5938 84.2519 52.9514C83.8227 52.3091 83.5936 51.5538 83.5936 50.7812C83.5936 49.7452 84.0052 48.7517 84.7377 48.0191C85.4703 47.2865 86.4639 46.875 87.4999 46.875ZM95.3124 75.2812L92.4218 76.7344C92.1862 76.8512 91.984 77.0256 91.8338 77.2413C91.6835 77.4571 91.5902 77.7073 91.5624 77.9687L89.8436 95.3125H85.1561L83.4374 77.9687C83.4096 77.7073 83.3162 77.4571 83.166 77.2413C83.0158 77.0256 82.8135 76.8512 82.578 76.7344L79.6874 75.2812V63.2812C79.6874 62.2452 80.0989 61.2517 80.8315 60.5191C81.5641 59.7865 82.5576 59.375 83.5936 59.375H91.4061C92.4421 59.375 93.4357 59.7865 94.1683 60.5191C94.9008 61.2517 95.3124 62.2452 95.3124 63.2812V75.2812Z" fill="#1F61A9"/>
<path d="M38.1954 66.5049C39.1067 65.7393 39.7609 64.7112 40.069 63.5602C40.3771 62.4092 40.3243 61.1911 39.9178 60.0712C39.5112 58.9513 38.7706 57.9839 37.7965 57.3003C36.8224 56.6167 35.6619 56.25 34.4727 56.25C33.2834 56.25 32.1229 56.6167 31.1488 57.3003C30.1747 57.9839 29.4341 58.9513 29.0275 60.0712C28.621 61.1911 28.5682 62.4092 28.8763 63.5602C29.1844 64.7112 29.8386 65.7393 30.7499 66.5049C29.3774 66.6591 28.1104 67.3167 27.193 68.3512C26.2756 69.3857 25.7728 70.7238 25.7814 72.1076V81.0197C25.7822 81.2878 25.857 81.5503 25.9977 81.7784C26.1383 82.0064 26.3392 82.1909 26.5781 82.3115L28.7654 83.4147L30.127 97.1311C30.163 97.4904 30.3314 97.8233 30.5993 98.0649C30.8671 98.3064 31.2152 98.4393 31.5756 98.4375H37.3698C37.7301 98.4393 38.0782 98.3064 38.346 98.0649C38.6139 97.8233 38.7823 97.4904 38.8183 97.1311L40.1799 83.4147L42.3673 82.3115C42.6061 82.1909 42.807 82.0064 42.9477 81.7784C43.0883 81.5503 43.1631 81.2878 43.164 81.0197V72.1076C43.1725 70.7238 42.6697 69.3857 41.7523 68.3512C40.8349 67.3167 39.5679 66.6591 38.1954 66.5049ZM34.4727 59.2475C35.0456 59.2475 35.6058 59.4178 36.0822 59.7367C36.5586 60.0557 36.93 60.5091 37.1492 61.0396C37.3685 61.57 37.4259 62.1537 37.3141 62.7168C37.2023 63.2799 36.9264 63.7972 36.5212 64.2032C36.1161 64.6092 35.5998 64.8856 35.0379 64.9977C34.4759 65.1097 33.8934 65.0522 33.364 64.8325C32.8346 64.6127 32.3821 64.2407 32.0638 63.7633C31.7455 63.2859 31.5756 62.7246 31.5756 62.1505C31.5756 61.3806 31.8808 60.6422 32.4241 60.0978C32.9674 59.5534 33.7043 59.2475 34.4727 59.2475ZM40.2669 80.1198L38.1665 81.1794C37.9481 81.2879 37.7606 81.4499 37.6214 81.6503C37.4821 81.8508 37.3956 82.0832 37.3698 82.3261L36.0661 95.5345H32.8793L31.5756 82.3261C31.5498 82.0832 31.4632 81.8508 31.324 81.6503C31.1847 81.4499 30.9972 81.2879 30.7789 81.1794L28.6785 80.1198V72.1076C28.6785 71.3916 28.9623 70.7049 29.4676 70.1986C29.9729 69.6923 30.6582 69.4079 31.3728 69.4079H37.5726C38.2871 69.4079 38.9724 69.6923 39.4777 70.1986C39.983 70.7049 40.2669 71.3916 40.2669 72.1076V80.1198Z" fill="#1F61A9"/>
<path d="M64.5903 61.3944C65.604 60.5436 66.3316 59.4013 66.6744 58.1224C67.0171 56.8436 66.9584 55.4901 66.5062 54.2458C66.0539 53.0015 65.2301 51.9266 64.1465 51.167C63.063 50.4074 61.7721 50 60.4492 50C59.1263 50 57.8355 50.4074 56.7519 51.167C55.6683 51.9266 54.8445 53.0015 54.3923 54.2458C53.94 55.4901 53.8813 56.8436 54.2241 58.1224C54.5668 59.4013 55.2944 60.5436 56.3082 61.3944C54.7814 61.5656 53.3721 62.2964 52.3516 63.4458C51.3311 64.5952 50.7718 66.082 50.7814 67.6196V77.5219C50.7823 77.8197 50.8656 78.1115 51.022 78.3648C51.1784 78.6182 51.4019 78.8232 51.6676 78.9573L54.1007 80.183L55.6153 95.4235C55.6554 95.8227 55.8427 96.1926 56.1406 96.461C56.4386 96.7294 56.8258 96.877 57.2266 96.875H63.6718C64.0727 96.877 64.4599 96.7294 64.7578 96.461C65.0558 96.1926 65.2431 95.8227 65.2831 95.4235L66.7978 80.183L69.2308 78.9573C69.4966 78.8232 69.72 78.6182 69.8765 78.3648C70.0329 78.1115 70.1162 77.8197 70.1171 77.5219V67.6196C70.1266 66.082 69.5673 64.5952 68.5468 63.4458C67.5264 62.2964 66.117 61.5656 64.5903 61.3944ZM60.4492 53.3306C61.0866 53.3306 61.7097 53.5197 62.2396 53.8742C62.7696 54.2286 63.1826 54.7324 63.4265 55.3217C63.6704 55.9111 63.7343 56.5597 63.6099 57.1854C63.4856 57.811 63.1786 58.3858 62.728 58.8369C62.2773 59.288 61.703 59.5952 61.0779 59.7196C60.4528 59.8441 59.8048 59.7802 59.216 59.5361C58.6271 59.2919 58.1238 58.8785 57.7697 58.3481C57.4156 57.8177 57.2266 57.194 57.2266 56.5561C57.2266 55.7006 57.5661 54.8802 58.1705 54.2753C58.7748 53.6704 59.5945 53.3306 60.4492 53.3306ZM66.8944 76.522L64.5581 77.6993C64.3152 77.8199 64.1066 77.9999 63.9517 78.2226C63.7968 78.4453 63.7005 78.7035 63.6718 78.9734L62.2217 93.6495H58.6768L57.2266 78.9734C57.1979 78.7035 57.1016 78.4453 56.9467 78.2226C56.7918 77.9999 56.5833 77.8199 56.3404 77.6993L54.004 76.522V67.6196C54.004 66.824 54.3197 66.061 54.8818 65.4985C55.4438 64.9359 56.2062 64.6199 57.001 64.6199H63.8974C64.6923 64.6199 65.4546 64.9359 66.0166 65.4985C66.5787 66.061 66.8944 66.824 66.8944 67.6196V76.522Z" fill="#1F61A9"/>
<path d="M17.1875 9.375C14.0972 9.375 11.0762 10.2914 8.50672 12.0083C5.9372 13.7252 3.93451 16.1655 2.75189 19.0206C1.56927 21.8757 1.25984 25.0173 1.86274 28.0483C2.46563 31.0792 3.95377 33.8633 6.13896 36.0485C8.32416 38.2337 11.1083 39.7219 14.1392 40.3248C17.1702 40.9277 20.3118 40.6182 23.1669 39.4356C26.022 38.253 28.4623 36.2503 30.1792 33.6808C31.8961 31.1113 32.8125 28.0903 32.8125 25C32.8125 20.856 31.1663 16.8817 28.236 13.9515C25.3058 11.0212 21.3315 9.375 17.1875 9.375ZM17.1875 37.5C14.7152 37.5 12.2985 36.7669 10.2429 35.3934C8.18726 34.0199 6.58511 32.0676 5.63901 29.7835C4.69292 27.4995 4.44538 24.9861 4.92769 22.5614C5.41001 20.1366 6.60052 17.9093 8.34867 16.1612C10.0968 14.413 12.3241 13.2225 14.7489 12.7402C17.1736 12.2579 19.687 12.5054 21.9711 13.4515C24.2551 14.3976 26.2074 15.9998 27.5809 18.0554C28.9544 20.111 29.6875 22.5277 29.6875 25C29.6875 28.3152 28.3705 31.4946 26.0263 33.8388C23.6821 36.183 20.5027 37.5 17.1875 37.5Z" fill="#1F61A9"/>
<path d="M88.5 15.9845C88.2717 15.7943 87.9938 15.6732 87.6991 15.6353C87.4044 15.5974 87.1049 15.6444 86.8359 15.7707C86.5669 15.897 86.3395 16.0974 86.1804 16.3483C86.0213 16.5993 85.937 16.8904 85.9375 17.1876V20.3126H37.5V23.4376H87.5C87.9144 23.4376 88.3118 23.273 88.6049 22.98C88.8979 22.6869 89.0625 22.2895 89.0625 21.8751V20.5157L94.4375 25.0001L89.0625 29.4845V28.1251C89.0625 27.7107 88.8979 27.3133 88.6049 27.0202C88.3118 26.7272 87.9144 26.5626 87.5 26.5626H37.5V29.6876H85.9375V32.8126C85.9368 33.1115 86.0217 33.4043 86.1824 33.6563C86.343 33.9083 86.5725 34.109 86.8438 34.2345C87.0497 34.3283 87.2736 34.3763 87.5 34.3751C87.8651 34.3758 88.2189 34.2487 88.5 34.0157L97.875 26.2032C98.0519 26.0566 98.1944 25.8728 98.2921 25.6648C98.3899 25.4569 98.4406 25.2299 98.4406 25.0001C98.4406 24.7703 98.3899 24.5434 98.2921 24.3354C98.1944 24.1274 98.0519 23.9436 97.875 23.797L88.5 15.9845Z" fill="#1F61A9"/>
<path d="M32.8125 1.5625H29.6875V4.6875H26.5625V7.8125H29.6875V10.9375H32.8125V7.8125H35.9375V4.6875H32.8125V1.5625Z" fill="#1F61A9"/>
<path d="M15.625 25.7187L11.6406 28.3906L13.3594 30.9844L18.0469 27.8594C18.2618 27.7178 18.4385 27.5254 18.5611 27.2991C18.6838 27.0729 18.7487 26.8199 18.75 26.5625V15.625H15.625V25.7187Z" fill="#1F61A9"/>
</svg>
