<svg width="100" height="100" viewBox="0 0 100 100" fill="none" xmlns="http://www.w3.org/2000/svg">
<g clip-path="url(#clip0_216_22324)">
<path d="M83.9218 60.0585L98.5351 98.535H92.2675L65.157 73.4364L77.6542 60.0585C77.6542 60.0565 83.9218 60.0585 83.9218 60.0585Z" fill="#C4E3FA"/>
<path d="M77.6543 60.0585L79.8795 65.9175L76.4148 72.2228L85.5914 80.9568L87.8168 86.8162L83.0701 89.7459L90.0422 92.6755L92.2676 98.5349H1.46484L16.0762 60.0447C16.0762 60.0449 77.6543 60.0566 77.6543 60.0585Z" fill="#E3F5FF"/>
<path d="M29.8267 92.6758H90.0419L87.8165 86.8164H30.9388L29.8267 92.6758Z" fill="white"/>
<path d="M24.9747 86.8164H12.1808L9.95654 92.6758H23.8624L24.9747 86.8164Z" fill="white"/>
<path d="M28.9435 65.907L20.1189 65.9053L14.405 80.957H26.0869L28.9435 65.907Z" fill="white"/>
<path d="M65.0924 65.9147L34.9072 65.9084L32.0508 80.9571H67.9488L65.0924 65.9147Z" fill="#A6CC17"/>
<path d="M79.8792 65.9178L71.0564 65.916L73.913 80.957H85.5912L79.8792 65.9178Z" fill="white"/>
<path d="M50 1.46484V74.707C51.0437 74.707 51.9574 74.1596 52.4764 73.3379C52.4799 73.3379 72.3191 41.877 72.3191 41.877C74.882 37.8105 76.3672 32.9951 76.3672 27.832C76.3672 13.2699 64.5623 1.46484 50 1.46484Z" fill="white"/>
<path d="M51.9262 73.3379C51.9289 73.3379 67.3596 41.877 67.3596 41.877C69.3527 37.8105 70.5078 32.9951 70.5078 27.832C70.5078 13.2699 61.3262 1.46484 50 1.46484C35.4377 1.46484 23.6328 13.2699 23.6328 27.832C23.6328 32.9949 25.118 37.8105 27.6826 41.877C27.6807 41.877 47.5199 73.3379 47.5199 73.3379C48.0424 74.1596 48.9562 74.707 49.9998 74.707C50.8117 74.707 51.5225 74.1596 51.9262 73.3379Z" fill="white"/>
<path d="M50 42.4805C58.0901 42.4805 64.6484 35.9221 64.6484 27.832C64.6484 19.7419 58.0901 13.1836 50 13.1836C41.9099 13.1836 35.3516 19.7419 35.3516 27.832C35.3516 35.9221 41.9099 42.4805 50 42.4805Z" fill="white"/>
<path d="M50 19.043V36.6211C54.8541 36.6211 58.7891 32.6861 58.7891 27.832C58.7891 22.9779 54.8541 19.043 50 19.043Z" fill="#A6CC17"/>
<path d="M52.9297 27.832C52.9297 22.9779 51.618 19.043 50 19.043C45.1459 19.043 41.2109 22.9779 41.2109 27.832C41.2109 32.6861 45.1459 36.6211 50 36.6211C51.618 36.6211 52.9297 32.6861 52.9297 27.832Z" fill="#A6CC17"/>
<path d="M99.9046 98.015L85.2913 59.5391C85.0753 58.9705 84.5304 58.5945 83.9222 58.5943L63.5102 58.59L73.5585 42.658C76.3542 38.2217 77.8321 33.0949 77.8321 27.832C77.8319 12.4854 65.3466 0 49.9999 0C34.6532 0 22.1679 12.4854 22.1679 27.832C22.1679 33.0963 23.6464 38.2232 26.4436 42.6584C26.5184 42.7773 36.4856 58.5846 36.4856 58.5846L16.0765 58.5803C15.4677 58.5803 14.9226 58.9564 14.7067 59.5252L6.78661 80.3887C6.4995 81.1451 6.87997 81.991 7.63622 82.2781C7.80732 82.3432 7.9829 82.3738 8.15575 82.3738C8.74657 82.3738 9.30341 82.0137 9.52548 81.4285L17.0866 61.5102L38.3329 61.5146L40.1804 64.4445L34.9075 64.4434C34.2036 64.4434 33.5993 64.9437 33.4681 65.6352L30.6116 80.684C30.5302 81.1125 30.6442 81.5553 30.9226 81.8914C31.2009 82.2275 31.6145 82.4221 32.0509 82.4221H67.9487C68.385 82.4221 68.7987 82.2275 69.0769 81.8914C69.355 81.5553 69.4692 81.1127 69.3878 80.6838L66.5315 65.6398C66.4003 64.9486 65.796 64.4482 65.0925 64.4482H59.8153L61.6624 61.5195L82.9108 61.524L96.4118 97.0703H3.58759L7.25458 87.4105C7.54169 86.6541 7.16122 85.8082 6.40497 85.5211C5.64892 85.2336 4.80263 85.6143 4.51572 86.3707L0.095403 98.0152C-0.0754954 98.4654 -0.0143626 98.9709 0.25927 99.3672C0.532708 99.7635 0.983489 100 1.46493 100H98.5352C99.0169 100 99.4675 99.7633 99.7411 99.367C100.014 98.9707 100.075 98.4652 99.9046 98.015ZM28.9216 41.0955C26.42 37.1289 25.0976 32.5424 25.0976 27.832C25.0976 14.1008 36.2686 2.92969 49.9999 2.92969C63.7311 2.92969 74.9022 14.1008 74.9022 27.832C74.9022 32.5414 73.5804 37.1281 71.0802 41.0955C70.972 41.267 51.3964 72.307 51.2468 72.542C51.2436 72.5465 51.2409 72.5512 51.238 72.5557C50.9663 72.9854 50.5036 73.2422 49.9999 73.2422C49.4958 73.2422 49.031 72.9842 48.7591 72.5564C48.6716 72.4178 29.0907 41.3652 28.9282 41.1063C28.9261 41.1027 28.9239 41.0992 28.9216 41.0955ZM63.8798 67.3779L66.1798 79.4922H33.82L36.1204 67.3732L42.0282 67.3746L46.2841 74.124C47.0991 75.4062 48.4884 76.1719 49.9999 76.1719C51.5147 76.1719 52.9034 75.4049 53.7149 74.1201C53.7893 74.0029 57.9679 67.3777 57.9679 67.3777H63.8798V67.3779Z" fill="#1F61A9"/>
<path d="M29.4994 86.5434L28.3873 92.4028C28.3059 92.8313 28.4199 93.2741 28.6982 93.6102C28.9766 93.9463 29.3902 94.1409 29.8266 94.1409H90.0418C90.5234 94.1409 90.974 93.9042 91.2477 93.5079C91.5209 93.1116 91.5822 92.6061 91.4113 92.1559L89.1859 86.2965C88.9699 85.7278 88.425 85.3518 87.8164 85.3518H30.9387C30.235 85.3516 29.6307 85.852 29.4994 86.5434ZM32.1516 88.2813H86.8059L87.9184 91.211H31.5955L32.1516 88.2813Z" fill="#1F61A9"/>
<path d="M10.8113 86.2965L8.5871 92.1559C8.4162 92.6061 8.47734 93.1115 8.75097 93.5078C9.02441 93.9039 9.47519 94.1406 9.95663 94.1406H23.8627C24.5664 94.1406 25.1707 93.6402 25.3019 92.9488L26.4141 87.0895C26.4955 86.6609 26.3814 86.2182 26.1031 85.882C25.8248 85.5459 25.4111 85.3516 24.9748 85.3516H12.1809C11.5725 85.3516 11.0273 85.7277 10.8113 86.2965ZM23.2057 88.2812L22.6496 91.2109H12.0795L13.1916 88.2812H23.2057Z" fill="#1F61A9"/>
<path d="M28.9435 64.4421L20.1189 64.4402C19.5101 64.4402 18.965 64.8164 18.7492 65.3851L13.0353 80.4369C12.8644 80.8871 12.9256 81.3925 13.1992 81.7888C13.4726 82.1849 13.9234 82.4216 14.4049 82.4216H26.0867C26.7904 82.4216 27.3947 81.9212 27.526 81.2298L30.3826 66.1798C30.4641 65.7513 30.35 65.3087 30.0719 64.9726C29.7935 64.6369 29.3799 64.4423 28.9435 64.4421ZM24.8736 79.4921H16.5277L21.1295 67.3703L27.1744 67.3716L24.8736 79.4921Z" fill="#1F61A9"/>
<path d="M73.9132 82.4218H85.5911C86.0728 82.4218 86.5234 82.1851 86.797 81.7888C87.0702 81.3925 87.1316 80.8871 86.9607 80.4369L81.2488 65.3976C81.0327 64.829 80.4878 64.4531 79.8796 64.4529L71.057 64.4509C70.6204 64.4509 70.2066 64.6455 69.9285 64.9816C69.6503 65.3177 69.5361 65.7603 69.6175 66.1892L72.4742 81.2304C72.6052 81.9216 73.2095 82.4218 73.9132 82.4218ZM78.8685 67.3824L83.4679 79.4921H75.1261L72.8259 67.381L78.8685 67.3824Z" fill="#1F61A9"/>
<path d="M50 43.9453C58.8848 43.9453 66.1133 36.7168 66.1133 27.832C66.1133 18.9473 58.8848 11.7188 50 11.7188C41.115 11.7188 33.8867 18.9473 33.8867 27.832C33.8867 36.7168 41.115 43.9453 50 43.9453ZM50 14.6484C57.2695 14.6484 63.1836 20.5625 63.1836 27.832C63.1836 35.1016 57.2695 41.0156 50 41.0156C42.7305 41.0156 36.8164 35.1016 36.8164 27.832C36.8164 20.5625 42.7305 14.6484 50 14.6484Z" fill="#1F61A9"/>
<path d="M50 38.0859C55.6539 38.0859 60.2539 33.4859 60.2539 27.832C60.2539 22.1781 55.6539 17.5781 50 17.5781C44.3459 17.5781 39.7461 22.1781 39.7461 27.832C39.7461 33.4859 44.3459 38.0859 50 38.0859ZM50 20.5078C54.0387 20.5078 57.3242 23.7934 57.3242 27.832C57.3242 31.8707 54.0387 35.1562 50 35.1562C45.9613 35.1562 42.6758 31.8707 42.6758 27.832C42.6758 23.7934 45.9613 20.5078 50 20.5078Z" fill="#1F61A9"/>
</g>
<defs>
<clipPath id="clip0_216_22324">
<rect width="100" height="100" fill="white"/>
</clipPath>
</defs>
</svg>
