<svg width="100" height="100" viewBox="0 0 100 100" fill="none" xmlns="http://www.w3.org/2000/svg">
<path d="M66.0644 14.2756H70.4015C70.6765 14.2756 70.8996 14.4986 70.8996 14.7736V41.3263H78.6205V14.7736C78.6205 14.4986 78.8435 14.2756 79.1185 14.2756H83.2999C83.7064 14.2756 83.9417 13.815 83.7035 13.4855L75.1603 1.67107C74.9624 1.39744 74.5556 1.39588 74.3554 1.66775L65.6632 13.4822C65.4212 13.8111 65.656 14.2756 66.0644 14.2756Z" fill="white"/>
<path d="M69.8384 14.2494L77.1095 4.36658L75.1603 1.67107C74.9624 1.39744 74.5556 1.39588 74.3554 1.66775L65.6632 13.4822C65.4212 13.8111 65.6562 14.2756 66.0644 14.2756H69.822C69.8276 14.2668 69.8321 14.258 69.8384 14.2494Z" fill="#A6CC17"/>
<path d="M16.7001 45.9545H21.0373C21.3123 45.9545 21.5353 46.1776 21.5353 46.4526V70.2194C23.5277 69.2235 25.7722 68.6596 28.147 68.6596C28.5205 68.6596 28.8896 68.6782 29.2562 68.7053V46.4526C29.2562 46.1776 29.4792 45.9545 29.7542 45.9545H33.9357C34.3421 45.9545 34.5775 45.494 34.3394 45.1645L25.796 33.35C25.5982 33.0764 25.1914 33.0748 24.9912 33.3467L16.299 45.1612C16.057 45.4903 16.2917 45.9545 16.7001 45.9545Z" fill="white"/>
<path d="M27.6034 35.8496L25.7958 33.35C25.5979 33.0764 25.1911 33.0748 24.9909 33.3467L16.2987 45.1612C16.0567 45.4901 16.2915 45.9545 16.6999 45.9545H20.1688L27.6034 35.8496Z" fill="#A6CC17"/>
<path d="M41.3824 29.5873H45.7195C45.9945 29.5873 46.2175 29.8104 46.2175 30.0854V64.375H53.9384V30.0854C53.9384 29.8102 54.1615 29.5873 54.4365 29.5873H58.6179C59.0243 29.5873 59.2597 29.1268 59.0216 28.7973L50.4783 16.9828C50.2804 16.7092 49.8736 16.7076 49.6734 16.9795L40.9812 28.794C40.739 29.1229 40.974 29.5873 41.3824 29.5873Z" fill="white"/>
<path d="M52.2697 19.4606L50.4779 16.9828C50.2801 16.7092 49.8732 16.7076 49.673 16.9795L40.9809 28.794C40.7389 29.1229 40.9736 29.5873 41.382 29.5873H44.8191L52.2697 19.4606Z" fill="#A6CC17"/>
<path d="M84.7287 87.2285H61.8344C61.7111 87.2285 61.5912 87.2412 61.4736 87.2609C62.4943 87.433 63.2729 88.3186 63.2729 89.3883V92.7514C63.2729 93.8211 62.4945 94.7066 61.4736 94.8787C61.5912 94.8984 61.7111 94.9111 61.8344 94.9111H84.7287C85.9215 94.9111 86.8885 93.9441 86.8885 92.7514V89.3883C86.8887 88.1955 85.9215 87.2285 84.7287 87.2285Z" fill="white"/>
<path d="M84.7287 79.5457H61.8344C61.7111 79.5457 61.5912 79.5583 61.4736 79.5781C62.4943 79.7501 63.2729 80.6357 63.2729 81.7054V85.0685C63.2729 86.1382 62.4945 87.0238 61.4736 87.1958C61.5912 87.2156 61.7111 87.2283 61.8344 87.2283H84.7287C85.9215 87.2283 86.8885 86.2613 86.8885 85.0685V81.7054C86.8887 80.5126 85.9215 79.5457 84.7287 79.5457Z" fill="white"/>
<path d="M84.7287 71.8625H61.8344C61.7111 71.8625 61.5912 71.8752 61.4736 71.895C62.4943 72.067 63.2729 72.9526 63.2729 74.0223V77.3856C63.2729 78.4553 62.4945 79.3409 61.4736 79.5129C61.5912 79.5327 61.7111 79.5454 61.8344 79.5454H84.7287C85.9215 79.5454 86.8885 78.5784 86.8885 77.3856V74.0223C86.8887 72.8295 85.9215 71.8625 84.7287 71.8625Z" fill="white"/>
<path d="M67.7736 77.3856V74.0226C67.7736 72.8298 68.7406 71.8628 69.9334 71.8628H61.8344C61.7111 71.8628 61.5912 71.8755 61.4736 71.8952C62.4943 72.0673 63.2729 72.9528 63.2729 74.0226V77.3858C63.2729 78.4556 62.4945 79.3411 61.4736 79.5132C61.5912 79.5329 61.7111 79.5456 61.8344 79.5456H69.9334C68.7406 79.5456 67.7736 78.5786 67.7736 77.3856Z" fill="#A6CC17"/>
<path d="M67.7736 85.0688V81.7057C67.7736 80.5129 68.7406 79.5459 69.9334 79.5459H61.8344C61.7111 79.5459 61.5912 79.5586 61.4736 79.5783C62.4943 79.7504 63.2729 80.6359 63.2729 81.7057V85.0688C63.2729 86.1385 62.4945 87.024 61.4736 87.1961C61.5912 87.2158 61.7111 87.2285 61.8344 87.2285H69.9334C68.7406 87.2285 67.7736 86.2615 67.7736 85.0688Z" fill="#A6CC17"/>
<path d="M67.7736 92.7514V89.3883C67.7736 88.1955 68.7406 87.2285 69.9334 87.2285H61.8344C61.7111 87.2285 61.5912 87.2412 61.4736 87.2609C62.4943 87.433 63.2729 88.3186 63.2729 89.3883V92.7514C63.2729 93.8211 62.4945 94.7066 61.4736 94.8787C61.5912 94.8984 61.7111 94.9111 61.8344 94.9111H69.9334C68.7406 94.9111 67.7736 93.9441 67.7736 92.7514Z" fill="#A6CC17"/>
<path d="M84.7287 64.1797H61.8344C61.7111 64.1797 61.5912 64.1924 61.4736 64.2121C62.4943 64.3842 63.2729 65.2697 63.2729 66.3394V69.7025C63.2729 70.7723 62.4945 71.6578 61.4736 71.8299C61.5912 71.8496 61.7111 71.8623 61.8344 71.8623H84.7287C85.9215 71.8623 86.8885 70.8953 86.8885 69.7025V66.3394C86.8887 65.1467 85.9215 64.1797 84.7287 64.1797Z" fill="white"/>
<path d="M67.7736 69.7028V66.3397C67.7736 65.1469 68.7406 64.1799 69.9334 64.1799H61.8344C61.7111 64.1799 61.5912 64.1926 61.4736 64.2124C62.4943 64.3844 63.2729 65.27 63.2729 66.3397V69.7028C63.2729 70.7725 62.4945 71.6581 61.4736 71.8301C61.5912 71.8498 61.7111 71.8625 61.8344 71.8625H69.9334C68.7406 71.8625 67.7736 70.8956 67.7736 69.7028Z" fill="#A6CC17"/>
<path d="M61.8343 64.1797H84.7287C85.9214 64.1797 86.8884 63.2127 86.8884 62.0199V58.6568C86.8884 57.4641 85.9214 56.4971 84.7287 56.4971H61.8343C60.6416 56.4971 59.6746 57.4641 59.6746 58.6568V62.0199C59.6746 63.2127 60.6416 64.1797 61.8343 64.1797Z" fill="white"/>
<path d="M67.7736 62.0199V58.6568C67.7736 57.4641 68.7406 56.4971 69.9334 56.4971H61.8343C60.6416 56.4971 59.6746 57.4641 59.6746 58.6568V62.0199C59.6746 63.2127 60.6416 64.1797 61.8343 64.1797H69.9334C68.7406 64.1797 67.7736 63.2127 67.7736 62.0199Z" fill="#A6CC17"/>
<path d="M61.8343 56.4971H84.7287C85.9214 56.4971 86.8884 55.5301 86.8884 54.3373V50.9742C86.8884 49.7814 85.9214 48.8145 84.7287 48.8145H61.8343C60.6416 48.8145 59.6746 49.7814 59.6746 50.9742V54.3373C59.6746 55.5301 60.6416 56.4971 61.8343 56.4971Z" fill="white"/>
<path d="M67.7736 54.3371V50.974C67.7736 49.7812 68.7406 48.8142 69.9334 48.8142H61.8343C60.6416 48.8142 59.6746 49.7812 59.6746 50.974V54.3371C59.6746 55.5298 60.6416 56.4968 61.8343 56.4968H69.9334C68.7406 56.497 67.7736 55.53 67.7736 54.3371Z" fill="#A6CC17"/>
<path d="M61.8343 48.8142H84.7287C85.9214 48.8142 86.8884 47.8472 86.8884 46.6544V43.2911C86.8884 42.0983 85.9214 41.1313 84.7287 41.1313H61.8343C60.6416 41.1313 59.6746 42.0983 59.6746 43.2911V46.6542C59.6746 47.8472 60.6416 48.8142 61.8343 48.8142Z" fill="white"/>
<path d="M67.7736 46.6542V43.2911C67.7736 42.0983 68.7406 41.1313 69.9334 41.1313H61.8343C60.6416 41.1313 59.6746 42.0983 59.6746 43.2911V46.6542C59.6746 47.847 60.6416 48.814 61.8343 48.814H69.9334C68.7406 48.8142 67.7736 47.8472 67.7736 46.6542Z" fill="#A6CC17"/>
<path d="M61.1126 87.2283H42.7155C41.9427 90.2568 40.2483 92.9146 37.9517 94.8929C38.0392 94.9037 38.1278 94.9111 38.2183 94.9111H61.1126C62.3054 94.9111 63.2724 93.9441 63.2724 92.7513V89.3882C63.2726 88.1953 62.3056 87.2283 61.1126 87.2283Z" fill="white"/>
<path d="M63.2727 77.3856V74.0223C63.2727 72.8295 62.3057 71.8625 61.1129 71.8625H38.2184C38.052 71.8625 37.8908 71.8831 37.7354 71.9188C41.0627 74.6766 43.1824 78.8405 43.1824 83.4997C43.1824 84.7868 43.0199 86.036 42.7158 87.2284H61.1129C62.3057 87.2284 63.2727 86.2614 63.2727 85.0686V81.7055C63.2727 80.5127 62.3057 79.5457 61.1129 79.5457C62.3057 79.5456 63.2727 78.5786 63.2727 77.3856Z" fill="white"/>
<path d="M44.1406 92.7514V89.3883C44.1406 88.1955 45.1076 87.2285 46.3003 87.2285H42.7158C41.9429 90.257 40.2486 92.9148 37.9519 94.8932C38.0394 94.9039 38.1281 94.9113 38.2185 94.9113H46.3005C45.1076 94.9111 44.1406 93.9441 44.1406 92.7514Z" fill="#A6CC17"/>
<path d="M61.1126 79.5457H42.6531C42.9958 80.806 43.1822 82.1308 43.1822 83.5C43.1822 84.7871 43.0197 86.0363 42.7156 87.2287H61.1126C62.3054 87.2287 63.2724 86.2617 63.2724 85.0689V81.7058C63.2726 80.5126 62.3056 79.5457 61.1126 79.5457Z" fill="white"/>
<path d="M44.1406 77.3856V74.0223C44.1406 72.8295 45.1076 71.8625 46.3004 71.8625H38.2184C38.052 71.8625 37.8908 71.8831 37.7354 71.9188C40.085 73.8663 41.8293 76.5163 42.6533 79.5456H46.3006C45.1076 79.5456 44.1406 78.5786 44.1406 77.3856Z" fill="#A6CC17"/>
<path d="M38.2184 71.8625H61.1127C62.3055 71.8625 63.2725 70.8956 63.2725 69.7028V66.3397C63.2725 65.1469 62.3055 64.1799 61.1127 64.1799H38.2184C37.0256 64.1799 36.0586 65.1469 36.0586 66.3397V69.7028C36.0586 70.8956 37.0256 71.8625 38.2184 71.8625Z" fill="white"/>
<path d="M44.1406 69.7028V66.3397C44.1406 65.1469 45.1076 64.1799 46.3004 64.1799H38.2184C37.0256 64.1799 36.0586 65.1469 36.0586 66.3397V69.7028C36.0586 70.8956 37.0256 71.8625 38.2184 71.8625H46.3004C45.1076 71.8625 44.1406 70.8956 44.1406 69.7028Z" fill="#A6CC17"/>
<path d="M28.1471 98.5352C36.451 98.5352 43.1827 91.8036 43.1827 83.4997C43.1827 75.1958 36.451 68.4641 28.1471 68.4641C19.8432 68.4641 13.1116 75.1958 13.1116 83.4997C13.1116 91.8036 19.8432 98.5352 28.1471 98.5352Z" fill="#FAFAFF"/>
<path d="M19.336 83.4997C19.336 76.2631 24.4491 70.2223 31.2592 68.7885C30.2549 68.577 29.2143 68.4641 28.1471 68.4641C19.8432 68.4641 13.1116 75.1958 13.1116 83.4997C13.1116 91.8036 19.8432 98.5352 28.1471 98.5352C29.2143 98.5352 30.2549 98.4223 31.2592 98.2108C24.4491 96.7772 19.336 90.7364 19.336 83.4997Z" fill="#A6CC17"/>
<path d="M88.3534 43.2908C88.3534 41.2922 86.7274 39.666 84.7286 39.666H80.0854V15.7402H83.3001C84.0411 15.7402 84.711 15.3303 85.0481 14.6703C85.3853 14.0104 85.3249 13.2273 84.8905 12.627L76.3468 0.812109C75.9804 0.305859 75.3888 0.00234375 74.764 0C74.147 0.00136719 73.5454 0.296875 73.1753 0.799805L64.4833 12.6139C64.0419 13.2135 63.9765 13.9988 64.3124 14.6631C64.6483 15.3275 65.3194 15.7404 66.0642 15.7404H69.4347V39.6662H61.8343C59.8356 39.6662 58.2095 41.2922 58.2095 43.291V46.6543C58.2095 47.4641 58.4796 48.2102 58.9302 48.8143C58.4798 49.4184 58.2095 50.1645 58.2095 50.9742V54.3373C58.2095 55.1471 58.4796 55.8932 58.9302 56.4973C58.4798 57.1014 58.2095 57.8475 58.2095 58.6572V62.0205C58.2095 62.2586 58.2355 62.4904 58.28 62.7156H55.403V31.0521H58.6177C59.3587 31.0521 60.0286 30.6422 60.3657 29.9822C60.7028 29.3223 60.6425 28.5393 60.2081 27.9389L51.6647 16.1244C51.2987 15.618 50.7071 15.3143 50.0821 15.3117C50.0794 15.3117 50.0769 15.3117 50.0741 15.3117C49.4522 15.3117 48.8616 15.6102 48.4929 16.1115L39.8009 27.9256C39.3595 28.5252 39.294 29.3105 39.63 29.9748C39.9659 30.6393 40.6372 31.0521 41.3817 31.0521H44.7521V62.7148H38.2179C36.2192 62.7148 34.5931 64.3408 34.5931 66.3395V68.3168C33.3698 67.7955 32.0729 67.4141 30.7202 67.2014V47.4193H33.9349C34.6759 47.4193 35.3456 47.0094 35.6827 46.3496C36.02 45.6896 35.9597 44.9066 35.5255 44.3061L26.9823 32.4922C26.6163 31.9857 26.0249 31.6818 25.4001 31.6791C24.7741 31.6762 24.181 31.9752 23.8103 32.4787L15.1181 44.2932C14.6769 44.8928 14.6116 45.6781 14.9476 46.3424C15.2837 47.0064 15.9548 47.4193 16.6993 47.4193H20.0696V52.5391C20.0696 53.3482 20.7255 54.0039 21.5345 54.0039C22.3435 54.0039 22.9993 53.3482 22.9993 52.5391V46.4527C22.9993 45.3703 22.1187 44.4897 21.0364 44.4897H18.6116L25.3856 35.2824L32.0438 44.4897H29.7544C28.672 44.4897 27.7915 45.3703 27.7915 46.4527V67.0084C26.1222 67.0439 24.5136 67.3275 23.0003 67.8258V59.375C23.0003 58.5658 22.3444 57.9102 21.5354 57.9102C20.7265 57.9102 20.0706 58.5658 20.0706 59.375V69.1193C15.0481 71.9514 11.647 77.3344 11.647 83.4996C11.647 92.5979 19.0489 99.9998 28.1472 99.9998C32.0415 99.9998 35.6224 98.6406 38.4478 96.3758H84.7286C86.7272 96.3758 88.3534 94.7498 88.3534 92.751V89.3877C88.3534 88.5779 88.0833 87.832 87.6327 87.2279C88.0831 86.6238 88.3534 85.8779 88.3534 85.0682V81.7049C88.3534 80.8951 88.0833 80.149 87.6327 79.5449C88.0831 78.9408 88.3534 78.1947 88.3534 77.385V74.0219C88.3534 73.2121 88.0833 72.466 87.6327 71.8619C88.0831 71.2578 88.3534 70.5117 88.3534 69.702V66.3387C88.3534 65.5289 88.0833 64.783 87.6329 64.1789C88.0833 63.5748 88.3534 62.8289 88.3534 62.0191V58.6559C88.3534 57.8461 88.0833 57.1 87.6327 56.4959C88.0831 55.8918 88.3534 55.1457 88.3534 54.3359V50.9729C88.3534 50.1631 88.0833 49.417 87.6327 48.8129C88.0831 48.2088 88.3534 47.4627 88.3534 46.6529V43.2908ZM67.9759 12.8107L74.7499 3.60332L81.4081 12.8107H79.1187C78.0364 12.8107 77.1558 13.6914 77.1558 14.7736V39.6662H72.3646V14.7736C72.3646 13.6914 71.4839 12.8107 70.4015 12.8107H67.9759ZM43.2936 28.1225L50.0677 18.915L56.7257 28.1225H54.4364C53.354 28.1225 52.4733 29.0031 52.4733 30.0854V62.7148H47.6821V30.0854C47.6821 29.0031 46.8015 28.1225 45.7192 28.1225H43.2936ZM28.1472 97.0703C20.6644 97.0703 14.5767 90.9826 14.5767 83.4998C14.5767 76.017 20.6644 69.9293 28.1472 69.9293C35.63 69.9293 41.7177 76.017 41.7177 83.4998C41.7177 90.9826 35.63 97.0703 28.1472 97.0703ZM61.8079 92.7514C61.8079 93.1346 61.496 93.4465 61.1128 93.4465H41.3017C42.38 92.024 43.2304 90.4213 43.8052 88.6934H61.1128C61.496 88.6934 61.8079 89.0051 61.8079 89.3883V92.7514ZM61.8079 77.3855C61.8079 77.7687 61.496 78.0807 61.1128 78.0807H55.4688C54.6597 78.0807 54.004 78.7363 54.004 79.5455C54.004 80.3547 54.6597 81.0104 55.4688 81.0104H61.1128C61.496 81.0104 61.8079 81.3223 61.8079 81.7055V85.0687C61.8079 85.452 61.496 85.7639 61.1128 85.7639H44.4882C44.5903 85.0232 44.6474 84.2684 44.6474 83.5C44.6474 82.6535 44.58 81.823 44.4563 81.0105H48.6329C49.4419 81.0105 50.0978 80.3549 50.0978 79.5457C50.0978 78.7365 49.4419 78.0809 48.6329 78.0809H43.7292C43.1245 76.3477 42.2409 74.7443 41.1282 73.3277H61.1128C61.496 73.3277 61.8079 73.6396 61.8079 74.0229V77.3855ZM61.8079 69.7027C61.8079 70.0859 61.496 70.3979 61.1128 70.3979H38.2185C38.1954 70.3979 38.1737 70.3932 38.1513 70.391C37.9632 70.2471 37.772 70.1074 37.5776 69.9715C37.5429 69.8887 37.5233 69.798 37.5233 69.7027V66.3395C37.5233 65.9562 37.8351 65.6445 38.2185 65.6445H61.1128C61.496 65.6445 61.8079 65.9562 61.8079 66.3395V69.7027ZM85.4237 92.7514C85.4237 93.1346 85.1118 93.4465 84.7286 93.4465H64.669C64.713 93.2213 64.7376 92.9893 64.7376 92.7514V89.3881C64.7376 89.15 64.7116 88.9184 64.6673 88.6932H84.7286C85.1118 88.6932 85.4237 89.0049 85.4237 89.3881V92.7514ZM85.4237 85.0686C85.4237 85.4518 85.1118 85.7637 84.7286 85.7637H64.6671C64.7116 85.5385 64.7376 85.3068 64.7376 85.0686V81.7053C64.7376 81.4672 64.7116 81.2354 64.6671 81.0102H84.7286C85.1118 81.0102 85.4237 81.3221 85.4237 81.7053V85.0686ZM85.4237 77.3855C85.4237 77.7687 85.1118 78.0807 84.7286 78.0807H64.6671C64.7116 77.8555 64.7376 77.6238 64.7376 77.3855V74.0225C64.7376 73.7844 64.7116 73.5525 64.6671 73.3273H84.7286C85.1118 73.3273 85.4237 73.6393 85.4237 74.0225V77.3855ZM85.4237 62.0199C85.4237 62.4027 85.1126 62.7141 84.73 62.7148C84.7296 62.7148 84.7292 62.7148 84.7288 62.7148H81.0548C80.2456 62.7148 79.5899 63.3705 79.5899 64.1797C79.5899 64.9889 80.2456 65.6445 81.0548 65.6445H84.7249C84.7261 65.6445 84.7274 65.6447 84.7286 65.6447H84.7298C85.1124 65.6455 85.4235 65.9568 85.4235 66.3396V69.7029C85.4235 70.0861 85.1116 70.398 84.7284 70.398H64.6671C64.7116 70.1729 64.7376 69.9412 64.7376 69.7029V66.3396C64.7376 66.1018 64.713 65.8697 64.669 65.6445H74.2188C75.028 65.6445 75.6837 64.9889 75.6837 64.1797C75.6837 63.3705 75.028 62.7148 74.2188 62.7148H61.8345C61.8341 62.7148 61.8337 62.7148 61.8333 62.7148C61.4507 62.7141 61.1395 62.4027 61.1395 62.0199V58.6566C61.1395 58.2734 61.4515 57.9615 61.8347 57.9615H84.7286C85.1118 57.9615 85.4237 58.2734 85.4237 58.6566V62.0199ZM85.4237 54.3369C85.4237 54.7201 85.1118 55.032 84.7286 55.032H61.8345C61.4513 55.032 61.1394 54.7201 61.1394 54.3369V50.9738C61.1394 50.5906 61.4513 50.2787 61.8345 50.2787H84.7286C85.1118 50.2787 85.4237 50.5906 85.4237 50.9738V54.3369ZM85.4237 46.6541C85.4237 47.0373 85.1118 47.3492 84.7286 47.3492H61.8345C61.4513 47.3492 61.1394 47.0373 61.1394 46.6541V43.2908C61.1394 42.9076 61.4513 42.5957 61.8345 42.5957H84.7286C85.1118 42.5957 85.4237 42.9076 85.4237 43.2908V46.6541Z" fill="#1F61A9"/>
<path d="M29.7568 82.0349H26.5371C25.7387 82.0349 25.0889 81.3853 25.0889 80.5866C25.0889 79.7882 25.7385 79.1386 26.5371 79.1386H32.2098C33.0188 79.1386 33.6746 78.4829 33.6746 77.6737C33.6746 76.8646 33.0188 76.2089 32.2098 76.2089H29.6117V74.6841C29.6117 73.8749 28.9559 73.2192 28.1469 73.2192C27.3379 73.2192 26.682 73.8749 26.682 74.6841V76.2089H26.5371C24.1232 76.2089 22.1592 78.1728 22.1592 80.5866C22.1592 83.0005 24.123 84.9646 26.5371 84.9646H29.7566C30.5551 84.9646 31.2049 85.6142 31.2049 86.4126C31.2049 87.2112 30.5553 87.8608 29.7566 87.8608H24.0842C23.2752 87.8608 22.6193 88.5165 22.6193 89.3257C22.6193 90.1349 23.2752 90.7905 24.0842 90.7905H26.682V92.3153C26.682 93.1245 27.3379 93.7802 28.1469 93.7802C28.9559 93.7802 29.6117 93.1245 29.6117 92.3153V90.7905H29.7566C32.1705 90.7905 34.1346 88.8265 34.1346 86.4126C34.1346 83.9987 32.1707 82.0349 29.7568 82.0349Z" fill="#1F61A9"/>
</svg>
