<svg width="17" height="16" viewBox="0 0 17 16" fill="none" xmlns="http://www.w3.org/2000/svg">
<path d="M8.49935 3C5.16602 3 2.31935 5.07333 1.16602 8C2.31935 10.9267 5.16602 13 8.49935 13C11.8327 13 14.6793 10.9267 15.8327 8C14.6793 5.07333 11.8327 3 8.49935 3ZM8.49935 11.3333C6.65935 11.3333 5.16602 9.84 5.16602 8C5.16602 6.16 6.65935 4.66667 8.49935 4.66667C10.3393 4.66667 11.8327 6.16 11.8327 8C11.8327 9.84 10.3393 11.3333 8.49935 11.3333ZM8.49935 6C7.39268 6 6.49935 6.89333 6.49935 8C6.49935 9.10667 7.39268 10 8.49935 10C9.60602 10 10.4993 9.10667 10.4993 8C10.4993 6.89333 9.60602 6 8.49935 6Z" fill="#1C1C1C" fill-opacity="0.65"/>
</svg>
