<svg width="19" height="19" viewBox="0 0 19 19" fill="none" xmlns="http://www.w3.org/2000/svg">
<path d="M10.416 8.16666H2.91602C2.50352 8.16666 2.16602 8.50416 2.16602 8.91666C2.16602 9.32916 2.50352 9.66666 2.91602 9.66666H10.416C10.8285 9.66666 11.166 9.32916 11.166 8.91666C11.166 8.50416 10.8285 8.16666 10.416 8.16666ZM10.416 5.16666H2.91602C2.50352 5.16666 2.16602 5.50416 2.16602 5.91666C2.16602 6.32916 2.50352 6.66666 2.91602 6.66666H10.416C10.8285 6.66666 11.166 6.32916 11.166 5.91666C11.166 5.50416 10.8285 5.16666 10.416 5.16666ZM14.166 11.1667V8.91666C14.166 8.50416 13.8285 8.16666 13.416 8.16666C13.0035 8.16666 12.666 8.50416 12.666 8.91666V11.1667H10.416C10.0035 11.1667 9.66602 11.5042 9.66602 11.9167C9.66602 12.3292 10.0035 12.6667 10.416 12.6667H12.666V14.9167C12.666 15.3292 13.0035 15.6667 13.416 15.6667C13.8285 15.6667 14.166 15.3292 14.166 14.9167V12.6667H16.416C16.8285 12.6667 17.166 12.3292 17.166 11.9167C17.166 11.5042 16.8285 11.1667 16.416 11.1667H14.166ZM2.91602 12.6667H7.41602C7.82852 12.6667 8.16602 12.3292 8.16602 11.9167C8.16602 11.5042 7.82852 11.1667 7.41602 11.1667H2.91602C2.50352 11.1667 2.16602 11.5042 2.16602 11.9167C2.16602 12.3292 2.50352 12.6667 2.91602 12.6667Z" fill="#FAFAFF"/>
</svg>
