<svg width="16" height="16" viewBox="0 0 16 16" fill="none" xmlns="http://www.w3.org/2000/svg">
<path d="M8.00065 1.33337C4.32065 1.33337 1.33398 4.32004 1.33398 8.00004C1.33398 11.68 4.32065 14.6667 8.00065 14.6667C11.6807 14.6667 14.6673 11.68 14.6673 8.00004C14.6673 4.32004 11.6807 1.33337 8.00065 1.33337ZM10.6673 8.66671H8.66732V10.6667C8.66732 11.0334 8.36732 11.3334 8.00065 11.3334C7.63398 11.3334 7.33398 11.0334 7.33398 10.6667V8.66671H5.33398C4.96732 8.66671 4.66732 8.36671 4.66732 8.00004C4.66732 7.63337 4.96732 7.33337 5.33398 7.33337H7.33398V5.33337C7.33398 4.96671 7.63398 4.66671 8.00065 4.66671C8.36732 4.66671 8.66732 4.96671 8.66732 5.33337V7.33337H10.6673C11.034 7.33337 11.334 7.63337 11.334 8.00004C11.334 8.36671 11.034 8.66671 10.6673 8.66671Z" fill="#FAFAFF"/>
</svg>
