<svg width="72" height="72" viewBox="0 0 72 72" fill="none" xmlns="http://www.w3.org/2000/svg">
<path d="M9 24C9 25.65 10.35 27 12 27C13.65 27 15 25.65 15 24V18H21C22.65 18 24 16.65 24 15C24 13.35 22.65 12 21 12H15V6C15 4.35 13.65 3 12 3C10.35 3 9 4.35 9 6V12H3C1.35 12 0 13.35 0 15C0 16.65 1.35 18 3 18H9V24Z" fill="#1C1C1C" fill-opacity="0.4"/>
<path d="M39 51C43.9706 51 48 46.9706 48 42C48 37.0294 43.9706 33 39 33C34.0294 33 30 37.0294 30 42C30 46.9706 34.0294 51 39 51Z" fill="#1C1C1C" fill-opacity="0.4"/>
<path d="M63 18H53.49L49.77 13.95C48.66 12.72 47.04 12 45.36 12H26.16C26.67 12.9 27 13.89 27 15C27 18.3 24.3 21 21 21H18V24C18 27.3 15.3 30 12 30C10.89 30 9.9 29.67 9 29.16V60C9 63.3 11.7 66 15 66H63C66.3 66 69 63.3 69 60V24C69 20.7 66.3 18 63 18ZM39 57C30.72 57 24 50.28 24 42C24 33.72 30.72 27 39 27C47.28 27 54 33.72 54 42C54 50.28 47.28 57 39 57Z" fill="#1C1C1C" fill-opacity="0.4"/>
</svg>
