<svg width="16" height="15" viewBox="0 0 16 15" fill="none" xmlns="http://www.w3.org/2000/svg">
<path fill-rule="evenodd" clip-rule="evenodd" d="M13.666 0.916687H1.66602C0.841016 0.916687 0.166016 1.59169 0.166016 2.41669V12.9167C0.166016 13.7417 0.841016 14.4167 1.66602 14.4167H13.666C14.491 14.4167 15.166 13.7417 15.166 12.9167V2.41669C15.166 1.59169 14.491 0.916687 13.666 0.916687ZM5.41602 11.4167H3.16602C2.75352 11.4167 2.41602 11.0792 2.41602 10.6667C2.41602 10.2542 2.75352 9.91669 3.16602 9.91669H5.41602C5.82852 9.91669 6.16602 10.2542 6.16602 10.6667C6.16602 11.0792 5.82852 11.4167 5.41602 11.4167ZM5.41602 8.41669H3.16602C2.75352 8.41669 2.41602 8.07919 2.41602 7.66669C2.41602 7.25419 2.75352 6.91669 3.16602 6.91669H5.41602C5.82852 6.91669 6.16602 7.25419 6.16602 7.66669C6.16602 8.07919 5.82852 8.41669 5.41602 8.41669ZM5.41602 5.41669H3.16602C2.75352 5.41669 2.41602 5.07919 2.41602 4.66669C2.41602 4.25419 2.75352 3.91669 3.16602 3.91669H5.41602C5.82852 3.91669 6.16602 4.25419 6.16602 4.66669C6.16602 5.07919 5.82852 5.41669 5.41602 5.41669ZM12.691 7.00669L10.3135 9.38419C10.021 9.67669 9.54102 9.67669 9.24852 9.38419L8.19102 8.31919C7.89852 8.02669 7.89852 7.55419 8.19102 7.26169C8.48352 6.96919 8.95602 6.96919 9.24852 7.26169L9.78102 7.79419L11.6335 5.94169C11.926 5.64919 12.3985 5.64919 12.691 5.94169L12.6985 5.94919C12.9835 6.24169 12.9835 6.72169 12.691 7.00669Z" fill="#FAFAFF"/>
</svg>
