<svg width="20" height="20" viewBox="0 0 20 20" fill="none" xmlns="http://www.w3.org/2000/svg">
<path d="M4.50002 16C4.28336 16 4.10436 15.9294 3.96302 15.788C3.82102 15.646 3.75002 15.4667 3.75002 15.25V9.22503C3.75002 9.02503 3.82102 8.85402 3.96302 8.71202C4.10436 8.57069 4.28336 8.50002 4.50002 8.50002C4.71669 8.50002 4.89569 8.57069 5.03702 8.71202C5.17902 8.85402 5.25002 9.03336 5.25002 9.25002V15.275C5.25002 15.475 5.17902 15.646 5.03702 15.788C4.89569 15.9294 4.71669 16 4.50002 16ZM10 16C9.78336 16 9.60436 15.9294 9.46302 15.788C9.32102 15.646 9.25002 15.4667 9.25002 15.25V9.22503C9.25002 9.02503 9.32102 8.85402 9.46302 8.71202C9.60436 8.57069 9.78336 8.50002 10 8.50002C10.2167 8.50002 10.396 8.57069 10.538 8.71202C10.6794 8.85402 10.75 9.03336 10.75 9.25002V15.275C10.75 15.475 10.6794 15.646 10.538 15.788C10.396 15.9294 10.2167 16 10 16ZM1.50002 19.5C1.28336 19.5 1.10836 19.4294 0.975024 19.288C0.841691 19.146 0.775024 18.9667 0.775024 18.75C0.775024 18.5334 0.846024 18.354 0.988024 18.212C1.12936 18.0707 1.30836 18 1.52502 18H18.5C18.7167 18 18.8917 18.0707 19.025 18.212C19.1584 18.354 19.225 18.5334 19.225 18.75C19.225 18.9667 19.1544 19.146 19.013 19.288C18.871 19.4294 18.6917 19.5 18.475 19.5H1.50002ZM15.5 16C15.2834 16 15.104 15.9294 14.962 15.788C14.8207 15.646 14.75 15.4667 14.75 15.25V9.22503C14.75 9.02503 14.8207 8.85402 14.962 8.71202C15.104 8.57069 15.2834 8.50002 15.5 8.50002C15.7167 8.50002 15.896 8.57069 16.038 8.71202C16.1794 8.85402 16.25 9.03336 16.25 9.25002V15.275C16.25 15.475 16.1794 15.646 16.038 15.788C15.896 15.9294 15.7167 16 15.5 16ZM10.8 0.950024L18.75 4.82502C18.9 4.90836 19.0167 5.02502 19.1 5.17502C19.1834 5.32502 19.225 5.49169 19.225 5.67502C19.225 5.90836 19.1417 6.10402 18.975 6.26202C18.8084 6.42069 18.6084 6.50002 18.375 6.50002H1.62502C1.39169 6.50002 1.19169 6.42069 1.02502 6.26202C0.858358 6.10402 0.775024 5.90836 0.775024 5.67502C0.775024 5.49169 0.816691 5.32502 0.900024 5.17502C0.983358 5.02502 1.10836 4.91669 1.27502 4.85002L9.20002 0.950024C9.45002 0.833358 9.71669 0.775024 10 0.775024C10.2834 0.775024 10.55 0.833358 10.8 0.950024ZM4.32502 5.00002H15.675L10 2.25002L4.32502 5.00002Z" fill="#1F61A9"/>
</svg>
