<svg width="20" height="20" viewBox="0 0 20 20" fill="none" xmlns="http://www.w3.org/2000/svg">
<path d="M0 4C0 1.79086 1.79086 0 4 0H16C18.2091 0 20 1.79086 20 4V16C20 18.2091 18.2091 20 16 20H4C1.79086 20 0 18.2091 0 16V4Z" fill="#A6CC17"/>
<path d="M7.50091 13.5L4.58424 10.5833C4.25924 10.2583 3.74258 10.2583 3.41758 10.5833C3.09258 10.9083 3.09258 11.425 3.41758 11.75L6.90924 15.2416C7.23424 15.5666 7.75924 15.5666 8.08424 15.2416L16.9176 6.41664C17.2426 6.09164 17.2426 5.57498 16.9176 5.24998C16.5926 4.92498 16.0759 4.92498 15.7509 5.24998L7.50091 13.5Z" fill="#293306"/>
</svg>
