<svg width="20" height="20" viewBox="0 0 20 20" fill="none" xmlns="http://www.w3.org/2000/svg">
<path d="M4.99935 15.8333C4.99935 16.75 5.74935 17.5 6.66602 17.5H13.3327C14.2494 17.5 14.9994 16.75 14.9994 15.8333V7.5C14.9994 6.58333 14.2494 5.83333 13.3327 5.83333H6.66602C5.74935 5.83333 4.99935 6.58333 4.99935 7.5V15.8333ZM7.64102 9.30833C7.96602 8.98333 8.49102 8.98333 8.81602 9.30833L9.99935 10.4917L11.1827 9.30833C11.5077 8.98333 12.0327 8.98333 12.3577 9.30833C12.6827 9.63333 12.6827 10.1583 12.3577 10.4833L11.1743 11.6667L12.3577 12.85C12.6827 13.175 12.6827 13.7 12.3577 14.025C12.0327 14.35 11.5077 14.35 11.1827 14.025L9.99935 12.8417L8.81602 14.025C8.49102 14.35 7.96602 14.35 7.64102 14.025C7.31602 13.7 7.31602 13.175 7.64102 12.85L8.82435 11.6667L7.64102 10.4833C7.31602 10.1667 7.31602 9.63333 7.64102 9.30833ZM12.916 3.33333L12.3244 2.74167C12.1743 2.59167 11.9577 2.5 11.741 2.5H8.25768C8.04102 2.5 7.82435 2.59167 7.67435 2.74167L7.08268 3.33333H4.99935C4.54102 3.33333 4.16602 3.70833 4.16602 4.16667C4.16602 4.625 4.54102 5 4.99935 5H14.9994C15.4577 5 15.8327 4.625 15.8327 4.16667C15.8327 3.70833 15.4577 3.33333 14.9994 3.33333H12.916Z" fill="#AF1C10"/>
</svg>
