<svg width="14" height="14" viewBox="0 0 14 14" fill="none" xmlns="http://www.w3.org/2000/svg">
<path d="M13.2997 0.710001C12.9097 0.320001 12.2797 0.320001 11.8897 0.710001L6.99973 5.59L2.10973 0.700001C1.71973 0.310001 1.08973 0.310001 0.699727 0.700001C0.309727 1.09 0.309727 1.72 0.699727 2.11L5.58973 7L0.699727 11.89C0.309727 12.28 0.309727 12.91 0.699727 13.3C1.08973 13.69 1.71973 13.69 2.10973 13.3L6.99973 8.41L11.8897 13.3C12.2797 13.69 12.9097 13.69 13.2997 13.3C13.6897 12.91 13.6897 12.28 13.2997 11.89L8.40973 7L13.2997 2.11C13.6797 1.73 13.6797 1.09 13.2997 0.710001V0.710001Z" fill="#1C1C1C" fill-opacity="0.65"/>
</svg>
