<svg width="17" height="16" viewBox="0 0 17 16" fill="none" xmlns="http://www.w3.org/2000/svg">
<path d="M8.50065 1.33331C4.82065 1.33331 1.83398 4.31998 1.83398 7.99998C1.83398 11.68 4.82065 14.6666 8.50065 14.6666C12.1807 14.6666 15.1673 11.68 15.1673 7.99998C15.1673 4.31998 12.1807 1.33331 8.50065 1.33331ZM8.50065 8.66665C8.13398 8.66665 7.83398 8.36665 7.83398 7.99998V5.33331C7.83398 4.96665 8.13398 4.66665 8.50065 4.66665C8.86732 4.66665 9.16732 4.96665 9.16732 5.33331V7.99998C9.16732 8.36665 8.86732 8.66665 8.50065 8.66665ZM9.16732 11.3333H7.83398V9.99998H9.16732V11.3333Z" fill="#AF1C10"/>
</svg>
