<svg width="51" height="50" viewBox="0 0 51 50" fill="none" xmlns="http://www.w3.org/2000/svg">
<path d="M5.87109 12.9715L5.77344 12.5332C3.12539 16.3837 1.57422 21.0471 1.57422 26.0734C1.57422 31.0998 3.12539 35.7632 5.77344 39.6137L5.87109 39.1493V12.9715Z" fill="#B3DAFE"/>
<path d="M45.2266 12.5332L45.1289 13.1712V38.8976L45.2266 39.6138C47.8746 35.7633 49.4258 31.0999 49.4258 26.0735C49.4258 21.0472 47.8746 16.3837 45.2266 12.5332Z" fill="#B3DAFE"/>
<path d="M12.4307 45.8008L12.1006 45.8984C15.9235 48.4875 20.5351 50 25.4999 50C30.4647 50 35.0763 48.4875 38.8992 45.8984L38.5594 45.8008H12.4307Z" fill="#B3DAFE"/>
<path d="M35.905 43.5121C35.8472 43.4543 35.8312 43.3747 35.8625 43.2991C35.8937 43.2235 35.9612 43.1785 36.043 43.1785H38.2001C38.4155 43.1785 38.5907 43.0033 38.5907 42.7879V34.0322C38.5907 33.8168 38.7659 33.6416 38.9813 33.6416H42.7804C42.9958 33.6416 43.171 33.8168 43.171 34.0322V42.7879C43.171 43.0033 43.3462 43.1785 43.5616 43.1785H45.2266V5.76172L44.595 5.66406H6.45703L5.77344 5.76172V39.6145C7.47119 42.0831 9.61924 44.218 12.1007 45.8984H38.2958L35.905 43.5121Z" fill="#F3F0FF"/>
<path d="M45.7184 43.08H43.5612C43.3994 43.08 43.2683 42.9488 43.2683 42.787V34.0313C43.2683 33.7616 43.0496 33.543 42.78 33.543H38.9811C38.7114 33.543 38.4928 33.7616 38.4928 34.0313V42.787C38.4928 42.9488 38.3616 43.08 38.1998 43.08H36.0426C35.7814 43.08 35.6508 43.3958 35.8356 43.5803L40.5355 48.2715C40.7262 48.4617 41.0349 48.4617 41.2255 48.2715L45.9254 43.5803C46.1102 43.3958 45.9795 43.08 45.7184 43.08Z" fill="#A6CC17"/>
<path d="M36.9381 44.6808H39.8005C39.9623 44.6808 40.0934 44.5496 40.0934 44.3878V35.632C40.0934 35.3624 40.3121 35.1437 40.5817 35.1437H43.2681V34.0312C43.2681 33.7616 43.0495 33.543 42.7799 33.543H38.9809C38.7113 33.543 38.4927 33.7616 38.4927 34.0312V42.787C38.4927 42.9488 38.3615 43.08 38.1997 43.08H36.0426C35.7814 43.08 35.6508 43.3958 35.8356 43.5803L36.9381 44.6808Z" fill="#A6CC17"/>
<path d="M5.77344 5.76172V39.6145C7.13232 41.5904 8.78037 43.3517 10.6562 44.8381V5.76172H5.77344Z" fill="#E2DEFF"/>
<path d="M43.7617 0H7.23828C6.4293 0 5.77344 0.655859 5.77344 1.46484V5.76172H45.2266V1.46484C45.2266 0.655859 44.5707 0 43.7617 0Z" fill="#1F61A9"/>
<path d="M12.1211 0H7.23828C6.4293 0 5.77344 0.655859 5.77344 1.46484V5.76172H10.6562V1.46484C10.6562 0.655859 11.3121 0 12.1211 0Z" fill="#1F61A9"/>
<path d="M42.248 3.22266C42.6526 3.22266 42.9805 2.89474 42.9805 2.49023C42.9805 2.08573 42.6526 1.75781 42.248 1.75781C41.8435 1.75781 41.5156 2.08573 41.5156 2.49023C41.5156 2.89474 41.8435 3.22266 42.248 3.22266Z" fill="white"/>
<path d="M8.75195 3.22266C9.15646 3.22266 9.48438 2.89474 9.48438 2.49023C9.48438 2.08573 9.15646 1.75781 8.75195 1.75781C8.34745 1.75781 8.01953 2.08573 8.01953 2.49023C8.01953 2.89474 8.34745 3.22266 8.75195 3.22266Z" fill="#A6CC17"/>
<path d="M10.9004 3.22266C11.3049 3.22266 11.6328 2.89474 11.6328 2.49023C11.6328 2.08573 11.3049 1.75781 10.9004 1.75781C10.4959 1.75781 10.168 2.08573 10.168 2.49023C10.168 2.89474 10.4959 3.22266 10.9004 3.22266Z" fill="#FEE45A"/>
<path d="M13.0488 3.22266C13.4533 3.22266 13.7812 2.89474 13.7812 2.49023C13.7812 2.08573 13.4533 1.75781 13.0488 1.75781C12.6443 1.75781 12.3164 2.08573 12.3164 2.49023C12.3164 2.89474 12.6443 3.22266 13.0488 3.22266Z" fill="#A6CC17"/>
<path d="M35.8512 38.1348H28.4834C28.0788 38.1348 27.751 37.8069 27.751 37.4023C27.751 36.9978 28.0788 36.6699 28.4834 36.6699H35.8512C36.2558 36.6699 36.5836 36.9978 36.5836 37.4023C36.5836 37.8069 36.2558 38.1348 35.8512 38.1348Z" fill="#CFCAE4"/>
<path d="M35.8512 24.9453H28.4834C28.0788 24.9453 27.751 24.6175 27.751 24.2129C27.751 23.8083 28.0788 23.4805 28.4834 23.4805H35.8512C36.2558 23.4805 36.5836 23.8083 36.5836 24.2129C36.5836 24.6175 36.2558 24.9453 35.8512 24.9453Z" fill="#CFCAE4"/>
<path d="M35.8512 27.9961H28.4834C28.0788 27.9961 27.751 27.6683 27.751 27.2637C27.751 26.8591 28.0788 26.5312 28.4834 26.5312H35.8512C36.2558 26.5312 36.5836 26.8591 36.5836 27.2637C36.5836 27.6683 36.2558 27.9961 35.8512 27.9961Z" fill="#CFCAE4"/>
<path d="M35.8512 31.0469H28.4834C28.0788 31.0469 27.751 30.719 27.751 30.3145C27.751 29.9099 28.0788 29.582 28.4834 29.582H35.8512C36.2558 29.582 36.5836 29.9099 36.5836 30.3145C36.5836 30.719 36.2558 31.0469 35.8512 31.0469Z" fill="#CFCAE4"/>
<path d="M35.8512 34.0977H28.4834C28.0788 34.0977 27.751 33.7698 27.751 33.3652C27.751 32.9606 28.0788 32.6328 28.4834 32.6328H35.8512C36.2558 32.6328 36.5836 32.9606 36.5836 33.3652C36.5836 33.7698 36.2558 34.0977 35.8512 34.0977Z" fill="#CFCAE4"/>
<path d="M24.9141 24.9453H15.1484C14.7438 24.9453 14.416 24.6175 14.416 24.2129C14.416 23.8083 14.7438 23.4805 15.1484 23.4805H24.9141C25.3187 23.4805 25.6465 23.8083 25.6465 24.2129C25.6465 24.6175 25.3187 24.9453 24.9141 24.9453Z" fill="#B5ADD5"/>
<path d="M24.9141 27.9961H15.1484C14.7438 27.9961 14.416 27.6683 14.416 27.2637C14.416 26.8591 14.7438 26.5312 15.1484 26.5312H24.9141C25.3187 26.5312 25.6465 26.8591 25.6465 27.2637C25.6465 27.6683 25.3187 27.9961 24.9141 27.9961Z" fill="#B5ADD5"/>
<path d="M24.9141 31.0469H15.1484C14.7438 31.0469 14.416 30.719 14.416 30.3145C14.416 29.9099 14.7438 29.582 15.1484 29.582H24.9141C25.3187 29.582 25.6465 29.9099 25.6465 30.3145C25.6465 30.719 25.3187 31.0469 24.9141 31.0469Z" fill="#B5ADD5"/>
<path d="M24.9141 34.0977H15.1484C14.7438 34.0977 14.416 33.7698 14.416 33.3652C14.416 32.9606 14.7438 32.6328 15.1484 32.6328H24.9141C25.3187 32.6328 25.6465 32.9606 25.6465 33.3652C25.6465 33.7698 25.3187 34.0977 24.9141 34.0977Z" fill="#B5ADD5"/>
<path d="M25.4999 18.3006C28.2343 18.3006 30.451 16.0839 30.451 13.3495C30.451 10.6151 28.2343 8.39844 25.4999 8.39844C22.7655 8.39844 20.5488 10.6151 20.5488 13.3495C20.5488 16.0839 22.7655 18.3006 25.4999 18.3006Z" fill="#1F61A9"/>
<path d="M22.7267 13.3495C22.7267 10.9894 24.3786 9.01631 26.5889 8.52002C26.2383 8.44131 25.8742 8.39844 25.4999 8.39844C22.7655 8.39844 20.5488 10.615 20.5488 13.3495C20.5488 16.084 22.7655 18.3006 25.4999 18.3006C25.8742 18.3006 26.2383 18.2577 26.5888 18.179C24.3785 17.6827 22.7267 15.7097 22.7267 13.3495Z" fill="#1F61A9"/>
<path d="M27.7033 14.2641C27.7033 13.4288 27.1148 12.5834 25.9899 12.5834H25.0091C24.9163 12.5834 24.7606 12.5554 24.7606 12.3677C24.7606 12.1911 24.7831 12.1192 25.0091 12.1192H26.6665C27.0711 12.1192 27.3989 11.7914 27.3989 11.3868C27.3989 10.9822 27.0711 10.6544 26.6665 10.6544H26.232V10.6348C26.232 10.2302 25.9042 9.90234 25.4996 9.90234C25.095 9.90234 24.7672 10.2302 24.7672 10.6348V10.6702C23.8899 10.7742 23.2959 11.442 23.2959 12.3677C23.2959 13.1824 23.8963 14.0482 25.0092 14.0482H25.99C26.2386 14.0482 26.2386 14.1939 26.2386 14.2641C26.2386 14.5033 26.2104 14.5125 25.99 14.5125H24.282C23.8774 14.5125 23.5496 14.8403 23.5496 15.2449C23.5496 15.6495 23.8774 15.9773 24.282 15.9773H24.7673V16.0623C24.7673 16.4669 25.0951 16.7947 25.4997 16.7947C25.9043 16.7947 26.2321 16.4669 26.2321 16.0623V15.963C27.1334 15.8656 27.7033 15.2214 27.7033 14.2641Z" fill="#A6CC17"/>
<path d="M38.8789 21.3691H12.1211C11.7165 21.3691 11.3887 21.0413 11.3887 20.6367C11.3887 20.2321 11.7165 19.9043 12.1211 19.9043H38.8789C39.2835 19.9043 39.6113 20.2321 39.6113 20.6367C39.6113 21.0413 39.2835 21.3691 38.8789 21.3691Z" fill="#B5ADD5"/>
<path d="M16.8561 15.1965C17.783 15.1965 18.5344 14.4451 18.5344 13.5182C18.5344 12.5913 17.783 11.8398 16.8561 11.8398C15.9291 11.8398 15.1777 12.5913 15.1777 13.5182C15.1777 14.4451 15.9291 15.1965 16.8561 15.1965Z" fill="#A6CC17"/>
<path d="M34.1432 15.1965C35.0701 15.1965 35.8215 14.4451 35.8215 13.5182C35.8215 12.5913 35.0701 11.8398 34.1432 11.8398C33.2163 11.8398 32.4648 12.5913 32.4648 13.5182C32.4648 14.4451 33.2163 15.1965 34.1432 15.1965Z" fill="#A6CC17"/>
<path d="M16.7109 44.5312C19.138 44.5312 21.1055 42.5638 21.1055 40.1367C21.1055 37.7097 19.138 35.7422 16.7109 35.7422C14.2839 35.7422 12.3164 37.7097 12.3164 40.1367C12.3164 42.5638 14.2839 44.5312 16.7109 44.5312Z" fill="#1F61A9"/>
<path d="M15.3438 40.1367C15.3438 38.2416 16.5434 36.6268 18.2246 36.0099C17.7527 35.8367 17.2429 35.7422 16.7109 35.7422C14.2839 35.7422 12.3164 37.7097 12.3164 40.1367C12.3164 42.5638 14.2839 44.5312 16.7109 44.5312C17.2429 44.5312 17.7527 44.4367 18.2246 44.2636C16.5434 43.6467 15.3438 42.0318 15.3438 40.1367Z" fill="#1F61A9"/>
<path d="M16.4675 42.4336C16.2801 42.4336 16.0926 42.3621 15.9495 42.2191L14.0973 40.367C13.8113 40.0809 13.8113 39.6172 14.0973 39.3312C14.3835 39.0452 14.8471 39.0452 15.1332 39.3312L16.4674 40.6654L18.5452 38.5875C18.8313 38.3016 19.295 38.3016 19.581 38.5875C19.8671 38.8736 19.8671 39.3373 19.581 39.6233L16.9852 42.2191C16.8424 42.362 16.6549 42.4336 16.4675 42.4336Z" fill="#A6CC17"/>
</svg>
