<svg width="20" height="20" viewBox="0 0 20 20" fill="none" xmlns="http://www.w3.org/2000/svg">
<path d="M0 4C0 1.79086 1.79086 0 4 0H16C18.2091 0 20 1.79086 20 4V16C20 18.2091 18.2091 20 16 20H4C1.79086 20 0 18.2091 0 16V4Z" fill="#1C1C1C" fill-opacity="0.4"/>
<path d="M7.49993 13.5001L4.58327 10.5834C4.25827 10.2584 3.7416 10.2584 3.4166 10.5834C3.0916 10.9084 3.0916 11.4251 3.4166 11.7501L6.90827 15.2418C7.23327 15.5668 7.75827 15.5668 8.08327 15.2418L16.9166 6.41676C17.2416 6.09176 17.2416 5.5751 16.9166 5.2501C16.5916 4.9251 16.0749 4.9251 15.7499 5.2501L7.49993 13.5001Z" fill="#FAFAFF"/>
</svg>
