<svg width="20" height="20" viewBox="0 0 20 18" fill="none" xmlns="http://www.w3.org/2000/svg">
<path d="M10.125 18C9.925 18 9.75 17.9294 9.6 17.788C9.45 17.646 9.375 17.4667 9.375 17.25C9.375 17.0334 9.45 16.854 9.6 16.712C9.75 16.5707 9.925 16.5 10.125 16.5H16.7C16.7833 16.5 16.8543 16.471 16.913 16.413C16.971 16.3544 17 16.2834 17 16.2V8.97505C17 8.00838 16.8167 7.10005 16.45 6.25005C16.0833 5.40005 15.5833 4.65838 14.95 4.02505C14.3167 3.39172 13.575 2.89172 12.725 2.52505C11.875 2.15838 10.9667 1.97505 10 1.97505C9.03333 1.97505 8.125 2.15838 7.275 2.52505C6.425 2.89172 5.68333 3.39172 5.05 4.02505C4.41667 4.65838 3.91667 5.40005 3.55 6.25005C3.18333 7.10005 3 8.00838 3 8.97505V14.3C3 14.5 2.929 14.675 2.787 14.825C2.64567 14.975 2.46667 15.05 2.25 15.05C1.76667 15.05 1.35433 14.8794 1.013 14.538C0.671 14.196 0.5 13.7834 0.5 13.3V11.3C0.5 10.9667 0.591667 10.6624 0.775 10.387C0.958333 10.1124 1.2 9.88338 1.5 9.70005L1.55 8.40005C1.63333 7.25005 1.921 6.19172 2.413 5.22505C2.90433 4.25838 3.53333 3.42905 4.3 2.73705C5.06667 2.04572 5.93733 1.50838 6.912 1.12505C7.88733 0.741716 8.91667 0.550049 10 0.550049C11.0833 0.550049 12.1167 0.741716 13.1 1.12505C14.0833 1.50838 14.954 2.04572 15.712 2.73705C16.4707 3.42905 17.096 4.25405 17.588 5.21205C18.0793 6.17072 18.3667 7.22505 18.45 8.37505L18.5 9.67505C18.8 9.82505 19.0417 10.029 19.225 10.287C19.4083 10.5457 19.5 10.8334 19.5 11.15V13.45C19.5 13.75 19.4083 14.0294 19.225 14.288C19.0417 14.546 18.8 14.75 18.5 14.9V16.2C18.5 16.7001 18.325 17.125 17.975 17.475C17.625 17.8251 17.2 18 16.7 18H10.125ZM7.2 11.075C6.95 11.075 6.73733 10.9874 6.562 10.812C6.38733 10.6374 6.3 10.4334 6.3 10.2C6.3 9.95005 6.38733 9.73738 6.562 9.56205C6.73733 9.38738 6.95 9.30005 7.2 9.30005C7.43333 9.30005 7.63733 9.38738 7.812 9.56205C7.98733 9.73738 8.075 9.95005 8.075 10.2C8.075 10.4334 7.98733 10.6374 7.812 10.812C7.63733 10.9874 7.43333 11.075 7.2 11.075ZM12.8 11.075C12.5667 11.075 12.3627 10.9874 12.188 10.812C12.0127 10.6374 11.925 10.4334 11.925 10.2C11.925 9.95005 12.0127 9.73738 12.188 9.56205C12.3627 9.38738 12.5667 9.30005 12.8 9.30005C13.05 9.30005 13.2627 9.38738 13.438 9.56205C13.6127 9.73738 13.7 9.95005 13.7 10.2C13.7 10.4334 13.6127 10.6374 13.438 10.812C13.2627 10.9874 13.05 11.075 12.8 11.075ZM4.375 9.45005C4.30833 8.53338 4.43767 7.69605 4.763 6.93805C5.08767 6.17938 5.52067 5.53738 6.062 5.01205C6.604 4.48738 7.225 4.08338 7.925 3.80005C8.625 3.51672 9.33333 3.37505 10.05 3.37505C11.4833 3.37505 12.7207 3.82505 13.762 4.72505C14.804 5.62505 15.4333 6.75005 15.65 8.10005C14.1833 8.08338 12.85 7.68738 11.65 6.91205C10.45 6.13738 9.55 5.13338 8.95 3.90005C8.68333 5.16672 8.146 6.29171 7.338 7.27505C6.52933 8.25838 5.54167 8.98338 4.375 9.45005Z" fill="#1F61A9"/>
</svg>
