<svg width="48" height="48" viewBox="0 0 48 48" fill="none" xmlns="http://www.w3.org/2000/svg">
<path d="M39 14C40.6569 14 42 12.6569 42 11C42 9.34315 40.6569 8 39 8C37.3431 8 36 9.34315 36 11C36 12.6569 37.3431 14 39 14Z" stroke="#2461AA" stroke-width="2" stroke-miterlimit="10" stroke-linecap="round"/>
<path d="M47.0003 5.5C47.0003 4.119 45.8813 3 44.5003 3C44.3443 3 29.6243 3.002 29.6243 3.002C28.2943 3.002 27.0213 2.932 26.2833 3.67L3.55425 26.398C2.81525 27.136 2.81525 28.334 3.55425 29.072L20.9282 46.446C21.6662 47.184 22.8642 47.184 23.6022 46.446L46.3303 23.717C47.0683 22.98 46.9983 21.737 46.9983 20.377C46.9983 20.377 47.0003 5.656 47.0003 5.5Z" stroke="#2461AA" stroke-width="2" stroke-miterlimit="10" stroke-linecap="round"/>
<path d="M19.109 27.444C19.115 28.304 19.392 29.119 19.939 29.885L24.296 25.528C23.858 24.805 23.513 24.148 23.261 23.556C23.007 22.962 22.861 22.41 22.816 21.894C22.773 21.379 22.855 20.886 23.064 20.415C23.272 19.943 23.617 19.466 24.099 18.983C24.592 18.49 25.132 18.126 25.718 17.89C26.304 17.654 26.899 17.536 27.502 17.536C28.105 17.536 28.699 17.653 29.286 17.89C29.872 18.125 30.417 18.463 30.922 18.901L32.007 17.816L32.911 18.721L31.809 19.823C32.587 20.82 32.965 21.855 32.944 22.929C32.922 24.003 32.538 25.133 31.793 26.316L30.396 24.919C31.261 23.614 31.284 22.365 30.462 21.171L26.417 25.216L27.14 26.464C27.305 26.739 27.466 27.093 27.626 27.526C27.784 27.958 27.88 28.432 27.913 28.948C27.946 29.462 27.878 29.997 27.708 30.551C27.538 31.105 27.2 31.633 26.696 32.137C26.159 32.674 25.592 33.061 24.994 33.296C24.397 33.532 23.788 33.642 23.17 33.625C22.55 33.608 21.934 33.469 21.319 33.206C20.706 32.942 20.114 32.57 19.544 32.089L18.196 33.437L17.291 32.533L18.639 31.184C17.653 29.978 17.162 28.726 17.168 27.427C17.173 26.128 17.708 24.859 18.771 23.62L20.168 25.017C19.458 25.775 19.104 26.584 19.109 27.444ZM21.855 31.473C22.201 31.643 22.552 31.739 22.916 31.76C23.277 31.782 23.639 31.716 24.001 31.563C24.362 31.41 24.719 31.158 25.07 30.807C25.386 30.489 25.598 30.168 25.703 29.844C25.807 29.521 25.842 29.19 25.809 28.85C25.776 28.51 25.679 28.157 25.521 27.789C25.363 27.421 25.178 27.047 24.97 26.664L20.844 30.79C21.172 31.074 21.51 31.303 21.855 31.473ZM27.7 19.445C27.01 19.401 26.351 19.691 25.727 20.316C25.442 20.601 25.245 20.892 25.135 21.188C25.025 21.483 24.987 21.785 25.019 22.091C25.052 22.399 25.134 22.716 25.266 23.045C25.398 23.374 25.562 23.714 25.759 24.064L29.607 20.217C29.025 19.746 28.391 19.488 27.7 19.445Z" fill="#A6CC17"/>
</svg>
