<svg width="18" height="18" viewBox="0 0 18 18" fill="none" xmlns="http://www.w3.org/2000/svg">
<path d="M17.3334 9.00002C17.3334 13.595 13.595 17.3334 9.00002 17.3334C4.40506 17.3334 0.666687 13.595 0.666687 9.00002C0.666687 8.71235 0.899673 8.47919 1.18752 8.47919C1.47537 8.47919 1.70835 8.71235 1.70835 9.00002C1.70835 13.0207 4.97936 16.2917 9.00002 16.2917C13.0207 16.2917 16.2917 13.0207 16.2917 9.00002C16.2917 4.97936 13.0207 1.70835 9.00002 1.70835C7.06235 1.70835 5.26287 2.46165 3.9094 3.79169H5.87502C6.16287 3.79169 6.39585 4.02485 6.39585 4.31252C6.39585 4.60019 6.16287 4.83335 5.87502 4.83335H2.75002C2.46217 4.83335 2.22919 4.60019 2.22919 4.31252V1.18752C2.22919 0.899847 2.46217 0.666687 2.75002 0.666687C3.03787 0.666687 3.27085 0.899847 3.27085 1.18752V2.96408C4.80749 1.49742 6.82658 0.666687 9.00002 0.666687C13.595 0.666687 17.3334 4.40506 17.3334 9.00002ZM9.52085 8.47919H8.47919C8.19186 8.47919 7.95835 8.24551 7.95835 7.95835C7.95835 7.6712 8.19186 7.43752 8.47919 7.43752H10.5625C10.8504 7.43752 11.0834 7.20436 11.0834 6.91669C11.0834 6.62901 10.8504 6.39585 10.5625 6.39585H9.52085V5.87502C9.52085 5.58735 9.28787 5.35419 9.00002 5.35419C8.71217 5.35419 8.47919 5.58735 8.47919 5.87502V6.39585C7.61756 6.39585 6.91669 7.09672 6.91669 7.95835C6.91669 8.81999 7.61756 9.52085 8.47919 9.52085H9.52085C9.80818 9.52085 10.0417 9.75453 10.0417 10.0417C10.0417 10.3288 9.80818 10.5625 9.52085 10.5625H7.43752C7.14967 10.5625 6.91669 10.7957 6.91669 11.0834C6.91669 11.371 7.14967 11.6042 7.43752 11.6042H8.47919V12.125C8.47919 12.4127 8.71217 12.6459 9.00002 12.6459C9.28787 12.6459 9.52085 12.4127 9.52085 12.125V11.6042C10.3825 11.6042 11.0834 10.9033 11.0834 10.0417C11.0834 9.18006 10.3825 8.47919 9.52085 8.47919Z" fill="#494949"/>
</svg>
