<svg width="24" height="48" viewBox="0 0 24 48" fill="none" xmlns="http://www.w3.org/2000/svg">
<path d="M15.7654 8.02966H8.23727L2.5007 16.5262C1.91858 17.3856 1.60618 18.3992 1.60352 19.4372V43.5431C1.60352 45.1275 2.90289 46.4643 4.48727 46.4643H19.5154C21.0998 46.4643 22.401 45.1275 22.401 43.5431V19.4372C22.3971 18.4007 22.0845 17.3889 21.5029 16.5309L15.7654 8.02966Z" fill="#FAFAFF"/>
<path d="M18.6941 16.5263L12.9566 8.02877H12.9659V2.5669C12.9637 2.29245 12.8531 2.03003 12.6581 1.83684C12.4632 1.64366 12.1998 1.53539 11.9253 1.53564H9.2675C8.99305 1.53539 8.72963 1.64366 8.53469 1.83684C8.33975 2.03003 8.2291 2.29245 8.22688 2.5669V8.02971H8.23625L2.49969 16.5263C1.91723 17.3856 1.60451 18.3991 1.60156 19.4372V43.5431C1.60156 45.1275 2.90188 46.4644 4.48625 46.4644H16.7075C18.2919 46.4644 19.5922 45.1275 19.5922 43.5431V19.4372C19.5892 18.3991 19.2765 17.3856 18.6941 16.5263Z" fill="#FAFAFF"/>
<path d="M9.17188 1.53516C9.17188 1.53516 14 1.53564 14.5 1.53564C15 1.53564 15.6797 1.6875 15.7734 2.5V8.02971H8.22656V2.54687C8.22656 2.10547 8.55469 1.60547 9.17188 1.53516Z" fill="#3B87DB"/>
<path d="M15.7734 6.71344H8.22656V8.0297H15.7734V6.71344Z" fill="#7CAFE7"/>
<path d="M22.3991 20.5341H1.60156V39.3131H22.3991V20.5341Z" fill="#FAFAFF"/>
<path d="M22 21H2V39H22V21Z" fill="#BED7F3"/>
<path d="M12 35.4075C15.0289 35.4075 17.4844 32.952 17.4844 29.9231C17.4844 26.8942 15.0289 24.4387 12 24.4387C8.97106 24.4387 6.51562 26.8942 6.51562 29.9231C6.51562 32.952 8.97106 35.4075 12 35.4075Z" fill="#A6CC17"/>
<path d="M12.0013 35.8463C10.8298 35.8463 9.6846 35.4989 8.71054 34.848C7.73649 34.1972 6.97731 33.2721 6.529 32.1898C6.08069 31.1075 5.96339 29.9166 6.19194 28.7676C6.42048 27.6186 6.98461 26.5632 7.81297 25.7348C8.64134 24.9065 9.69674 24.3424 10.8457 24.1138C11.9947 23.8853 13.1856 24.0026 14.2679 24.4509C15.3502 24.8992 16.2753 25.6584 16.9262 26.6324C17.577 27.6065 17.9244 28.7516 17.9244 29.9231C17.9226 31.4935 17.298 32.9991 16.1876 34.1095C15.0772 35.2199 13.5716 35.8445 12.0013 35.8463ZM12.0013 24.8775C11.0033 24.8775 10.0278 25.1734 9.19806 25.7278C8.36831 26.2823 7.7216 27.0703 7.3397 27.9923C6.95781 28.9142 6.85789 29.9287 7.05258 30.9075C7.24727 31.8862 7.72781 32.7853 8.43346 33.4909C9.1391 34.1966 10.0381 34.6771 11.0169 34.8718C11.9957 35.0665 13.0102 34.9666 13.9321 34.5847C14.8541 34.2028 15.6421 33.5561 16.1965 32.7263C16.751 31.8966 17.0469 30.9211 17.0469 29.9231C17.0469 28.5849 16.5153 27.3016 15.569 26.3553C14.6228 25.4091 13.3394 24.8775 12.0013 24.8775Z" fill="#1F61A9"/>
<path d="M14.618 1.53562C14.9227 1.5625 15.1844 1.60938 15.4667 1.83715C15.6615 2.03031 15.772 2.2926 15.7742 2.56687V8.02969H15.7649L21.5024 16.5272C22.0839 17.3851 22.3966 18.397 22.4005 19.4334V43.5431C22.4005 45.1275 21.1002 46.4644 19.5158 46.4644H4.48672C2.90235 46.4644 1.60203 45.1275 1.60203 43.5431V19.4372C1.60498 18.3991 1.9177 17.3855 2.50016 16.5262L8.23672 8.02969H8.22735V2.56687C8.22957 2.2926 8.34009 2.03031 8.53483 1.83715C8.72957 1.644 8.99275 1.53562 9.26704 1.53562H14.618ZM14.7345 2.02317e-07H9.26797C8.58835 -0.000268997 7.93618 0.268115 7.4536 0.746655C6.97102 1.22519 6.69716 1.87509 6.69172 2.55469V7.57406L1.22891 15.6647C0.473552 16.7766 0.0686428 18.0893 0.0664065 19.4334V43.5431C0.0660469 44.7159 0.529025 45.8413 1.35453 46.6744C1.7613 47.0937 2.24814 47.4272 2.78617 47.6549C3.3242 47.8826 3.90249 47.9999 4.48672 48H19.5149C20.0989 47.9998 20.677 47.8824 21.2149 47.6547C21.7528 47.427 22.2394 47.0936 22.6461 46.6744C23.4717 45.8414 23.9347 44.7159 23.9342 43.5431V19.4325C23.9318 18.0898 23.5276 16.7785 22.7736 15.6675L17.3099 7.57406V2.55469C17.3044 1.87525 17.0307 1.2255 16.5483 0.746985C16.0659 0.268472 15.414 -2.15882e-05 14.7345 2.02317e-07Z" fill="#1F61A9"/>
</svg>
