<?xml version="1.0" encoding="UTF-8"?>
<!DOCTYPE svg PUBLIC "-//W3C//DTD SVG 1.1//EN" "http://www.w3.org/Graphics/SVG/1.1/DTD/svg11.dtd">
<svg xmlns="http://www.w3.org/2000/svg" version="1.1" width="512px" height="512px" style="shape-rendering:geometricPrecision; text-rendering:geometricPrecision; image-rendering:optimizeQuality; fill-rule:evenodd; clip-rule:evenodd" xmlns:xlink="http://www.w3.org/1999/xlink">
<g><path style="opacity:0.999" fill="#e1e4e6" d="M 119.5,-0.5 C 196.833,-0.5 274.167,-0.5 351.5,-0.5C 351.333,33.835 351.5,68.1683 352,102.5C 357.231,118.243 368.065,126.576 384.5,127.5C 415.833,159.5 447.5,191.167 479.5,222.5C 479.667,310.834 479.5,399.167 479,487.5C 477.608,493.214 474.941,498.214 471,502.5C 466.4,506.626 461.234,509.626 455.5,511.5C 343.5,511.5 231.5,511.5 119.5,511.5C 110.081,508.252 102.914,502.252 98,493.5C 97.3333,491.5 96.6667,489.5 96,487.5C 95.5001,474.171 95.3334,460.837 95.5,447.5C 198.167,447.667 300.834,447.5 403.5,447C 408.185,445.65 411.685,442.817 414,438.5C 415.377,431.924 415.877,425.257 415.5,418.5C 415.667,362.832 415.5,307.166 415,251.5C 413.65,246.815 410.817,243.315 406.5,241C 302.89,239.507 199.223,239.007 95.5,239.5C 95.3333,167.499 95.5,95.4992 96,23.5C 97.3923,17.7863 100.059,12.7863 104,8.5C 108.6,4.37379 113.766,1.37379 119.5,-0.5 Z"/></g>
<g><path style="opacity:1" fill="#b0b7bd" d="M 351.5,-0.5 C 351.833,-0.5 352.167,-0.5 352.5,-0.5C 394.5,41.8333 436.5,84.1667 478.5,126.5C 447.338,127.498 416.004,127.832 384.5,127.5C 368.065,126.576 357.231,118.243 352,102.5C 351.5,68.1683 351.333,33.835 351.5,-0.5 Z"/></g>
<g><path style="opacity:1" fill="#c9d0d7" d="M 478.5,126.5 C 479.498,158.329 479.832,190.329 479.5,222.5C 447.5,191.167 415.833,159.5 384.5,127.5C 416.004,127.832 447.338,127.498 478.5,126.5 Z"/></g>
<g><path style="opacity:1" fill="#f15642" d="M 95.5,239.5 C 199.223,239.007 302.89,239.507 406.5,241C 410.817,243.315 413.65,246.815 415,251.5C 415.5,307.166 415.667,362.832 415.5,418.5C 413.68,425.151 409.347,429.318 402.5,431C 300.167,431.5 197.834,431.667 95.5,431.5C 77.4969,431.667 59.4969,431.5 41.5,431C 37,429.167 33.8333,426 32,421.5C 31.3333,364.167 31.3333,306.833 32,249.5C 33.8333,245 37,241.833 41.5,240C 59.4969,239.5 77.4969,239.333 95.5,239.5 Z"/></g>
<g><path style="opacity:1" fill="#fffcfc" d="M 107.5,293.5 C 119.171,293.333 130.838,293.5 142.5,294C 164.608,298.477 173.775,311.977 170,334.5C 167.061,347.106 159.228,354.606 146.5,357C 137.173,357.5 127.839,357.666 118.5,357.5C 118.848,364.906 118.348,372.239 117,379.5C 111.64,385.021 106.64,384.688 102,378.5C 101.333,352.167 101.333,325.833 102,299.5C 103.36,296.977 105.193,294.977 107.5,293.5 Z"/></g>
<g><path style="opacity:1" fill="#fffbfb" d="M 194.5,294.5 C 208.551,294.091 222.551,294.591 236.5,296C 261.404,304.622 271.904,322.122 268,348.5C 263.692,367.809 251.858,379.309 232.5,383C 219.167,383.667 205.833,383.667 192.5,383C 190.714,382.215 189.214,381.049 188,379.5C 187.333,352.833 187.333,326.167 188,299.5C 189.965,297.45 192.132,295.783 194.5,294.5 Z"/></g>
<g><path style="opacity:1" fill="#fffbfa" d="M 293.5,294.5 C 309.503,294.333 325.503,294.5 341.5,295C 348.05,296.213 350.55,300.047 349,306.5C 347.363,308.81 345.196,310.31 342.5,311C 329.504,311.5 316.504,311.667 303.5,311.5C 303.5,318.167 303.5,324.833 303.5,331.5C 314.838,331.333 326.172,331.5 337.5,332C 343.584,334.338 345.751,338.505 344,344.5C 342.786,346.049 341.286,347.215 339.5,348C 327.505,348.5 315.505,348.667 303.5,348.5C 303.953,359.27 303.453,369.937 302,380.5C 296.286,384.969 291.286,384.303 287,378.5C 286.333,352.167 286.333,325.833 287,299.5C 288.965,297.45 291.132,295.783 293.5,294.5 Z"/></g>
<g><path style="opacity:1" fill="#f9b8af" d="M 142.5,310.5 C 134.5,310.5 126.5,310.5 118.5,310.5C 118.5,320.833 118.5,331.167 118.5,341.5C 117.506,331.013 117.172,320.346 117.5,309.5C 126.017,309.174 134.35,309.507 142.5,310.5 Z"/></g>
<g><path style="opacity:1" fill="#f15642" d="M 142.5,310.5 C 152.253,313.664 156.086,320.331 154,330.5C 152.5,336 149,339.5 143.5,341C 135.173,341.5 126.84,341.666 118.5,341.5C 118.5,331.167 118.5,320.833 118.5,310.5C 126.5,310.5 134.5,310.5 142.5,310.5 Z"/></g>
<g><path style="opacity:1" fill="#f15642" d="M 204.5,310.5 C 212.507,310.334 220.507,310.5 228.5,311C 243.363,313.863 251.03,322.863 251.5,338C 252.237,352.88 245.571,362.547 231.5,367C 222.506,367.5 213.506,367.666 204.5,367.5C 204.5,348.5 204.5,329.5 204.5,310.5 Z"/></g>
<g><path style="opacity:1" fill="#cad0d7" d="M 415.5,418.5 C 415.877,425.257 415.377,431.924 414,438.5C 411.685,442.817 408.185,445.65 403.5,447C 300.834,447.5 198.167,447.667 95.5,447.5C 95.5,442.167 95.5,436.833 95.5,431.5C 197.834,431.667 300.167,431.5 402.5,431C 409.347,429.318 413.68,425.151 415.5,418.5 Z"/></g>
</svg>
