<svg width="24" height="24" viewBox="0 0 24 24" fill="none" xmlns="http://www.w3.org/2000/svg">
<path d="M13.2498 3C8.15978 2.86 3.98978 6.94 3.98978 12H2.19978C1.74978 12 1.52978 12.54 1.84978 12.85L4.63978 15.65C4.83978 15.85 5.14978 15.85 5.34978 15.65L8.13978 12.85C8.45978 12.54 8.22978 12 7.78978 12H5.98978C5.98978 8.1 9.16978 4.95 13.0898 5C16.8098 5.05 19.9398 8.18 19.9898 11.9C20.0398 15.81 16.8898 19 12.9898 19C11.3798 19 9.88978 18.45 8.70978 17.52C8.30978 17.21 7.74978 17.24 7.38978 17.6C6.96978 18.03 6.99978 18.73 7.46978 19.1C8.98978 20.29 10.9098 21 12.9898 21C18.0398 21 22.1298 16.83 21.9898 11.74C21.8598 7.05 17.9398 3.13 13.2498 3ZM12.7398 8C12.3298 8 11.9898 8.34 11.9898 8.75V12.43C11.9898 12.78 12.1798 13.11 12.4798 13.29L15.5998 15.14C15.9598 15.35 16.4198 15.23 16.6298 14.88C16.8398 14.52 16.7198 14.06 16.3698 13.85L13.4898 12.14V8.74C13.4898 8.34 13.1598 8 12.7398 8Z" fill="#1C1C1C" fill-opacity="0.65"/>
</svg>
