<svg width="148" height="148" viewBox="0 0 148 148" fill="none" xmlns="http://www.w3.org/2000/svg">
<path d="M95.583 67.8333C100.692 67.8333 104.833 63.6919 104.833 58.5833C104.833 53.4746 100.692 49.3333 95.583 49.3333C90.4744 49.3333 86.333 53.4746 86.333 58.5833C86.333 63.6919 90.4744 67.8333 95.583 67.8333Z" fill="#1C1C1C" fill-opacity="0.4"/>
<path d="M52.417 67.8333C57.5256 67.8333 61.667 63.6919 61.667 58.5833C61.667 53.4746 57.5256 49.3333 52.417 49.3333C47.3084 49.3333 43.167 53.4746 43.167 58.5833C43.167 63.6919 47.3084 67.8333 52.417 67.8333Z" fill="#1C1C1C" fill-opacity="0.4"/>
<path d="M73.938 12.3334C39.898 12.3334 12.333 39.96 12.333 74C12.333 108.04 39.898 135.667 73.938 135.667C108.04 135.667 135.666 108.04 135.666 74C135.666 39.96 108.04 12.3334 73.938 12.3334ZM73.9997 123.333C46.743 123.333 24.6663 101.257 24.6663 74C24.6663 46.7434 46.743 24.6667 73.9997 24.6667C101.256 24.6667 123.333 46.7434 123.333 74C123.333 101.257 101.256 123.333 73.9997 123.333ZM73.9997 86.3334C62.283 86.3334 51.6147 92.315 45.3247 102.243C43.968 104.402 44.6463 107.238 46.8047 108.595C48.963 109.952 51.7997 109.273 53.1563 107.115C57.7197 99.8384 65.4897 95.5217 73.9997 95.5217C82.5097 95.5217 90.2797 99.8384 94.843 107.115C95.7063 108.533 97.248 109.273 98.7897 109.273C99.653 109.273 100.455 109.027 101.256 108.595C103.415 107.238 104.093 104.402 102.736 102.243C96.3847 92.2534 85.7163 86.3334 73.9997 86.3334Z" fill="#1C1C1C" fill-opacity="0.4"/>
</svg>
