<svg width="20" height="20" viewBox="0 0 20 20" fill="none" xmlns="http://www.w3.org/2000/svg">
<g clip-path="url(#clip0_295_33480)">
<path d="M9.9915 1.66602C5.3915 1.66602 1.6665 5.39935 1.6665 9.99935C1.6665 14.5993 5.3915 18.3327 9.9915 18.3327C14.5998 18.3327 18.3332 14.5993 18.3332 9.99935C18.3332 5.39935 14.5998 1.66602 9.9915 1.66602ZM7.08317 6.66602C7.77484 6.66602 8.33317 7.22435 8.33317 7.91602C8.33317 8.60768 7.77484 9.16602 7.08317 9.16602C6.3915 9.16602 5.83317 8.60768 5.83317 7.91602C5.83317 7.22435 6.3915 6.66602 7.08317 6.66602ZM13.9248 12.266C13.1665 13.891 11.6998 14.9993 9.99984 14.9993C8.29984 14.9993 6.83317 13.891 6.07484 12.266C5.9415 11.991 6.1415 11.666 6.44984 11.666H13.5498C13.8582 11.666 14.0582 11.991 13.9248 12.266ZM12.9165 9.16602C12.2248 9.16602 11.6665 8.60768 11.6665 7.91602C11.6665 7.22435 12.2248 6.66602 12.9165 6.66602C13.6082 6.66602 14.1665 7.22435 14.1665 7.91602C14.1665 8.60768 13.6082 9.16602 12.9165 9.16602Z" fill="#1C1C1C" fill-opacity="0.4"/>
</g>
<defs>
<clipPath id="clip0_295_33480">
<rect width="20" height="20" fill="white"/>
</clipPath>
</defs>
</svg>
