<svg width="16" height="16" viewBox="0 0 16 16" fill="none" xmlns="http://www.w3.org/2000/svg">
<path d="M7.3335 4.66659H8.66683V5.99992H7.3335V4.66659ZM8.00016 11.3333C8.36683 11.3333 8.66683 11.0333 8.66683 10.6666V7.99992C8.66683 7.63325 8.36683 7.33325 8.00016 7.33325C7.6335 7.33325 7.3335 7.63325 7.3335 7.99992V10.6666C7.3335 11.0333 7.6335 11.3333 8.00016 11.3333ZM8.00016 1.33325C4.32016 1.33325 1.3335 4.31992 1.3335 7.99992C1.3335 11.6799 4.32016 14.6666 8.00016 14.6666C11.6802 14.6666 14.6668 11.6799 14.6668 7.99992C14.6668 4.31992 11.6802 1.33325 8.00016 1.33325ZM8.00016 13.3333C5.06016 13.3333 2.66683 10.9399 2.66683 7.99992C2.66683 5.05992 5.06016 2.66659 8.00016 2.66659C10.9402 2.66659 13.3335 5.05992 13.3335 7.99992C13.3335 10.9399 10.9402 13.3333 8.00016 13.3333Z" fill="#1C1C1C" fill-opacity="0.4"/>
</svg>
