<svg width="14" height="14" viewBox="0 0 14 14" fill="none" xmlns="http://www.w3.org/2000/svg">
<path d="M7.00001 0.333374C3.32001 0.333374 0.333344 3.32004 0.333344 7.00004C0.333344 10.68 3.32001 13.6667 7.00001 13.6667C10.68 13.6667 13.6667 10.68 13.6667 7.00004C13.6667 3.32004 10.68 0.333374 7.00001 0.333374ZM5.19334 9.86004L2.80001 7.46671C2.54001 7.20671 2.54001 6.78671 2.80001 6.52671C3.06001 6.26671 3.48001 6.26671 3.74001 6.52671L5.66668 8.44671L10.2533 3.86004C10.5133 3.60004 10.9333 3.60004 11.1933 3.86004C11.4533 4.12004 11.4533 4.54004 11.1933 4.80004L6.13334 9.86004C5.88001 10.12 5.45334 10.12 5.19334 9.86004Z" fill="#7C9911"/>
</svg>
