<svg width="16" height="16" viewBox="0 0 16 16" fill="none" xmlns="http://www.w3.org/2000/svg">
<path d="M8.43366 10.4467C8.52699 10.2067 8.46699 9.93337 8.28032 9.74671L6.88699 8.37337L6.90699 8.35337C8.06699 7.06004 8.89366 5.57337 9.38032 4.00004H10.6737C11.0337 4.00004 11.3337 3.70004 11.3337 3.34004V3.32671C11.3337 2.96671 11.0337 2.66671 10.6737 2.66671H6.66699V2.00004C6.66699 1.63337 6.36699 1.33337 6.00033 1.33337C5.63366 1.33337 5.33366 1.63337 5.33366 2.00004V2.66671H1.32699C0.966992 2.66671 0.666992 2.96671 0.666992 3.32671C0.666992 3.69337 0.966992 3.98671 1.32699 3.98671H8.11366C7.66699 5.28004 6.96033 6.50004 6.00033 7.56671C5.46033 6.97337 5.00699 6.32671 4.62699 5.64671C4.52033 5.45337 4.32699 5.33337 4.10699 5.33337C3.64699 5.33337 3.35366 5.83337 3.58033 6.23337C4.00033 6.98671 4.51366 7.70671 5.11366 8.37337L2.20033 11.2467C1.93366 11.5067 1.93366 11.9334 2.20033 12.1934C2.46033 12.4534 2.88033 12.4534 3.14699 12.1934L6.00033 9.33337L7.34699 10.68C7.68699 11.02 8.26699 10.8934 8.43366 10.4467ZM11.667 6.66671C11.267 6.66671 10.907 6.91337 10.767 7.29337L8.32032 13.8267C8.16032 14.2334 8.46699 14.6667 8.90032 14.6667C9.16033 14.6667 9.39366 14.5067 9.48699 14.26L10.0803 12.6667H13.247L13.847 14.26C13.9403 14.5 14.1737 14.6667 14.4337 14.6667C14.867 14.6667 15.1737 14.2334 15.0203 13.8267L12.5737 7.29337C12.427 6.91337 12.067 6.66671 11.667 6.66671ZM10.587 11.3334L11.667 8.44671L12.747 11.3334H10.587Z" fill="#1C1C1C" fill-opacity="0.4"/>
</svg>
