<svg width="15" height="14" viewBox="0 0 15 14" fill="none" xmlns="http://www.w3.org/2000/svg">
<path d="M7.5 0.333374C3.81999 0.333374 0.833328 3.32004 0.833328 7.00004C0.833328 10.68 3.81999 13.6667 7.5 13.6667C11.18 13.6667 14.1667 10.68 14.1667 7.00004C14.1667 3.32004 11.18 0.333374 7.5 0.333374ZM5.69333 9.86004L3.29999 7.46671C3.03999 7.20671 3.03999 6.78671 3.29999 6.52671C3.55999 6.26671 3.98 6.26671 4.24 6.52671L6.16666 8.44671L10.7533 3.86004C11.0133 3.60004 11.4333 3.60004 11.6933 3.86004C11.9533 4.12004 11.9533 4.54004 11.6933 4.80004L6.63333 9.86004C6.37999 10.12 5.95333 10.12 5.69333 9.86004Z" fill="#1C1C1C" fill-opacity="0.2"/>
</svg>
