<svg width="17" height="11" viewBox="0 0 17 11" fill="none" xmlns="http://www.w3.org/2000/svg">
<path d="M1.16602 0.416687C1.57852 0.416687 1.91602 0.754187 1.91602 1.16669V10.1667C1.91602 10.5792 1.57852 10.9167 1.16602 10.9167C0.753516 10.9167 0.416016 10.5792 0.416016 10.1667V1.16669C0.416016 0.754187 0.753516 0.416687 1.16602 0.416687ZM4.16602 0.416687C4.57852 0.416687 4.91602 0.754187 4.91602 1.16669V10.1667C4.91602 10.5792 4.57852 10.9167 4.16602 10.9167C3.75352 10.9167 3.41602 10.5792 3.41602 10.1667V1.16669C3.41602 0.754187 3.75352 0.416687 4.16602 0.416687ZM16.166 0.416687H7.16602C6.75352 0.416687 6.41602 0.754187 6.41602 1.16669V10.1667C6.41602 10.5792 6.75352 10.9167 7.16602 10.9167H16.166C16.5785 10.9167 16.916 10.5792 16.916 10.1667V1.16669C16.916 0.754187 16.5785 0.416687 16.166 0.416687ZM8.39602 8.80919L9.49852 7.41419C9.64852 7.22669 9.92602 7.22669 10.0835 7.40669L11.1335 8.66669L12.7085 6.63419C12.8585 6.43919 13.151 6.43919 13.301 6.63419L14.9585 8.80919C15.146 9.05669 14.9735 9.40919 14.6585 9.40919H8.68852C8.38102 9.41669 8.20102 9.05669 8.39602 8.80919Z" fill="#FAFAFF"/>
</svg>
