<svg width="44" height="34" viewBox="0 0 44 34" fill="none" xmlns="http://www.w3.org/2000/svg">
<path d="M43 26.495H40.975V0.784973C40.975 0.586061 40.896 0.395295 40.7553 0.254643C40.6147 0.113991 40.4239 0.0349731 40.225 0.0349731H3.775C3.57609 0.0349731 3.38532 0.113991 3.24467 0.254643C3.10402 0.395295 3.025 0.586061 3.025 0.784973V26.495H1C0.801088 26.495 0.610322 26.574 0.46967 26.7146C0.329018 26.8553 0.25 27.0461 0.25 27.245V30.635C0.249999 31.0729 0.33638 31.5065 0.504197 31.911C0.672014 32.3155 0.917971 32.683 1.22798 32.9923C1.538 33.3016 1.90598 33.5467 2.31086 33.7136C2.71574 33.8806 3.14957 33.966 3.5875 33.965H40.4125C40.8504 33.966 41.2843 33.8806 41.6891 33.7136C42.094 33.5467 42.462 33.3016 42.772 32.9923C43.082 32.683 43.328 32.3155 43.4958 31.911C43.6636 31.5065 43.75 31.0729 43.75 30.635V27.245C43.75 27.0461 43.671 26.8553 43.5303 26.7146C43.3897 26.574 43.1989 26.495 43 26.495ZM39.475 1.53497V23.75H4.525V1.53497H39.475ZM4.525 25.25H39.475V26.51H30.16C29.9611 26.51 29.7703 26.589 29.6297 26.7296C29.489 26.8703 29.41 27.0611 29.41 27.26V28.5425C29.4081 28.6592 29.3608 28.7707 29.2783 28.8532C29.1957 28.9358 29.0843 28.983 28.9675 28.985H15.0325C14.9157 28.983 14.8043 28.9358 14.7217 28.8532C14.6392 28.7707 14.5919 28.6592 14.59 28.5425V27.245C14.59 27.0461 14.511 26.8553 14.3703 26.7146C14.2297 26.574 14.0389 26.495 13.84 26.495H4.525V25.25ZM42.25 30.635C42.248 31.121 42.0535 31.5865 41.7092 31.9294C41.3648 32.2724 40.8985 32.465 40.4125 32.465H3.5875C3.10146 32.465 2.63522 32.2724 2.29084 31.9294C1.94645 31.5865 1.75198 31.121 1.75 30.635V27.995H13.09V28.5275C13.087 28.7848 13.135 29.0402 13.2312 29.2789C13.3274 29.5176 13.4699 29.7349 13.6505 29.9182C13.8311 30.1016 14.0461 30.2474 14.2833 30.3473C14.5205 30.4471 14.7751 30.499 15.0325 30.5H28.9675C29.4821 30.498 29.975 30.2927 30.3389 29.9288C30.7027 29.565 30.908 29.072 30.91 28.5575V28.025H42.25V30.635Z" fill="#1F61A9"/>
<path d="M21.9994 20.48C23.6711 20.48 25.3053 19.9842 26.6953 19.0555C28.0853 18.1267 29.1687 16.8066 29.8085 15.2621C30.4482 13.7176 30.6156 12.0181 30.2895 10.3785C29.9633 8.73883 29.1583 7.23274 27.9762 6.05064C26.7941 4.86853 25.288 4.06351 23.6484 3.73737C22.0088 3.41123 20.3092 3.57861 18.7647 4.21836C17.2203 4.85811 15.9002 5.94149 14.9714 7.3315C14.0426 8.7215 13.5469 10.3557 13.5469 12.0275C13.5489 14.2686 14.44 16.4174 16.0247 18.0021C17.6095 19.5868 19.7582 20.478 21.9994 20.48ZM21.9994 5.07495C23.3745 5.07495 24.7186 5.48271 25.862 6.24666C27.0053 7.01061 27.8964 8.09645 28.4226 9.36685C28.9489 10.6373 29.0866 12.0352 28.8183 13.3838C28.55 14.7325 27.8879 15.9713 26.9155 16.9436C25.9432 17.9159 24.7044 18.5781 23.3557 18.8464C22.0071 19.1146 20.6092 18.9769 19.3388 18.4507C18.0684 17.9245 16.9825 17.0334 16.2186 15.8901C15.4546 14.7467 15.0469 13.4025 15.0469 12.0275C15.0489 10.1841 15.782 8.4169 17.0854 7.11349C18.3888 5.81007 20.1561 5.07694 21.9994 5.07495Z" fill="#A6CC17"/>
<path d="M21.0242 15.9275L25.4042 12.6275C25.4974 12.5576 25.573 12.467 25.625 12.3629C25.6771 12.2587 25.7042 12.1439 25.7042 12.0275C25.7042 11.911 25.6771 11.7962 25.625 11.6921C25.573 11.5879 25.4974 11.4973 25.4042 11.4275L21.0242 8.12748C20.9128 8.04391 20.7803 7.99302 20.6416 7.98051C20.5029 7.968 20.3634 7.99437 20.2388 8.05666C20.1142 8.11895 20.0095 8.2147 19.9362 8.33318C19.863 8.45166 19.8242 8.58819 19.8242 8.72748V15.3275C19.8242 15.4668 19.863 15.6033 19.9362 15.7218C20.0095 15.8403 20.1142 15.936 20.2388 15.9983C20.3634 16.0606 20.5029 16.087 20.6416 16.0744C20.7803 16.0619 20.9128 16.011 21.0242 15.9275ZM21.3242 10.2275L23.7017 12.0275L21.3242 13.82V10.2275Z" fill="#1F61A9"/>
</svg>
